<?xml version="1.0" standalone="no"?>
<!DOCTYPE svg PUBLIC "-//W3C//DTD SVG 20010904//EN"
 "http://www.w3.org/TR/2001/REC-SVG-20010904/DTD/svg10.dtd">
<svg version="1.0" xmlns="http://www.w3.org/2000/svg"
 width="1715.000000pt" height="886.000000pt" viewBox="0 0 1715.000000 886.000000"
 preserveAspectRatio="xMidYMid meet">

<g transform="translate(0.000000,886.000000) scale(0.100000,-0.100000)"
fill="#000000" stroke="none">
<path d="M7760 8012 l0 -849 29 5 c17 2 40 -3 55 -13 27 -18 32 -15 17 13 -5
9 -11 43 -13 75 -4 45 -2 57 10 57 9 0 13 7 9 20 -4 15 0 20 13 20 10 0 20 7
24 15 8 22 49 18 69 -5 23 -27 22 -32 -13 -63 -36 -32 -38 -59 -8 -87 30 -27
66 -25 99 6 32 30 54 27 71 -11 13 -29 -3 -52 -64 -91 -40 -25 -95 -27 -137
-5 -24 14 -25 12 -8 -21 7 -14 11 -47 9 -76 -3 -42 -10 -58 -32 -81 -33 -32
-82 -46 -111 -31 -19 10 -25 3 -20 -24 1 -5 2 -146 1 -313 l0 -303 80 0 c96 0
108 16 13 18 -36 1 -67 3 -67 5 -1 1 0 100 2 220 3 176 6 218 16 214 8 -3 19
0 25 6 8 8 11 8 11 -1 0 -7 7 -12 15 -12 11 0 15 11 15 38 0 29 5 39 23 47 14
6 23 21 25 39 4 29 81 116 104 116 7 0 20 17 29 38 13 31 23 39 62 51 39 11
47 17 47 36 0 13 -6 25 -14 27 -13 3 -13 6 -1 28 14 25 14 25 15 3 0 -13 6
-23 15 -23 18 0 65 47 65 65 0 8 7 15 15 15 18 0 65 47 65 65 0 8 6 15 13 15
8 0 22 9 32 20 17 19 17 21 0 40 -16 18 -16 20 -2 20 13 0 17 10 17 44 0 42
-11 59 -62 102 -7 7 -25 26 -40 44 -16 18 -32 28 -39 24 -6 -3 -15 0 -20 7 -8
11 -12 10 -25 -6 -16 -20 -16 -20 -9 3 5 16 2 22 -9 22 -9 0 -16 7 -16 15 0
13 -20 15 -120 15 -113 0 -120 -1 -120 -20 0 -14 -7 -20 -22 -20 -15 0 -29
-11 -40 -29 -13 -23 -21 -28 -39 -24 -18 5 -21 3 -16 -11 4 -10 4 -22 1 -28
-10 -15 -24 13 -16 31 4 9 6 316 4 684 -2 579 -4 667 -17 667 -13 0 -15 -108
-15 -848z m220 -436 c0 -2 -7 -6 -15 -10 -8 -3 -15 -1 -15 4 0 6 7 10 15 10 8
0 15 -2 15 -4z m168 -9 c9 -7 12 -31 11 -74 -1 -35 1 -66 5 -70 3 -4 37 -8 74
-9 80 -4 112 -11 112 -24 0 -13 -37 -50 -50 -50 -5 0 -10 -5 -10 -11 0 -8 -19
-10 -65 -5 -67 7 -84 -2 -40 -22 14 -7 25 -20 25 -31 0 -24 -45 -75 -59 -67
-5 4 -40 38 -78 77 -97 101 -137 139 -146 139 -14 0 -46 43 -47 61 0 9 11 28
25 43 30 33 31 32 117 -59 l58 -60 0 61 c0 91 28 133 68 101z m89 -69 c-3 -8
-6 -5 -6 6 -1 11 2 17 5 13 3 -3 4 -12 1 -19z m-427 -115 c0 -26 -2 -44 -4
-42 -8 9 -13 98 -5 93 5 -3 9 -26 9 -51z m270 -343 c0 -5 -4 -10 -10 -10 -5 0
-10 5 -10 10 0 6 5 10 10 10 6 0 10 -4 10 -10z m-242 -270 c3 -12 2 -12 -8 -3
-7 6 -19 9 -28 6 -10 -4 -13 -2 -8 6 10 16 38 10 44 -9z"/>
<path d="M8632 8778 l-2 -88 33 1 c29 2 30 2 5 6 -27 4 -27 6 -31 86 l-3 82
-2 -87z"/>
<path d="M8702 8777 c-2 -67 1 -88 11 -85 8 3 12 31 13 89 l1 84 -7 -85 -6
-85 -5 85 -5 85 -2 -88z"/>
<path d="M8753 8700 c0 -47 2 -66 4 -42 2 23 2 61 0 85 -2 23 -4 4 -4 -43z"/>
<path d="M8752 8580 c0 -19 2 -27 5 -17 2 9 2 25 0 35 -3 9 -5 1 -5 -18z"/>
<path d="M8722 8580 c0 -14 2 -19 5 -12 2 6 2 18 0 25 -3 6 -5 1 -5 -13z"/>
<path d="M8748 8060 c-2 -264 0 -480 5 -480 4 0 7 216 7 480 0 264 -2 480 -5
480 -2 0 -6 -216 -7 -480z"/>
<path d="M8655 8060 c0 -261 1 -368 2 -237 2 130 2 344 0 475 -1 130 -2 23 -2
-238z"/>
<path d="M9941 8161 c-6 -11 -11 -28 -10 -38 1 -13 3 -11 8 6 11 41 36 49 68
21 l27 -25 -16 25 c-20 32 -63 38 -77 11z"/>
<path d="M120 8080 l0 -60 888 0 c488 -1 1344 -1 1902 -1 l1015 0 3 60 3 61
-1906 0 -1905 0 0 -60z"/>
<path d="M10010 8110 c0 -5 5 -10 10 -10 6 0 10 5 10 10 0 6 -4 10 -10 10 -5
0 -10 -4 -10 -10z"/>
<path d="M10937 8042 c-10 -10 -17 -27 -16 -38 0 -16 1 -16 9 4 12 29 37 38
61 23 11 -6 19 -7 19 -1 0 10 -32 30 -48 30 -5 0 -16 -8 -25 -18z"/>
<path d="M11006 7995 c-3 -8 -1 -15 4 -15 6 0 10 7 10 15 0 8 -2 15 -4 15 -2
0 -6 -7 -10 -15z"/>
<path d="M10076 7981 c-6 -9 229 -22 250 -14 8 3 14 9 14 14 0 11 -257 12
-264 0z"/>
<path d="M9470 7902 c0 -6 17 -14 38 -17 61 -10 80 -22 84 -51 4 -39 28 -44
28 -6 0 50 -29 74 -93 80 -37 3 -57 1 -57 -6z"/>
<path d="M10360 7883 c-36 -33 -51 -87 -24 -81 10 2 21 16 25 32 10 34 24 46
61 46 14 0 33 3 42 6 31 12 16 24 -29 24 -35 0 -51 -6 -75 -27z"/>
<path d="M11100 7860 l-55 -7 55 -3 c129 -8 223 -5 227 8 5 13 -124 15 -227 2z"/>
<path d="M10723 7853 c9 -2 23 -2 30 0 6 3 -1 5 -18 5 -16 0 -22 -2 -12 -5z"/>
<path d="M10467 7784 c-12 -12 4 -24 33 -24 45 0 79 -20 82 -48 2 -14 9 -27
16 -30 16 -5 16 49 -1 72 -17 24 -114 46 -130 30z"/>
<path d="M11401 7781 c-45 -6 -72 -31 -86 -78 -5 -19 -2 -23 14 -23 14 0 21 6
21 18 0 34 26 56 74 61 26 3 47 11 47 16 0 13 -14 14 -70 6z"/>
<path d="M430 7680 c-7 -4 -10 -15 -7 -24 9 -22 119 -23 137 -1 10 12 10 16
-1 19 -30 10 -117 14 -129 6z"/>
<path d="M780 7674 c-19 -22 2 -34 62 -34 56 0 78 7 78 26 0 9 -13 14 -37 15
-21 0 -50 3 -64 5 -16 3 -31 -2 -39 -12z"/>
<path d="M1140 7680 c-7 -4 -10 -15 -7 -24 9 -23 125 -23 134 -1 3 9 4 17 2
19 -9 8 -118 13 -129 6z"/>
<path d="M1493 7683 c-18 -7 -16 -30 3 -37 9 -3 37 -6 62 -6 52 0 83 13 67 29
-11 11 -113 22 -132 14z"/>
<path d="M1842 7678 c-22 -22 7 -38 70 -38 44 0 60 4 65 15 8 21 6 22 -63 29
-40 4 -64 2 -72 -6z"/>
<path d="M2552 7678 c-20 -20 7 -38 58 -38 58 0 80 7 80 26 0 9 -12 14 -32 15
-18 1 -47 3 -64 5 -17 2 -36 -2 -42 -8z"/>
<path d="M2910 7680 c-7 -4 -10 -15 -7 -24 8 -21 105 -22 133 -2 16 12 16 15
4 20 -30 10 -117 14 -130 6z"/>
<path d="M3260 7675 c-20 -24 3 -35 67 -33 97 2 98 31 2 42 -45 6 -58 4 -69
-9z"/>
<path d="M3618 7679 c-6 -4 -8 -14 -5 -23 6 -14 20 -16 94 -14 78 3 88 5 88
22 0 16 -9 19 -83 20 -46 0 -89 -2 -94 -5z"/>
<path d="M112 7663 c6 -31 98 -29 98 2 0 11 -13 15 -51 15 -43 0 -50 -3 -47
-17z"/>
<path d="M2190 7666 c0 -19 22 -26 80 -26 45 0 79 18 63 33 -3 4 -37 7 -75 7
-51 0 -68 -3 -68 -14z"/>
<path d="M7800 7570 c0 -12 17 -12 45 0 17 7 15 9 -12 9 -18 1 -33 -3 -33 -9z"/>
<path d="M8645 7539 c-4 -6 -5 -12 -2 -15 2 -3 7 2 10 11 7 17 1 20 -8 4z"/>
<path d="M8710 7516 c0 -8 4 -17 9 -20 5 -4 7 3 4 14 -6 23 -13 26 -13 6z"/>
<path d="M8720 7469 c0 -5 5 -7 10 -4 6 3 10 8 10 11 0 2 -4 4 -10 4 -5 0 -10
-5 -10 -11z"/>
<path d="M8746 7454 c-3 -8 -10 -12 -16 -9 -5 3 -10 1 -10 -4 0 -6 4 -11 8
-11 5 0 10 -254 11 -565 l3 -564 -24 -5 c-13 -3 -36 -7 -53 -9 -25 -3 -23 -4
9 -6 43 -1 40 -16 -4 -24 -19 -3 -16 -5 11 -6 30 -1 38 3 44 22 l8 22 4 -22
c2 -13 9 -23 14 -23 5 0 9 240 9 610 0 336 -2 610 -4 610 -2 0 -7 -7 -10 -16z"/>
<path d="M14485 7439 c-4 -17 -25 -49 -46 -70 -21 -21 -39 -41 -39 -43 0 -2
52 -7 115 -11 l116 -7 -7 -47 c-12 -85 -60 -163 -124 -203 -27 -16 -124 -42
-152 -40 -10 0 -18 -5 -18 -12 0 -10 36 -14 160 -15 l160 -2 36 35 c21 20 41
36 46 36 5 0 26 27 48 61 44 68 70 161 53 188 -6 10 -9 29 -6 43 5 24 1 26
-154 72 -87 25 -163 46 -170 46 -6 0 -14 -14 -18 -31z"/>
<path d="M5360 7434 c-132 -48 -230 -166 -292 -350 -31 -92 -33 -296 -4 -389
30 -101 77 -185 137 -250 67 -72 141 -112 232 -128 55 -9 75 -8 131 7 74 20
161 78 215 142 51 61 101 176 123 282 18 87 19 108 9 203 -24 227 -121 390
-276 464 -76 36 -203 45 -275 19z m246 -65 c71 -35 147 -116 188 -201 114
-233 75 -529 -94 -698 -134 -134 -308 -133 -445 5 -64 63 -106 141 -135 247
-19 70 -22 100 -18 193 6 131 30 208 95 307 104 158 268 216 409 147z"/>
<path d="M5450 7285 c0 -37 4 -65 10 -65 6 0 10 28 10 65 0 37 -4 65 -10 65
-6 0 -10 -28 -10 -65z"/>
<path d="M5276 7253 c-8 -21 10 -41 24 -27 11 11 3 44 -10 44 -4 0 -11 -8 -14
-17z"/>
<path d="M5636 7263 c-12 -12 -6 -43 9 -43 8 0 15 9 15 19 0 21 -13 34 -24 24z"/>
<path d="M5318 7194 c-6 -5 52 -121 104 -208 38 -63 26 -76 -40 -42 -56 28
-62 30 -62 18 0 -5 25 -19 56 -32 44 -18 59 -30 70 -56 17 -42 28 -48 48 -28
24 24 19 60 -11 84 -16 12 -58 78 -94 146 -36 68 -68 122 -71 118z"/>
<path d="M5154 7055 c-3 -8 -3 -19 1 -25 11 -18 25 -11 25 15 0 27 -17 34 -26
10z"/>
<path d="M5737 7057 c-3 -8 -1 -20 4 -28 11 -19 34 3 26 25 -8 20 -23 21 -30
3z"/>
<path d="M5125 6890 c-3 -5 0 -13 9 -16 21 -8 71 -1 71 11 0 14 -72 19 -80 5z"/>
<path d="M5717 6894 c-13 -13 5 -24 39 -24 24 0 34 5 34 15 0 10 -10 15 -33
15 -19 0 -37 -3 -40 -6z"/>
<path d="M5160 6725 c0 -17 5 -25 13 -22 6 2 12 12 12 22 0 10 -6 20 -12 23
-8 2 -13 -6 -13 -23z"/>
<path d="M5743 6734 c-8 -22 15 -44 26 -25 10 16 4 41 -10 41 -5 0 -12 -7 -16
-16z"/>
<path d="M5450 6485 c0 -37 4 -65 10 -65 6 0 10 28 10 65 0 37 -4 65 -10 65
-6 0 -10 -28 -10 -65z"/>
<path d="M5270 6515 c0 -17 5 -25 13 -22 6 2 12 12 12 22 0 10 -6 20 -12 23
-8 2 -13 -6 -13 -23z"/>
<path d="M5624 6525 c-3 -8 -3 -19 1 -25 11 -18 25 -11 25 15 0 27 -17 34 -26
10z"/>
<path d="M8648 7413 c8 -3 12 -29 12 -79 0 -43 4 -74 10 -74 6 0 10 31 10 74
0 58 -3 75 -16 80 -9 3 -19 6 -22 5 -4 0 -1 -3 6 -6z"/>
<path d="M16122 7340 c70 -13 92 -52 67 -117 -18 -48 -92 -113 -129 -113 -6 0
-10 29 -11 73 0 70 -16 145 -18 87 -1 -14 -5 -31 -10 -39 -7 -11 -11 -10 -20
5 -9 17 -10 17 -11 2 0 -23 -51 -138 -61 -138 -4 0 -10 -8 -13 -17 -10 -33
-56 -73 -82 -73 -14 0 -23 -4 -20 -9 10 -15 231 -9 232 7 1 6 2 25 3 40 1 22
8 30 36 41 75 27 135 105 135 175 0 52 -46 88 -108 85 -22 -1 -20 -3 10 -9z"/>
<path d="M15574 7295 c3 -8 1 -15 -4 -15 -5 0 -12 -9 -15 -20 -3 -11 -17 -23
-30 -26 -18 -5 -24 -15 -30 -52 -9 -63 -31 -97 -77 -119 -43 -21 -45 -26 -19
-52 28 -28 162 -32 191 -6 13 12 27 15 45 11 54 -14 105 47 105 124 0 57 -22
90 -60 90 -23 0 -27 4 -23 19 4 15 -5 24 -36 40 -48 25 -55 26 -47 6z m134
-151 c2 -39 -2 -56 -18 -77 -38 -48 -51 -36 -44 41 7 72 18 95 43 90 12 -2 17
-17 19 -54z"/>
<path d="M15179 7199 c-5 -10 -9 -27 -9 -39 0 -53 -57 -127 -107 -136 -18 -3
-33 -12 -33 -20 0 -11 18 -14 81 -14 77 0 81 1 108 31 32 34 54 120 45 169 -6
26 -10 29 -41 28 -21 -1 -38 -8 -44 -19z"/>
<path d="M3770 7025 c0 -36 4 -65 9 -65 12 0 17 18 20 71 1 34 -2 48 -14 52
-12 5 -15 -4 -15 -58z"/>
<path d="M7754 7065 c-10 -40 4 -95 24 -95 70 1 85 48 31 94 -38 32 -47 33
-55 1z"/>
<path d="M1893 6488 c-9 -15 -12 -65 -6 -90 4 -15 15 -18 63 -18 57 0 58 0 62
31 4 27 0 34 -38 60 -46 31 -68 36 -81 17z"/>
<path d="M11410 6368 c0 -1 -1 -168 -3 -371 -2 -321 0 -367 13 -367 13 0 15
47 13 367 -1 256 -4 368 -12 371 -6 2 -11 2 -11 0z"/>
<path d="M11708 6363 c-2 -4 -3 -14 -2 -20 1 -7 2 -170 3 -363 1 -305 3 -350
16 -350 13 0 15 45 13 367 -2 267 -6 367 -15 370 -6 2 -13 0 -15 -4z"/>
<path d="M14634 6303 c-12 -40 -78 -159 -96 -175 -11 -10 -28 -18 -38 -18 -10
0 -21 8 -25 18 -13 29 -21 -23 -19 -118 l2 -85 120 -3 121 -3 3 43 c3 39 6 45
43 61 100 47 157 148 124 220 -14 32 -49 47 -105 47 -30 0 -46 5 -50 15 -9 22
-73 20 -80 -2z m180 -43 c51 -19 42 -101 -17 -157 -29 -28 -68 -53 -81 -53 -3
0 -6 47 -6 104 0 74 4 106 13 109 21 9 64 7 91 -3z"/>
<path d="M14305 6300 c10 -16 -5 -70 -20 -70 -8 0 -16 -17 -20 -40 -8 -46 -55
-115 -84 -125 -41 -13 -91 -70 -91 -104 l0 -31 119 0 119 0 2 190 c1 168 -1
190 -15 190 -9 0 -13 -5 -10 -10z"/>
<path d="M7810 6290 c0 -5 7 -10 15 -10 8 0 15 5 15 10 0 6 -7 10 -15 10 -8 0
-15 -4 -15 -10z"/>
<path d="M7920 6290 c0 -5 9 -10 19 -10 11 0 23 5 26 10 4 6 -5 10 -19 10 -14
0 -26 -4 -26 -10z"/>
<path d="M8000 6260 c0 -6 113 -10 320 -10 207 0 320 4 320 10 0 6 -113 10
-320 10 -207 0 -320 -4 -320 -10z"/>
<path d="M15920 6168 c-36 -5 -97 -10 -137 -12 -76 -2 -90 -7 -78 -26 5 -8 26
-10 69 -5 63 6 100 0 90 -16 -3 -5 -41 -9 -85 -9 -60 0 -80 -3 -77 -12 3 -9
34 -14 94 -16 91 -3 143 -21 69 -23 -22 -1 -53 -2 -70 -3 -16 -1 -46 -3 -64
-4 -26 -1 -32 -5 -24 -13 7 -7 50 -11 112 -10 55 0 102 -3 105 -8 3 -4 -42
-11 -100 -14 -138 -7 -155 -22 -38 -33 80 -7 85 -8 49 -15 -22 -4 -62 -8 -89
-8 -27 -1 -46 -4 -43 -8 12 -11 418 -15 487 -4 36 5 86 13 113 16 79 10 53 25
-45 25 -50 0 -88 3 -84 8 4 4 44 12 89 17 105 13 103 31 -2 26 -102 -4 -117
15 -18 24 85 8 107 13 107 26 0 5 -41 9 -92 9 -50 0 -89 2 -87 4 2 2 40 9 84
15 115 16 118 31 6 31 -107 0 -114 14 -10 24 39 3 79 11 88 16 21 12 -330 11
-419 -2z"/>
<path d="M2907 6112 c-24 -26 -21 -42 8 -42 21 0 25 5 25 30 0 34 -10 38 -33
12z"/>
<path d="M4960 5504 l0 -506 23 6 c12 3 237 6 499 6 l478 0 2 500 3 500 -502
0 -503 0 0 -506z m918 460 c24 -5 32 -12 34 -33 2 -14 1 -216 -2 -449 l-5
-423 -442 0 c-243 0 -447 2 -452 5 -14 9 -14 876 1 893 8 10 94 13 423 13 227
0 426 -3 443 -6z"/>
<path d="M5190 5528 c0 -127 2 -229 4 -227 3 3 6 104 7 226 2 217 2 222 23
226 16 3 15 5 -6 6 l-28 1 0 -232z"/>
<path d="M5463 5753 l217 -3 0 -238 0 -238 -32 -2 c-48 -4 -47 -12 0 -12 l42
0 0 250 0 250 -222 -2 -223 -3 218 -2z"/>
<path d="M5190 5268 c0 -5 93 -7 208 -7 114 1 196 3 182 5 -56 7 -390 8 -390
2z"/>
<path d="M9521 5970 c-29 -24 -49 -25 -73 -3 -18 16 -18 16 -12 0 13 -36 78
-35 102 1 18 27 14 27 -17 2z"/>
<path d="M2928 5920 c-9 -6 -32 -9 -50 -8 -29 3 -33 0 -36 -25 -4 -35 17 -44
68 -28 44 13 63 32 54 55 -7 18 -12 19 -36 6z"/>
<path d="M637 5873 c-9 -15 13 -134 41 -222 l27 -86 3 50 c6 86 -51 292 -71
258z"/>
<path d="M3090 5775 c-6 -15 -7 -31 -4 -37 8 -12 82 -4 96 10 13 13 -2 37 -22
38 -8 1 -25 4 -37 8 -19 6 -25 2 -33 -19z"/>
<path d="M2813 5693 c-10 -27 11 -46 101 -93 47 -25 93 -55 102 -68 18 -27 97
-64 139 -66 29 -1 30 1 33 45 l3 46 -53 -4 c-76 -6 -121 20 -128 73 l-5 39
-65 8 c-36 4 -78 14 -93 22 -25 12 -29 12 -34 -2z"/>
<path d="M765 5683 c-4 -10 -9 -57 -12 -105 -3 -49 -9 -88 -12 -88 -13 1 -48
37 -70 73 -51 84 -124 72 -88 -15 18 -43 67 -84 118 -99 25 -8 45 -22 53 -37
13 -24 14 -22 30 50 19 84 18 229 0 235 -6 2 -15 -4 -19 -14z"/>
<path d="M1197 5673 c-39 -43 -77 -174 -77 -262 0 -50 -16 -111 -30 -111 -4 0
-13 7 -20 15 -10 13 -11 43 -2 148 12 144 6 171 -29 128 -29 -36 -27 -165 6
-265 14 -42 25 -88 25 -101 0 -36 -25 -31 -36 7 -12 41 -41 49 -49 15 -5 -19
2 -38 28 -74 26 -37 34 -57 30 -77 -3 -14 -9 -28 -13 -31 -26 -16 -60 33 -60
84 0 34 -28 62 -55 55 -17 -4 -21 -15 -23 -67 -4 -71 -8 -79 -28 -53 -10 14
-17 17 -25 9 -16 -16 11 -53 38 -53 13 0 23 -6 23 -14 0 -8 11 -28 24 -43 22
-26 27 -27 55 -16 37 13 44 5 36 -41 -6 -31 -4 -36 25 -51 39 -20 60 -7 60 40
0 42 -7 47 -36 28 l-24 -15 6 78 c8 100 16 116 52 108 15 -4 34 -15 43 -26 15
-19 16 -18 28 24 7 24 19 53 27 66 14 21 14 22 -26 22 -22 0 -53 -8 -67 -17
l-26 -18 6 34 c4 18 7 38 7 43 0 6 12 8 27 5 29 -5 74 8 84 25 4 5 4 19 1 30
-4 16 -10 18 -43 13 -34 -6 -39 -4 -39 12 0 11 4 23 9 29 23 24 90 175 101
227 12 58 8 107 -9 107 -4 0 -15 -8 -24 -17z"/>
<path d="M15908 5678 c-2 -6 3 -19 13 -29 9 -9 21 -25 27 -35 6 -10 14 -16 18
-11 4 4 0 15 -8 24 -9 10 -19 28 -22 41 -8 24 -22 29 -28 10z"/>
<path d="M16231 5654 c0 -11 3 -14 6 -6 3 7 2 16 -1 19 -3 4 -6 -2 -5 -13z"/>
<path d="M15876 5613 c-4 -16 -9 -36 -12 -45 -3 -10 -1 -18 5 -18 6 0 11 13
11 29 0 17 5 33 10 36 12 8 13 25 1 25 -5 0 -12 -12 -15 -27z"/>
<path d="M2360 5583 c0 -38 3 -43 23 -43 32 1 107 37 107 52 0 26 -16 33 -72
34 l-58 1 0 -44z"/>
<path d="M16240 5596 c0 -35 -28 -107 -48 -123 -12 -10 -9 -10 15 2 18 8 42
15 55 16 l23 0 -22 9 c-20 8 -21 14 -16 64 3 31 3 56 -1 56 -3 0 -6 -11 -6
-24z"/>
<path d="M15937 5583 c-11 -10 -8 -20 7 -26 10 -4 12 0 9 14 -6 21 -7 22 -16
12z"/>
<path d="M15757 5545 c3 -9 8 -14 10 -11 3 3 22 -6 42 -19 19 -14 41 -25 47
-25 7 0 15 -12 19 -27 7 -27 8 -26 20 18 7 26 15 52 19 58 4 6 3 11 -1 11 -5
0 -14 -9 -21 -20 -17 -27 -50 -25 -94 5 -43 29 -50 31 -41 10z"/>
<path d="M16384 5535 c-3 -8 -3 -19 1 -25 3 -5 3 -10 -2 -10 -4 0 -15 -13 -24
-29 -17 -29 -119 -111 -139 -111 -5 0 -10 -4 -10 -10 0 -13 13 -13 26 0 5 5
19 11 30 13 39 5 117 97 134 156 9 31 -5 46 -16 16z"/>
<path d="M16150 5530 c0 -5 5 -10 10 -10 6 0 10 5 10 10 0 6 -4 10 -10 10 -5
0 -10 -4 -10 -10z"/>
<path d="M2476 5460 c-21 -16 -54 -32 -72 -36 -19 -3 -34 -12 -34 -20 0 -22
32 -17 98 17 44 21 62 36 62 50 0 25 -7 23 -54 -11z"/>
<path d="M14218 5483 c-23 -4 -28 -10 -29 -34 -1 -16 -2 -34 -3 -41 -1 -8 23
-17 59 -23 57 -10 60 -11 61 -40 1 -16 -2 -36 -6 -44 -5 -10 0 -21 14 -32 20
-16 21 -24 20 -195 l-1 -179 -39 -11 -39 -11 44 -7 c24 -4 48 -3 52 1 4 4 9
145 11 313 l3 305 -60 1 c-33 1 -72 -1 -87 -3z"/>
<path d="M14637 5483 c-26 -4 -28 -7 -25 -46 l3 -42 55 -10 55 -11 0 -49 c0
-28 -4 -74 -8 -103 -7 -50 -7 -53 18 -62 26 -10 28 -17 29 -120 0 -134 -2
-148 -31 -158 -27 -10 -26 -10 13 -11 l41 -1 1 310 2 310 -63 -1 c-34 -1 -75
-4 -90 -6z"/>
<path d="M16004 5475 c3 -9 6 -32 6 -51 0 -19 5 -34 11 -34 6 0 8 8 4 20 -3
10 -2 28 4 38 7 14 5 21 -11 31 -18 11 -20 11 -14 -4z"/>
<path d="M16055 5470 c-3 -6 1 -7 9 -4 18 7 21 14 7 14 -6 0 -13 -4 -16 -10z"/>
<path d="M15778 5420 c5 -32 9 -35 32 -20 13 8 12 10 -2 10 -11 0 -18 8 -18
20 0 11 -4 20 -8 20 -5 0 -7 -13 -4 -30z"/>
<path d="M15880 5401 c0 -10 19 -25 25 -20 1 2 -3 10 -11 17 -8 7 -14 8 -14 3z"/>
<path d="M2893 5393 c-23 -3 -33 -10 -33 -21 0 -31 16 -45 43 -38 18 4 42 -3
82 -24 46 -24 69 -30 121 -30 35 0 64 4 64 9 0 5 3 16 6 25 5 13 -3 16 -52 16
-61 0 -164 38 -164 60 0 10 -7 10 -67 3z"/>
<path d="M15749 5363 c-13 -16 -12 -17 4 -4 9 7 17 15 17 17 0 8 -8 3 -21 -13z"/>
<path d="M16101 5341 c-1 -24 2 -32 9 -25 7 7 7 19 1 35 -9 23 -10 22 -10 -10z"/>
<path d="M2502 5293 c-35 -35 -71 -63 -82 -63 -15 0 -20 -7 -20 -28 0 -16 3
-31 6 -34 11 -11 94 44 134 89 36 42 52 86 33 95 -5 2 -36 -25 -71 -59z"/>
<path d="M15173 5337 c-29 -5 -53 -13 -53 -16 0 -4 14 -22 32 -41 l32 -35 -45
-8 c-67 -13 -66 -13 -61 -46 3 -23 10 -31 33 -36 25 -6 29 -11 29 -41 0 -24
-5 -36 -17 -40 -36 -11 -47 -21 -49 -45 -4 -64 -64 -134 -122 -146 l-37 -7 40
-7 c22 -4 92 -8 156 -8 158 -1 151 -10 151 201 0 148 -15 290 -31 287 -3 -1
-30 -6 -58 -12z m57 -87 c0 -5 -10 -10 -22 -9 -22 0 -22 1 -3 9 11 5 21 9 23
9 1 1 2 -3 2 -9z"/>
<path d="M15725 5331 c-3 -6 4 -15 15 -21 23 -12 26 -5 6 16 -9 8 -17 10 -21
5z"/>
<path d="M15959 5321 c-9 -9 -24 -21 -35 -27 -10 -7 -16 -15 -12 -19 3 -3 21
7 40 23 18 17 31 32 28 35 -3 2 -12 -3 -21 -12z"/>
<path d="M15770 5302 c0 -15 11 -21 27 -15 12 5 12 7 1 14 -17 11 -28 11 -28
1z"/>
<path d="M16407 5293 c-12 -12 -7 -22 8 -17 8 4 15 10 15 15 0 11 -14 12 -23
2z"/>
<path d="M662 5231 c-1 -62 17 -82 48 -53 l22 20 -26 41 c-15 23 -30 41 -35
41 -5 0 -9 -22 -9 -49z"/>
<path d="M16150 5273 c0 -7 -6 -10 -14 -7 -9 3 -17 -3 -21 -15 -7 -23 -25 -29
-26 -8 0 6 -4 2 -9 -11 -8 -19 -13 -21 -29 -12 -28 15 -35 12 -20 -6 30 -36
11 -94 -32 -94 -10 0 -21 -4 -24 -10 -25 -40 128 36 180 89 32 33 45 40 65 36
15 -3 33 1 45 9 20 15 20 15 0 17 -11 1 -37 1 -59 -1 -24 -1 -42 3 -47 12 -6
9 -9 9 -9 1z m-10 -47 c0 -3 -4 -8 -10 -11 -5 -3 -10 -1 -10 4 0 6 5 11 10 11
6 0 10 -2 10 -4z m-55 -35 c3 -5 1 -12 -4 -15 -5 -3 -11 1 -15 9 -6 16 9 21
19 6z"/>
<path d="M16340 5245 c7 -8 16 -15 20 -15 4 0 10 7 14 15 4 11 -2 15 -21 15
-21 0 -24 -2 -13 -15z"/>
<path d="M16380 5215 c0 -3 9 -16 21 -28 11 -12 23 -34 26 -50 3 -15 10 -30
16 -34 16 -10 -2 48 -26 84 -20 30 -37 42 -37 28z"/>
<path d="M16220 5193 c1 -5 14 -23 30 -42 23 -27 27 -40 23 -67 -4 -22 -2 -34
6 -34 6 0 11 7 11 16 0 9 9 18 20 21 11 3 20 7 20 9 0 5 -103 104 -107 104 -2
0 -3 -3 -3 -7z"/>
<path d="M1250 5147 c0 -13 -7 -32 -15 -43 -22 -29 -18 -36 10 -18 27 18 38
43 29 68 -9 24 -24 20 -24 -7z"/>
<path d="M2925 5089 c12 -87 11 -85 67 -97 87 -18 125 -21 137 -9 20 20 12 34
-23 40 -49 8 -97 32 -145 74 l-42 35 6 -43z"/>
<path d="M16352 5094 c23 -51 36 -73 56 -94 l23 -25 -25 54 c-14 30 -32 59
-42 64 -9 5 -15 5 -12 1z"/>
<path d="M2606 5051 c-24 -26 -66 -48 -119 -65 -17 -5 -16 -10 9 -55 l28 -49
29 20 c15 11 44 36 63 56 28 29 34 43 34 79 0 23 -4 43 -8 43 -5 0 -21 -13
-36 -29z"/>
<path d="M16017 5061 c-2 -11 0 -24 5 -29 13 -13 -7 -51 -43 -80 -16 -13 -27
-27 -24 -32 5 -8 -42 -20 -80 -20 -13 0 -25 6 -28 13 -7 20 -17 3 -11 -20 5
-17 16 -21 72 -27 37 -3 86 -6 110 -6 37 0 42 -3 42 -24 0 -13 -11 -39 -25
-59 -13 -20 -21 -39 -17 -41 24 -15 54 50 61 132 5 55 9 65 33 80 26 15 30 15
59 -2 18 -10 29 -14 25 -7 -13 21 26 26 43 5 9 -11 24 -23 35 -27 11 -4 16
-13 12 -22 -3 -9 0 -15 8 -15 8 0 16 4 18 10 2 6 18 6 43 0 22 -5 54 -10 71
-10 38 0 134 30 134 42 0 12 -24 10 -39 -4 -7 -8 -39 -13 -84 -12 -59 0 -84 6
-139 32 -78 38 -94 65 -57 93 27 21 24 22 -56 19 -27 0 -70 6 -94 14 -56 21
-68 20 -74 -3z"/>
<path d="M10950 5004 c-27 -10 -30 -13 -12 -13 18 -1 22 -7 22 -36 0 -24 -6
-38 -16 -42 -14 -5 -12 -8 7 -19 13 -7 32 -13 43 -14 17 0 18 6 13 61 -3 34
-9 64 -14 68 -4 4 -24 2 -43 -5z"/>
<path d="M9140 5000 c-17 -5 -19 -8 -7 -9 23 -1 25 -71 2 -71 -27 0 -16 -17
16 -24 41 -8 49 -1 49 37 0 72 -10 83 -60 67z"/>
<path d="M9305 4990 c-3 -5 3 -10 14 -10 31 0 34 -17 9 -51 -25 -33 -35 -117
-12 -98 15 13 64 1 64 -16 0 -7 -7 -18 -15 -25 -13 -10 -19 -10 -33 4 -10 9
-21 16 -25 16 -11 0 5 -275 17 -282 6 -4 23 -8 39 -8 l27 0 2 93 c1 50 3 110
3 132 0 22 4 46 9 53 5 8 4 18 -3 25 -6 6 -11 24 -11 39 0 32 -2 33 -30 16
-31 -20 -34 -2 -6 35 14 19 26 41 26 50 0 28 -61 50 -75 27z"/>
<path d="M9670 4990 c0 -5 9 -10 19 -10 32 0 34 -18 7 -53 l-26 -33 5 -179 c5
-187 7 -195 52 -195 29 0 32 14 34 155 2 66 6 125 11 132 5 7 5 14 -2 18 -5 3
-10 19 -10 36 0 29 -13 39 -25 19 -9 -15 -35 -12 -35 3 0 8 11 24 25 37 27 26
32 49 13 68 -14 14 -68 16 -68 2z m70 -160 c11 -7 12 -14 4 -27 -14 -23 -27
-26 -49 -10 -37 28 5 63 45 37z"/>
<path d="M10030 4990 c0 -5 9 -10 19 -10 32 0 34 -18 6 -51 l-26 -31 5 -181
c3 -99 9 -184 14 -189 5 -5 22 -8 38 -6 l29 3 3 134 c2 87 7 140 15 149 9 12
9 16 0 19 -7 3 -13 18 -13 34 0 30 -9 36 -27 18 -6 -6 -19 -9 -29 -7 -16 3
-14 8 14 36 34 34 40 60 20 80 -14 14 -68 16 -68 2z m80 -167 c6 -5 -14 -36
-26 -40 -18 -6 -48 23 -41 41 5 12 13 15 34 10 16 -4 30 -9 33 -11z"/>
<path d="M10380 4990 c0 -5 9 -10 19 -10 33 0 35 -20 6 -50 -22 -23 -26 -35
-22 -58 3 -16 2 -33 -2 -38 -4 -5 -3 -76 3 -159 l11 -150 32 -3 c29 -3 31 -1
37 35 3 21 7 105 8 187 2 114 -1 151 -11 154 -7 2 -18 -4 -26 -14 -7 -11 -17
-16 -20 -12 -4 4 4 21 19 38 28 34 33 59 14 78 -14 14 -68 16 -68 2z m78 -164
c6 -6 -18 -46 -27 -46 -19 0 -54 37 -46 49 7 12 60 9 73 -3z"/>
<path d="M10740 4990 c0 -5 9 -10 19 -10 32 0 33 -16 4 -51 -20 -23 -28 -44
-28 -70 0 -36 0 -36 38 -31 37 5 43 -1 31 -32 -8 -20 -23 -20 -46 1 -17 15
-18 12 -17 -83 0 -54 4 -119 7 -144 6 -41 10 -45 38 -48 31 -3 31 -2 37 50 4
29 7 93 7 141 0 69 3 89 15 93 8 4 15 10 15 15 0 5 -7 9 -15 9 -10 0 -15 11
-15 35 0 38 -15 45 -36 18 -7 -10 -16 -15 -20 -11 -4 5 0 16 8 25 48 55 42
103 -12 103 -17 0 -30 -4 -30 -10z"/>
<path d="M10308 4903 c7 -3 16 -2 19 1 4 3 -2 6 -13 5 -11 0 -14 -3 -6 -6z"/>
<path d="M849 4876 c-7 -8 32 -410 41 -416 24 -15 59 -287 42 -324 -5 -11 -15
-36 -22 -53 -7 -18 -24 -44 -37 -58 -17 -16 -24 -32 -20 -45 3 -11 0 -23 -6
-27 -18 -12 -80 -33 -102 -34 -33 -3 153 -17 240 -18 115 -1 124 7 124 112 0
45 6 150 15 232 9 83 16 164 16 182 l0 32 -62 3 -63 3 3 130 c2 78 -1 136 -7
145 -8 11 -11 -2 -12 -50 -4 -146 -8 -210 -14 -220 -3 -5 -24 -10 -46 -10 -34
0 -39 3 -39 23 0 39 -38 388 -42 393 -3 2 -7 2 -9 0z"/>
<path d="M16236 4832 c-3 -6 -1 -14 5 -17 15 -10 25 3 12 16 -7 7 -13 7 -17 1z"/>
<path d="M3017 4800 c-37 -3 -67 -9 -67 -15 0 -5 29 -11 65 -13 52 -2 66 0 71
13 4 9 5 17 3 18 -2 1 -34 0 -72 -3z"/>
<path d="M16253 4789 c-7 -7 0 -21 19 -41 37 -40 46 -31 15 15 -16 24 -28 32
-34 26z"/>
<path d="M2650 4750 c-14 -11 -31 -20 -37 -20 -7 0 -13 -10 -13 -23 0 -40 20
-55 68 -50 29 4 42 10 42 20 0 23 -22 93 -29 93 -3 0 -17 -9 -31 -20z"/>
<path d="M16096 4741 c-3 -4 6 -6 19 -3 14 2 25 6 25 8 0 8 -39 4 -44 -5z"/>
<path d="M16370 4675 c0 -8 -8 -15 -17 -15 -15 0 -16 -2 -3 -10 8 -5 23 -10
33 -10 21 0 23 35 2 44 -9 3 -15 0 -15 -9z"/>
<path d="M16280 4674 c0 -6 -9 -20 -21 -33 -17 -18 -20 -30 -14 -57 5 -30 3
-36 -14 -41 -25 -7 -28 -21 -3 -19 12 1 17 -6 16 -21 0 -13 3 -23 8 -23 4 0 8
9 8 20 0 22 10 26 27 9 7 -7 12 -6 16 5 4 9 3 16 -2 16 -5 0 -11 8 -15 18 -3
9 -11 25 -18 34 -10 14 -9 24 5 54 10 20 15 39 12 42 -3 3 -5 1 -5 -4z"/>
<path d="M16152 4635 c0 -16 2 -22 5 -12 2 9 2 23 0 30 -3 6 -5 -1 -5 -18z"/>
<path d="M3005 4589 c-16 -5 -38 -7 -48 -5 -12 3 -21 -3 -27 -18 -5 -13 -19
-26 -32 -30 l-23 -6 30 -24 30 -24 0 -109 c0 -98 -3 -113 -28 -164 -15 -31
-52 -83 -82 -115 l-55 -58 21 -19 c19 -18 19 -20 4 -37 -20 -22 -118 -50 -167
-47 -39 2 -51 -8 -20 -17 30 -8 506 -19 540 -11 42 9 65 52 64 119 -1 28 14
155 32 281 18 127 31 234 28 239 -2 4 -57 7 -121 5 l-116 -4 2 28 c1 15 1 27
0 26 -1 0 -15 -5 -32 -10z"/>
<path d="M16441 4574 c0 -11 3 -14 6 -6 3 7 2 16 -1 19 -3 4 -6 -2 -5 -13z"/>
<path d="M16190 4495 c-10 -12 -10 -15 4 -15 9 0 16 7 16 15 0 8 -2 15 -4 15
-2 0 -9 -7 -16 -15z"/>
<path d="M16296 4472 c-8 -13 10 -45 35 -61 27 -16 25 7 -4 43 -15 19 -26 25
-31 18z"/>
<path d="M16287 4374 c-10 -13 -14 -24 -10 -24 9 0 36 40 31 45 -2 2 -11 -8
-21 -21z"/>
<path d="M16350 4380 c0 -5 5 -10 10 -10 6 0 10 5 10 10 0 6 -4 10 -10 10 -5
0 -10 -4 -10 -10z"/>
<path d="M5944 4326 c-10 -26 0 -51 21 -51 16 0 20 7 20 30 0 33 -30 49 -41
21z"/>
<path d="M6050 4305 c0 -19 5 -35 10 -35 6 0 10 16 10 35 0 19 -4 35 -10 35
-5 0 -10 -16 -10 -35z"/>
<path d="M6104 4326 c-12 -30 1 -51 31 -54 17 -1 47 -5 67 -8 21 -3 49 -3 63
0 21 5 25 12 25 41 l0 35 -90 0 c-70 0 -92 -3 -96 -14z"/>
<path d="M16240 4320 c0 -5 5 -10 10 -10 6 0 10 5 10 10 0 6 -4 10 -10 10 -5
0 -10 -4 -10 -10z"/>
<path d="M16225 4246 c-30 -30 -51 -99 -39 -127 8 -17 9 -14 9 18 0 27 10 53
32 86 36 52 35 60 -2 23z"/>
<path d="M16463 4210 c0 -25 2 -35 4 -22 2 12 2 32 0 45 -2 12 -4 2 -4 -23z"/>
<path d="M15385 4167 c0 -34 -4 -109 -8 -167 -12 -158 3 -113 19 56 11 119 12
151 2 161 -11 10 -13 0 -13 -50z"/>
<path d="M15250 4182 c0 -10 6 -26 13 -36 12 -16 13 -14 9 18 -4 37 -22 51
-22 18z"/>
<path d="M16435 4150 c3 -5 8 -10 11 -10 2 0 4 5 4 10 0 6 -5 10 -11 10 -5 0
-7 -4 -4 -10z"/>
<path d="M8420 4131 c41 -3 92 -15 113 -25 49 -24 42 -30 -13 -11 -57 20 -153
18 -217 -4 -35 -12 -54 -14 -56 -7 -6 18 -77 -43 -108 -92 -16 -26 -34 -62
-39 -82 -13 -45 -13 -100 0 -100 6 0 10 -4 10 -10 0 -5 -7 -10 -17 -10 -14 0
-15 -2 -1 -17 9 -10 19 -28 22 -40 4 -13 14 -23 22 -23 12 0 14 7 9 31 -5 23
-3 34 11 44 15 11 16 15 5 28 -10 13 -10 26 4 74 35 119 163 204 286 190 118
-14 206 -83 235 -186 9 -31 20 -64 25 -73 12 -24 11 -28 -6 -22 -8 4 -15 1
-15 -5 0 -6 5 -11 11 -11 6 0 9 -16 7 -37 -4 -48 13 -55 28 -12 6 17 18 37 27
44 13 10 14 19 3 76 -16 87 -48 149 -101 197 -74 69 -117 85 -225 88 -93 2
-94 2 -20 -5z"/>
<path d="M16300 4124 c0 -8 -16 -32 -35 -52 -34 -36 -36 -36 -50 -18 -8 11
-15 16 -15 10 0 -5 7 -17 14 -27 13 -17 16 -16 49 13 35 30 65 90 46 90 -5 0
-9 -7 -9 -16z"/>
<path d="M8288 4117 c-16 -6 -28 -14 -28 -19 0 -11 1 -11 46 12 41 20 28 25
-18 7z"/>
<path d="M5554 4096 c-10 -26 0 -51 21 -51 16 0 20 7 20 30 0 33 -30 49 -41
21z"/>
<path d="M5667 4103 c-11 -10 -8 -63 3 -63 6 0 10 16 10 35 0 36 -2 40 -13 28z"/>
<path d="M5714 4096 c-15 -38 0 -51 68 -60 96 -12 118 -4 118 39 l0 35 -90 0
c-70 0 -92 -3 -96 -14z"/>
<path d="M12260 4090 c0 -5 5 -10 10 -10 6 0 10 5 10 10 0 6 -4 10 -10 10 -5
0 -10 -4 -10 -10z"/>
<path d="M12260 4060 c0 -5 -25 -10 -55 -10 -61 0 -95 -12 -113 -41 -9 -13
-12 -117 -12 -376 -1 -369 4 -438 30 -438 18 0 26 43 11 58 -8 8 -11 122 -11
359 l0 349 25 24 c24 25 27 25 189 25 99 0 167 -4 171 -10 4 -6 13 -7 23 -1
23 12 52 -4 52 -29 0 -13 7 -20 20 -20 16 0 20 7 20 30 0 20 5 30 15 30 8 0
15 9 15 20 0 19 -7 20 -180 20 -113 0 -180 4 -180 10 0 6 -4 10 -10 10 -5 0
-10 -4 -10 -10z"/>
<path d="M6192 3613 l3 -368 35 0 35 0 3 368 2 367 -40 0 -40 0 2 -367z"/>
<path d="M8396 3924 c-10 -9 -16 -33 -16 -60 0 -37 -3 -44 -20 -44 -11 0 -20
-6 -20 -14 0 -9 16 -16 48 -19 26 -3 54 -6 62 -8 8 -1 46 -1 83 -1 65 2 68 3
65 25 -3 20 -9 22 -65 25 l-63 3 0 42 c0 63 -37 88 -74 51z"/>
<path d="M10182 3896 c-20 -6 -31 -15 -28 -23 3 -7 1 -13 -4 -13 -6 0 -10 -5
-10 -11 0 -6 8 -9 18 -7 9 2 16 9 15 16 -2 6 3 9 10 6 7 -2 24 7 37 21 26 27
18 30 -38 11z"/>
<path d="M6722 3892 c-8 -5 -12 -22 -10 -38 3 -28 4 -29 63 -29 l60 0 0 35 c0
35 0 35 -50 38 -27 1 -56 -2 -63 -6z"/>
<path d="M6545 3880 c-11 -18 6 -50 26 -50 14 0 19 7 19 30 0 23 -5 30 -19 30
-11 0 -23 -5 -26 -10z"/>
<path d="M6650 3859 c0 -38 24 -35 28 4 2 19 -1 27 -12 27 -11 0 -16 -10 -16
-31z"/>
<path d="M5765 3861 l-50 -6 -3 -301 -2 -301 61 -7 c34 -3 75 -6 91 -6 l28 0
-2 313 -3 312 -35 1 c-19 1 -57 -1 -85 -5z"/>
<path d="M5570 3555 c0 -264 2 -305 15 -305 13 0 15 41 15 305 0 264 -2 305
-15 305 -13 0 -15 -41 -15 -305z"/>
<path d="M5660 3555 c0 -241 3 -306 13 -302 9 3 12 72 12 302 0 230 -3 299
-12 303 -10 3 -13 -62 -13 -303z"/>
<path d="M15553 3712 c-2 -81 -6 -222 -11 -314 -6 -142 -10 -170 -26 -187 -11
-12 -14 -21 -8 -21 33 0 40 46 55 345 12 230 13 303 4 312 -9 9 -13 -22 -14
-135z"/>
<path d="M7940 3816 c0 -2 7 -6 15 -10 8 -3 15 -1 15 4 0 6 -7 10 -15 10 -8 0
-15 -2 -15 -4z"/>
<path d="M8252 3808 c7 -19 38 -22 38 -4 0 10 -9 16 -21 16 -12 0 -19 -5 -17
-12z"/>
<path d="M7876 3749 c-40 -43 -43 -72 -11 -77 15 -2 28 11 52 49 18 29 30 56
27 61 -11 17 -33 7 -68 -33z"/>
<path d="M11840 3730 c0 -5 5 -10 10 -10 6 0 10 5 10 10 0 6 -4 10 -10 10 -5
0 -10 -4 -10 -10z"/>
<path d="M6740 3680 c-13 -7 -16 -40 -15 -215 0 -228 0 -227 65 -223 l35 3 3
214 c3 169 1 216 -10 222 -17 11 -59 11 -78 -1z"/>
<path d="M6571 3654 c0 -11 3 -14 6 -6 3 7 2 16 -1 19 -3 4 -6 -2 -5 -13z"/>
<path d="M6662 3650 c0 -14 2 -19 5 -12 2 6 2 18 0 25 -3 6 -5 1 -5 -13z"/>
<path d="M6661 3604 c0 -11 3 -14 6 -6 3 7 2 16 -1 19 -3 4 -6 -2 -5 -13z"/>
<path d="M6574 3455 c0 -82 2 -115 3 -72 2 43 2 110 0 150 -1 40 -3 5 -3 -78z"/>
<path d="M6663 3540 c0 -25 2 -35 4 -22 2 12 2 32 0 45 -2 12 -4 2 -4 -23z"/>
<path d="M11930 3485 c-1 -5 -3 -17 -4 -25 -1 -12 -18 -16 -79 -18 -56 -2 -77
-6 -74 -15 2 -8 41 -13 125 -15 104 -2 122 0 122 13 0 11 -11 15 -39 15 -36 0
-40 3 -44 28 -2 15 -5 23 -7 17z"/>
<path d="M6664 3350 c0 -58 1 -81 3 -52 2 28 2 76 0 105 -2 28 -3 5 -3 -53z"/>
<path d="M6571 3274 c0 -11 3 -14 6 -6 3 7 2 16 -1 19 -3 4 -6 -2 -5 -13z"/>
<path d="M8505 3231 c-101 -6 -110 -8 -110 -26 0 -19 8 -20 221 -23 198 -2
222 -1 228 14 17 45 -31 50 -339 35z"/>
<path d="M8010 3204 c0 -23 3 -25 43 -22 35 2 43 7 45 26 3 20 -1 22 -42 22
-43 0 -46 -2 -46 -26z"/>
<path d="M2065 3145 c6 -2 22 -6 37 -9 82 -18 59 -147 -36 -205 -61 -38 -66
-32 -66 70 0 57 -4 88 -10 84 -5 -3 -10 -22 -10 -42 0 -29 -2 -33 -14 -24 -17
14 -16 14 -62 -79 -39 -78 -84 -130 -113 -130 -11 0 -21 -4 -21 -10 0 -6 37
-10 91 -10 l91 0 76 -62 c42 -34 118 -97 167 -138 156 -132 456 -370 466 -370
12 0 202 150 242 192 16 15 54 47 85 70 58 42 203 157 212 168 3 3 38 32 78
64 39 32 72 60 72 62 0 2 -42 4 -94 4 l-94 0 -245 -175 c-135 -96 -250 -175
-256 -175 -6 0 -121 79 -256 175 l-244 175 -81 0 -81 0 3 47 c3 45 5 49 43 66
82 39 143 126 130 187 -8 38 -49 70 -89 69 -17 0 -26 -2 -21 -4z"/>
<path d="M1610 2981 c-30 -5 -35 -10 -33 -31 3 -41 -28 -117 -53 -131 -37 -20
-18 -29 60 -29 94 0 100 7 105 117 3 93 8 89 -79 74z"/>
<path d="M7082 2968 c4 -10 87 -13 373 -13 286 0 369 3 372 13 4 9 -75 12
-372 12 -297 0 -376 -3 -373 -12z"/>
<path d="M10240 2966 c0 -12 56 -14 353 -15 195 -1 361 1 370 5 52 19 -15 24
-353 24 -312 0 -370 -2 -370 -14z"/>
<path d="M14502 2968 c6 -16 80 -16 85 0 3 8 -9 12 -42 12 -31 0 -45 -4 -43
-12z"/>
<path d="M8032 2844 l3 -75 163 0 c89 0 167 1 172 1 6 0 10 32 10 75 l0 75
-175 0 -176 0 3 -76z"/>
<path d="M7915 2637 c-3 -7 -4 -401 -3 -877 l3 -865 878 -3 877 -2 0 880 0
880 -875 0 c-696 0 -877 -3 -880 -13z m1630 -138 c6 -6 6 -12 0 -18 -11 -11
-1420 -19 -1431 -9 -3 4 -3 15 0 25 6 17 36 18 713 15 412 -2 712 -7 718 -13z
m18 -862 c1 -328 -1 -597 -5 -597 -5 0 -7 280 -7 623 1 342 4 611 6 597 2 -14
4 -294 6 -623z"/>
<path d="M1355 2561 c-6 -11 -5 -137 2 -167 5 -22 184 -174 204 -174 9 0 159
113 205 155 6 5 59 48 118 94 58 46 106 88 106 93 0 11 -627 10 -635 -1z"/>
<path d="M3300 2560 c0 -11 158 -268 192 -312 l23 -30 99 157 c54 86 100 165
103 175 5 19 -1 20 -206 20 -130 0 -211 -4 -211 -10z"/>
<path d="M7084 2481 c-17 -18 40 -21 366 -21 289 0 370 3 370 13 0 9 -80 12
-366 12 -201 0 -368 -2 -370 -4z"/>
<path d="M9900 2120 c1 -318 3 -370 15 -370 13 0 15 52 15 370 0 323 -2 370
-15 370 -13 0 -15 -46 -15 -370z"/>
<path d="M13105 2479 c-3 -3 -4 -169 -4 -368 l0 -361 45 0 c32 0 44 4 44 15 0
10 -11 15 -35 15 l-35 0 0 340 0 340 35 0 c22 0 35 5 35 13 0 13 -78 19 -85 6z"/>
<path d="M14506 2483 c-15 -16 -2 -23 39 -23 30 0 45 4 45 13 0 13 -72 22 -84
10z"/>
<path d="M0 2270 c0 -11 5 -20 10 -20 6 0 10 9 10 20 0 11 -4 20 -10 20 -5 0
-10 -9 -10 -20z"/>
<path d="M2659 2033 c-6 -6 -10 -20 -9 -30 1 -10 2 -22 1 -28 -1 -7 -135 -9
-384 -8 -211 1 -393 0 -405 -4 -26 -6 -28 -25 -6 -47 14 -14 99 -16 793 -16
591 0 780 3 789 12 19 19 14 83 -7 109 l-19 24 -372 0 c-282 1 -373 -2 -381
-12z"/>
<path d="M7087 1473 c-4 -3 -7 -10 -7 -15 0 -4 167 -8 370 -8 322 0 370 2 370
15 0 13 -47 15 -363 15 -200 0 -367 -3 -370 -7z"/>
<path d="M14500 1464 c0 -10 14 -14 45 -14 33 0 45 4 45 15 0 10 -12 14 -45
13 -31 0 -45 -5 -45 -14z"/>
<path d="M0 105 l0 -105 8575 0 8575 0 0 103 0 102 -8575 2 -8575 2 0 -104z"/>
</g>
</svg>
