<?xml version="1.0" standalone="no"?>
<!DOCTYPE svg PUBLIC "-//W3C//DTD SVG 20010904//EN"
 "http://www.w3.org/TR/2001/REC-SVG-20010904/DTD/svg10.dtd">
<svg version="1.0" xmlns="http://www.w3.org/2000/svg"
 width="1772.000000pt" height="590.000000pt" viewBox="0 0 1772.000000 590.000000"
 preserveAspectRatio="xMidYMid meet">

<g transform="translate(0.000000,590.000000) scale(0.100000,-0.100000)"
fill="#000000" stroke="none">
<path d="M6545 5669 c-5 -6 -11 -57 -15 -113 -14 -181 -67 -315 -166 -418 -36
-37 -62 -72 -59 -78 16 -26 58 -31 103 -14 24 9 45 14 47 12 5 -5 -68 -192
-91 -233 -40 -71 -116 -154 -160 -175 -60 -29 -78 -15 -40 30 30 36 41 70 32
103 -15 60 -92 114 -146 102 -39 -8 -45 -5 -41 23 7 60 -40 108 -128 132 -63
17 -109 5 -147 -37 -27 -30 -35 -33 -52 -24 -27 14 -72 14 -72 0 0 -7 9 -9 22
-6 12 4 28 2 34 -4 7 -6 26 -11 43 -11 17 -1 31 -6 31 -11 0 -6 7 -18 16 -28
8 -9 15 -35 16 -57 0 -48 -24 -84 -85 -125 -33 -23 -49 -27 -75 -22 -23 4 -32
3 -27 -4 3 -6 -1 -11 -9 -11 -15 0 -20 -18 -19 -73 0 -20 -16 -25 -106 -30
-53 -3 -68 -8 -85 -28 l-21 -25 -22 27 c-13 15 -33 29 -45 32 -18 5 -16 0 15
-28 20 -19 37 -41 37 -49 0 -24 16 -19 34 9 9 14 32 33 51 42 31 15 36 15 59
0 48 -32 56 -134 16 -224 -11 -25 -20 -47 -20 -48 0 -2 20 -6 45 -9 74 -12
121 -85 91 -144 -56 -108 -256 -109 -309 0 l-18 36 -50 -34 c-134 -90 -223
-26 -154 109 26 50 77 107 95 107 21 0 18 20 -9 49 -16 17 -32 31 -35 31 -13
0 -5 -21 14 -37 23 -20 26 -35 8 -31 -7 2 -13 0 -13 -3 0 -3 -13 -17 -30 -32
l-30 -26 -7 22 -6 22 -7 -22 c-5 -16 -15 -23 -32 -23 -28 0 -66 36 -56 54 3 6
3 8 -2 4 -5 -5 -16 5 -26 21 -21 35 -55 56 -64 41 -3 -5 -2 -10 4 -10 6 0 21
-11 35 -25 14 -14 23 -25 20 -25 -3 0 6 -15 19 -32 60 -83 57 -160 -9 -191
-64 -31 -139 -14 -212 48 -18 15 -34 26 -35 24 -2 -2 -9 -17 -17 -33 -18 -35
-90 -69 -128 -60 -15 4 -37 16 -50 27 -24 22 -28 17 -12 -14 6 -10 18 -19 27
-19 9 0 25 -8 35 -17 18 -16 22 -16 65 7 26 14 58 37 72 52 l26 27 20 -21 c18
-19 18 -20 2 -15 -11 4 -25 1 -33 -7 -7 -8 -19 -16 -26 -18 -10 -4 -10 -8 1
-21 11 -15 11 -17 -2 -17 -8 0 -17 4 -19 10 -1 5 -13 7 -26 4 -17 -5 -20 -10
-12 -20 9 -9 6 -15 -11 -24 -15 -8 -19 -9 -15 -1 7 12 -33 32 -46 24 -16 -9
-7 -25 11 -20 14 3 18 1 14 -9 -3 -8 -9 -14 -15 -14 -5 0 -7 -4 -4 -9 4 -5 -3
-7 -15 -4 -12 3 -18 11 -15 19 7 19 -12 18 -30 -1 -18 -17 -34 -20 -34 -5 0 6
-6 10 -14 10 -9 0 -13 12 -12 40 1 38 2 41 26 36 25 -5 25 -5 3 6 -13 6 -23
17 -23 25 0 7 -6 13 -13 13 -8 0 -11 -14 -9 -44 8 -96 -51 -166 -146 -174 -44
-4 -59 -1 -84 18 -29 21 -46 22 -33 1 3 -6 11 -9 16 -6 5 4 9 -1 9 -9 0 -9 5
-16 10 -16 6 0 10 -8 10 -17 0 -13 3 -14 12 -5 18 18 85 15 108 -5 31 -27 54
-107 41 -143 -9 -26 -7 -34 14 -56 48 -51 41 -131 -16 -179 -56 -46 -106 -45
-160 3 -24 22 -31 36 -32 70 l-2 42 -41 0 c-70 0 -104 11 -142 47 -25 24 -38
30 -43 21 -5 -7 0 -17 12 -26 25 -18 24 -31 -3 -24 -15 3 -19 2 -14 -7 4 -7 2
-10 -5 -9 -9 2 -13 -11 -12 -42 1 -37 0 -39 -4 -10 -6 47 -17 56 -44 36 -66
-46 -163 7 -145 78 6 24 11 26 57 26 85 0 168 47 215 122 26 40 29 86 10 129
-5 12 1 20 22 30 16 8 45 29 66 47 29 26 39 43 45 80 12 79 3 117 -40 166 -51
58 -116 81 -206 73 l-63 -6 0 40 c0 48 -28 92 -71 115 -26 13 -29 19 -24 47
10 50 -31 131 -88 176 -16 12 -15 8 5 -30 32 -61 33 -187 1 -241 -21 -36 -16
-58 12 -58 6 0 22 -11 35 -25 19 -20 22 -31 17 -66 -3 -23 -13 -46 -21 -51
-25 -14 -19 -31 23 -76 48 -51 57 -86 35 -140 -22 -56 -67 -83 -141 -84 -32
-1 -71 2 -88 5 -26 6 -32 3 -50 -24 -11 -18 -29 -37 -40 -43 -30 -16 -33 -25
-22 -56 13 -34 -3 -96 -32 -125 -41 -41 -53 -47 -108 -52 -70 -8 -118 15 -138
65 -9 19 -19 31 -25 27 -17 -11 -56 3 -89 31 l-31 26 -29 -22 c-27 -19 -29
-24 -19 -48 48 -123 -78 -241 -225 -210 -44 9 -50 8 -63 -11 -47 -67 -181 -83
-226 -27 -15 18 -20 19 -37 9 -12 -7 -26 -13 -33 -13 -17 0 -57 -48 -64 -76
-8 -33 13 -91 43 -114 14 -11 43 -23 64 -26 l37 -6 -5 -52 c-6 -56 16 -114 53
-147 26 -22 160 -89 179 -89 23 0 18 -26 -8 -37 -36 -17 -88 -64 -98 -90 -5
-14 -17 -23 -30 -23 -29 0 -155 65 -209 108 -25 20 -47 37 -49 39 -2 2 -1 6 3
10 4 4 10 3 14 -2 12 -17 83 -67 88 -62 8 8 -95 79 -105 73 -5 -4 -25 13 -44
36 -45 56 -92 138 -79 138 6 0 13 -9 17 -20 3 -10 27 -47 51 -81 34 -45 49
-58 57 -50 6 6 26 11 44 11 26 0 33 4 33 19 0 14 -20 30 -70 57 -70 36 -160
121 -160 150 0 7 -18 55 -40 106 -40 92 -41 95 -47 248 -4 104 -2 152 5 145
17 -18 97 -119 115 -148 14 -21 25 -27 45 -25 37 4 40 37 8 76 -36 42 -33 58
7 34 60 -37 152 -79 185 -86 37 -6 53 13 32 39 -19 22 -11 25 45 14 48 -10
135 -6 169 7 19 7 21 33 4 39 -7 3 -65 13 -128 24 -111 19 -170 35 -170 46 0
3 15 18 32 35 30 26 31 30 18 44 -10 10 -42 17 -95 20 -128 8 -149 17 -179 81
-14 29 -26 59 -26 64 0 6 -4 11 -10 11 -5 0 -10 10 -10 22 0 12 -3 18 -7 14
-4 -4 -13 23 -21 61 -35 186 -35 181 31 328 45 100 54 167 24 173 -10 2 -30
-9 -46 -27 -16 -17 -31 -31 -34 -31 -2 0 -4 70 -3 155 0 108 -3 158 -12 167
-28 28 -35 -10 -39 -239 -5 -204 -8 -241 -33 -348 -51 -219 -104 -338 -190
-427 -48 -50 -61 -58 -92 -58 -55 0 -85 32 -112 119 -22 75 -38 96 -50 65 -5
-12 -2 -15 10 -10 14 5 15 4 4 -9 -7 -8 -17 -12 -23 -8 -7 4 -8 -6 -4 -31 4
-27 2 -39 -9 -43 -7 -3 -14 -9 -14 -14 0 -4 7 -6 16 -2 12 4 15 1 12 -13 -3
-15 -14 -20 -58 -22 -60 -4 -144 -33 -175 -60 -11 -9 -26 -39 -33 -67 -12 -50
-46 -90 -116 -140 -27 -19 -28 -21 -16 -64 30 -111 5 -253 -54 -308 -19 -18
-37 -33 -40 -33 -13 0 -5 27 14 48 11 12 20 29 21 39 0 16 1 16 9 -2 7 -17 9
-17 9 -2 1 9 5 17 11 17 5 0 6 8 3 17 -4 11 -8 13 -11 5 -3 -9 -10 -6 -22 9
l-19 21 -28 -28 c-15 -15 -30 -28 -33 -27 -11 1 -50 -21 -50 -29 0 -14 27 -9
40 7 11 13 15 13 21 3 7 -10 9 -10 9 0 0 20 41 55 51 45 6 -6 4 -15 -6 -23 -8
-7 -15 -19 -15 -27 0 -7 -7 -16 -15 -19 -8 -4 -12 -10 -9 -15 3 -5 -2 -9 -10
-9 -9 0 -16 -4 -16 -10 0 -5 -9 -10 -19 -10 -11 0 -23 -5 -26 -10 -4 -6 -16
-8 -28 -4 -20 6 -20 6 -4 -10 17 -18 57 -14 57 5 0 5 11 9 25 9 35 0 31 -16
-6 -29 -40 -14 -96 -14 -104 -1 -3 6 -15 10 -26 10 -10 0 -19 5 -19 11 0 8 -5
7 -15 -1 -9 -7 -13 -21 -10 -30 6 -18 -45 -70 -68 -70 -7 0 -29 -9 -50 -20
-20 -11 -50 -20 -67 -20 -33 0 -34 -5 -21 -63 5 -21 5 -50 1 -65 l-8 -27 -1
27 c-1 32 -21 49 -21 18 0 -18 -2 -19 -22 -8 -20 10 -21 13 -6 16 21 4 24 42
4 42 -8 0 -16 -6 -19 -13 -3 -9 -16 -12 -36 -9 -35 5 -81 -4 -81 -17 0 -4 21
-7 47 -5 46 4 48 3 50 -24 1 -27 -14 -45 -30 -35 -5 3 -5 8 1 12 7 4 8 12 1
21 -8 13 -11 13 -22 -1 -22 -28 -45 -29 -89 -4 -53 30 -114 32 -169 6 l-40
-20 -8 22 c-5 12 -12 36 -15 54 -7 31 -74 103 -96 103 -6 0 -10 -50 -10 -129
l0 -129 38 -6 c50 -9 101 -37 108 -59 4 -12 -2 -26 -15 -38 -24 -23 -31 -24
-31 -4 0 22 -13 18 -40 -10 -13 -14 -32 -25 -42 -25 -16 0 -18 -10 -18 -120 0
-69 4 -120 10 -120 5 0 13 -16 19 -35 10 -36 -1 -99 -19 -110 -6 -4 -10 -85
-10 -197 0 -162 2 -189 14 -179 8 6 20 26 27 44 7 18 13 33 15 35 1 2 20 -2
42 -9 37 -11 40 -15 45 -53 8 -79 -38 -139 -109 -140 l-34 -1 0 -137 c0 -116
2 -138 15 -138 8 0 15 -4 15 -9 0 -10 81 -114 92 -119 5 -2 11 -21 14 -43 7
-43 21 -59 30 -35 9 22 41 20 54 -4 8 -15 6 -21 -10 -30 -11 -6 -25 -8 -31 -5
-15 10 -39 -15 -39 -41 0 -14 -4 -32 -10 -42 -13 -23 -29 -195 -20 -206 14
-15 30 4 30 35 0 16 6 30 13 30 6 1 40 2 74 3 89 2 84 20 -7 26 l-75 5 3 30
c2 16 5 31 6 32 2 2 17 -4 35 -13 42 -21 66 -5 49 32 -7 14 -17 23 -24 20 -6
-2 -17 1 -23 7 -9 9 -14 8 -21 -3 -7 -11 -10 -7 -10 17 0 37 14 50 35 33 11
-9 15 -9 15 -1 0 20 27 12 33 -10 4 -15 11 -19 25 -15 11 4 24 0 32 -9 14 -16
134 -99 189 -130 40 -22 48 -50 33 -106 -8 -30 -12 -34 -41 -31 -38 3 -46 -12
-37 -72 6 -36 11 -45 29 -48 24 -3 24 0 16 -140 -2 -38 -7 -68 -11 -68 -5 0
-8 -7 -8 -16 0 -8 -5 -25 -12 -37 -7 -12 -11 -46 -9 -74 2 -30 -1 -53 -7 -53
-9 0 -38 -58 -35 -70 12 -49 14 -72 4 -66 -6 4 -16 -2 -23 -14 -7 -11 -22 -20
-34 -20 -17 0 -23 -8 -28 -37 -10 -66 -8 -75 15 -68 19 6 21 4 15 -16 -4 -13
-10 -34 -13 -46 -11 -45 -53 -15 -68 50 -4 15 -14 27 -21 27 -12 0 -12 4 1 24
15 22 15 25 0 33 -15 9 -15 11 -1 22 20 17 20 35 0 56 -15 15 -16 18 -1 32 15
15 15 19 -1 45 -21 35 -45 36 -67 1 -15 -22 -15 -30 -5 -46 11 -18 10 -19 -14
-13 -14 3 -42 -1 -65 -10 -34 -13 -43 -23 -53 -57 -7 -23 -20 -42 -30 -45 -14
-3 -18 -14 -18 -48 0 -40 2 -44 24 -44 21 0 25 5 28 38 3 35 5 37 37 35 20 -1
38 -8 43 -17 5 -9 25 -23 44 -31 26 -11 34 -20 34 -39 0 -23 -3 -24 -35 -19
-23 4 -35 2 -35 -6 0 -6 4 -11 9 -11 5 0 11 -6 14 -14 4 -9 0 -12 -12 -9 -9 2
-28 -4 -41 -15 -21 -17 -22 -22 -11 -36 12 -14 63 -16 487 -16 415 0 474 2
474 15 0 10 10 15 26 15 22 0 25 -2 14 -15 -11 -13 1 -15 99 -15 87 0 111 3
111 14 0 9 -21 15 -72 20 -40 4 -77 11 -82 16 -6 6 -29 10 -53 10 -33 0 -41 3
-37 14 3 8 13 17 22 19 10 3 -11 5 -45 6 -55 1 -62 3 -65 22 -2 12 -11 27 -20
33 -14 8 -23 5 -45 -16 -27 -26 -102 -62 -110 -54 -2 2 1 23 7 46 13 50 8 60
-20 35 l-21 -19 3 59 c3 69 18 79 74 49 l33 -18 21 27 c12 15 30 27 40 27 27
0 32 15 11 34 -10 10 -35 17 -57 17 -120 -1 -116 -4 -109 109 2 41 5 253 5
470 l1 395 59 60 c77 81 133 169 172 272 l32 84 70 37 c88 45 185 139 212 204
16 39 26 51 59 64 98 38 165 114 165 187 0 46 18 48 48 7 27 -36 28 -50 2 -50
-56 0 15 -89 86 -109 30 -8 48 -6 93 10 109 39 105 42 68 -42 -63 -142 -162
-291 -214 -322 -18 -10 -69 -25 -115 -33 -109 -19 -144 -51 -99 -91 43 -39 52
-44 71 -38 30 10 192 175 247 252 26 37 70 110 97 163 49 96 56 82 9 -20 -23
-49 -92 -160 -133 -215 -42 -56 -185 -187 -227 -208 -68 -34 -291 -102 -301
-92 -8 7 45 29 83 35 22 3 36 8 30 11 -17 11 -179 -32 -200 -52 -26 -26 -11
-51 39 -63 42 -11 222 12 296 38 50 17 60 14 42 -14 -17 -27 -15 -69 3 -76 43
-17 127 61 181 168 26 51 34 57 54 33 11 -13 15 -13 40 0 29 15 90 121 90 157
0 23 9 22 37 -1 20 -17 23 -29 23 -89 0 -81 -27 -179 -65 -234 -14 -20 -25
-39 -25 -42 0 -6 69 -20 92 -18 22 1 33 -15 20 -31 -12 -15 -47 -225 -39 -233
3 -4 43 -11 88 -17 73 -10 82 -9 91 6 5 9 15 17 22 17 7 0 23 12 36 27 20 23
23 36 21 91 -2 68 16 106 45 95 8 -3 14 -3 14 -1 0 3 -24 51 -54 109 -70 134
-99 206 -85 215 6 3 18 -4 27 -17 48 -70 143 -129 210 -129 29 0 39 -5 47 -22
15 -35 70 -44 175 -29 85 12 163 30 204 47 17 6 18 4 12 -17 -18 -57 -18 -79
-1 -85 43 -17 128 63 185 174 25 47 26 48 51 26 17 -15 20 -15 45 0 26 18 84
126 84 159 0 23 15 22 41 -4 19 -19 21 -30 17 -108 -6 -109 -37 -192 -89 -243
-37 -36 -38 -38 -45 -130 -3 -51 -7 -104 -8 -118 -3 -29 10 -50 30 -50 8 0 28
25 45 55 48 85 62 85 33 -1 -8 -25 -13 -48 -10 -51 8 -9 135 -32 174 -33 22 0
32 5 32 15 0 9 11 20 24 24 13 5 26 17 29 25 11 29 25 16 32 -30 6 -44 27 -66
45 -48 4 5 13 51 18 103 8 80 8 99 -5 118 -9 13 -13 26 -9 30 3 3 6 1 6 -5 0
-7 5 -12 10 -12 16 0 12 17 -16 57 -44 65 -134 259 -134 289 1 28 1 28 16 9
82 -111 211 -174 269 -132 34 26 12 58 -80 116 -99 61 -153 122 -185 208 -18
47 -23 87 -28 212 -5 158 2 185 29 103 6 -20 27 -63 46 -94 74 -124 202 -194
211 -115 4 33 21 35 51 3 30 -31 115 -68 149 -64 23 3 27 7 25 32 -2 25 1 27
20 22 12 -4 51 -13 86 -21 35 -8 68 -20 72 -27 33 -52 105 -383 149 -686 17
-116 30 -89 18 35 -11 102 -11 103 13 123 22 19 33 21 141 16 65 -3 120 -2
122 3 9 13 -124 430 -195 615 l-38 98 23 82 c13 45 31 131 41 191 9 61 18 122
21 137 4 18 32 48 92 96 83 67 159 141 212 209 24 30 31 33 140 48 140 19 302
58 372 89 107 48 210 140 325 293 l54 71 92 5 c51 3 101 6 111 8 15 3 22 -4
29 -28 23 -77 122 -124 215 -101 46 11 92 56 92 89 0 22 15 25 27 5 9 -14 45
-23 134 -32 48 -5 61 -3 96 19 67 42 86 89 68 163 -6 25 -4 32 12 37 35 11
208 85 303 130 139 65 224 104 320 147 47 21 126 57 175 80 50 23 117 55 150
70 279 129 503 232 750 345 160 73 328 151 375 173 219 104 278 132 283 132 4
0 50 21 104 46 54 25 112 52 128 59 106 48 414 190 485 223 47 22 105 49 130
60 152 68 227 103 242 112 36 20 55 8 143 -87 169 -187 329 -362 485 -528 30
-33 127 -139 215 -235 88 -96 162 -177 165 -180 3 -3 34 -37 69 -75 36 -39 97
-104 136 -145 38 -41 88 -95 109 -120 22 -25 87 -96 145 -158 57 -62 112 -121
120 -131 27 -31 202 -221 281 -306 41 -44 111 -120 155 -168 l79 -88 626 1
c344 1 1162 1 1818 1 l1192 -1 0 -45 0 -45 -147 0 c-82 0 -152 -4 -158 -8 -5
-4 -10 -51 -10 -105 -1 -79 2 -95 11 -82 7 9 16 34 19 56 8 44 21 50 35 15 27
-72 124 -74 197 -4 18 18 34 30 36 27 3 -2 17 -32 32 -67 16 -35 34 -62 42
-62 9 0 13 -6 9 -15 -3 -8 -1 -15 4 -15 6 0 10 -8 10 -17 0 -9 3 -14 6 -10 9
9 36 -21 30 -32 -3 -5 1 -14 9 -21 24 -20 18 -44 -26 -110 -22 -34 -38 -64
-35 -67 3 -4 -4 -11 -16 -17 -12 -6 -23 -18 -25 -26 -4 -13 -3 -13 6 0 6 8 11
10 11 4 0 -15 -44 -54 -61 -54 -8 0 -31 -16 -50 -37 -18 -20 -28 -33 -21 -29
27 16 10 -12 -26 -41 -49 -39 -82 -57 -82 -43 0 5 5 10 12 10 6 0 9 3 6 6 -4
3 -16 0 -28 -6 -18 -10 -20 -14 -9 -22 11 -8 10 -8 -4 -4 -24 8 -44 -4 -26
-15 9 -5 4 -8 -16 -6 l-30 2 -7 -90 c-4 -49 -5 -96 -3 -103 5 -15 91 39 198
126 l67 54 36 -17 c42 -20 105 -15 155 11 17 8 33 14 35 12 2 -3 -3 -23 -12
-46 -9 -22 -14 -48 -11 -56 15 -37 105 -8 213 69 72 52 137 126 179 208 17 31
33 57 37 57 3 0 9 -13 13 -29 3 -16 15 -37 26 -47 17 -15 23 -15 44 -4 28 15
55 67 62 119 5 35 7 36 47 38 37 1 43 -2 55 -27 7 -16 28 -39 47 -50 19 -12
34 -27 34 -34 0 -27 -61 -106 -126 -162 -111 -96 -184 -172 -184 -192 0 -54
72 -52 144 3 l45 34 15 -25 c22 -32 48 -30 91 7 l35 31 0 -60 c0 -56 -4 -66
-82 -196 -70 -118 -91 -144 -143 -183 -33 -25 -69 -50 -81 -55 -39 -18 -46
-44 -39 -141 l7 -89 82 6 c44 4 102 10 129 13 l47 6 -5 46 c-21 195 -23 191
113 191 l97 0 1 -86 c1 -84 1 -85 38 -123 22 -23 46 -38 59 -37 28 1 27 8 -6
78 -16 31 -32 81 -36 110 -9 55 -15 368 -7 368 2 0 22 -33 45 -74 46 -84 87
-136 106 -136 9 0 15 15 17 43 l3 42 46 -71 c67 -103 177 -184 249 -184 25 0
30 4 30 25 0 38 33 46 142 33 101 -12 121 -21 96 -40 -12 -9 -20 -42 -28 -112
-10 -91 -8 -118 5 -104 3 3 10 45 17 93 9 74 15 93 37 113 l25 23 -39 35 -40
35 55 -8 c123 -18 280 -1 280 31 0 15 -57 50 -105 63 -40 12 -211 43 -230 43
-5 -1 -1 -8 10 -16 19 -15 18 -16 -20 -9 -45 7 -245 102 -245 116 0 4 -7 6
-15 3 -9 -4 -15 0 -15 9 0 10 -7 13 -20 10 -15 -4 -19 -2 -14 10 4 12 0 14
-18 10 -15 -3 -19 -2 -10 4 9 7 -10 25 -65 63 -157 109 -227 202 -287 378 -18
53 -22 74 -13 77 48 14 56 12 68 -17 15 -37 56 -58 112 -58 53 0 127 45 166
102 14 20 32 37 39 38 24 0 82 -54 82 -78 0 -58 61 -131 122 -146 22 -5 35
-23 72 -99 49 -101 105 -172 169 -215 51 -34 129 -68 180 -77 l37 -7 0 162 c0
89 -5 170 -10 180 -7 13 -7 21 0 25 6 4 10 77 10 189 l0 182 -58 -4 c-56 -4
-60 -3 -85 28 -51 60 -46 118 14 158 27 19 43 23 82 19 l47 -4 0 59 0 60 -42
-36 c-26 -23 -53 -37 -72 -37 -63 -3 -102 3 -133 22 l-31 20 5 -22 c3 -11 12
-23 19 -26 18 -7 18 -29 0 -36 -19 -7 -26 1 -26 30 0 13 -4 23 -9 23 -13 0
-22 -28 -11 -35 6 -4 10 -30 10 -59 0 -66 -37 -126 -108 -174 -87 -59 -161
-61 -244 -7 l-36 24 -6 -22 c-3 -12 -21 -48 -40 -79 -19 -32 -32 -58 -28 -58
15 0 -76 -58 -100 -64 -38 -9 -84 33 -102 92 l-15 47 2 -40 c1 -22 8 -45 16
-51 10 -7 11 -13 3 -18 -17 -10 -42 35 -42 75 0 48 31 136 66 189 64 96 67
101 50 94 -19 -7 -82 30 -100 60 -21 33 -28 121 -14 167 15 52 71 111 123 132
46 18 49 39 13 87 -45 62 -53 193 -15 281 24 57 74 117 117 141 35 20 39 27
35 49 -5 22 -1 28 25 39 42 17 44 25 19 59 -19 26 -21 38 -16 99 l6 69 -73 74
c-63 65 -166 199 -152 199 3 0 24 -25 47 -56 68 -93 179 -204 203 -204 20 0
20 1 -4 20 -19 14 -22 23 -15 33 51 72 49 62 26 110 -26 53 -28 142 -6 175 12
16 13 27 6 40 -15 27 -78 81 -117 100 -30 14 -34 20 -34 54 0 39 0 39 34 33
19 -4 36 -2 40 3 6 10 -41 56 -66 64 -10 4 -10 8 1 22 10 11 11 20 5 24 -21
14 -109 87 -115 96 -4 5 2 28 13 53 16 37 18 49 8 79 -19 56 -55 73 -111 50
-11 -5 -22 2 -33 19 -17 26 -17 27 5 43 42 29 59 52 59 77 0 14 2 25 5 25 3 0
28 -22 55 -49 56 -56 125 -93 222 -118 53 -14 70 -15 80 -5 16 16 -10 43 -85
89 -32 19 -55 38 -52 41 3 4 39 5 80 3 74 -3 145 12 145 30 0 13 -34 25 -95
34 -73 10 -146 30 -200 55 -50 23 -140 100 -156 135 -10 20 -10 20 9 0 29 -31
86 -81 79 -70 -3 6 -27 34 -53 63 -35 39 -50 49 -57 40 -6 -9 -7 -8 -3 5 3 10
-8 38 -27 70 -70 110 -79 145 -88 342 -9 182 -16 232 -34 237 -12 4 -24 -59
-24 -132 -1 -64 -41 -211 -78 -288 -30 -62 -98 -132 -162 -168 l-46 -25 -42
21 c-44 22 -53 21 -90 -12 -19 -18 -23 -18 -45 -5 -12 8 -38 18 -55 22 -26 5
-33 12 -33 31 0 14 -6 40 -14 58 -17 41 -58 54 -111 35 -33 -12 -35 -16 -35
-55 0 -24 -3 -45 -8 -48 -10 -6 -8 73 2 97 16 34 -55 97 -109 97 -21 0 -10
-19 19 -30 18 -8 19 -9 2 -9 -14 -1 -16 -4 -8 -14 30 -35 -39 -97 -72 -65 -8
8 -16 25 -18 38 -4 31 -28 38 -35 11 -3 -11 -9 -18 -14 -15 -5 3 -9 -4 -9 -15
0 -12 -5 -21 -12 -21 -6 0 -8 -3 -5 -7 4 -3 16 2 27 12 11 10 23 15 27 11 4
-4 -2 -15 -15 -24 -18 -14 -20 -20 -10 -31 11 -11 8 -13 -15 -9 -32 6 -32 -12
0 -27 12 -5 31 -29 44 -53 17 -35 20 -55 16 -94 -6 -44 -4 -50 16 -57 30 -12
73 -59 87 -96 14 -36 5 -133 -16 -185 -33 -77 -88 -110 -188 -113 l-55 -1 -6
-46 c-8 -60 1 -144 20 -180 20 -39 19 -55 -7 -101 -19 -35 -20 -42 -8 -78 8
-24 10 -53 6 -73 -17 -77 -28 -368 -14 -368 4 0 8 -17 8 -38 0 -21 6 -46 13
-56 12 -16 13 -12 7 31 -10 80 16 118 110 159 l34 15 -26 22 c-35 29 -48 58
-41 88 11 42 33 67 74 83 42 17 138 21 167 8 9 -5 36 -18 58 -29 l42 -20 4 63
c4 71 24 107 76 137 27 16 35 17 59 5 30 -14 78 -97 65 -110 -8 -8 2 -105 10
-113 2 -2 21 3 43 11 34 11 43 11 62 -2 19 -12 23 -24 23 -62 0 -74 -29 -90
-94 -51 -20 12 -36 22 -36 24 0 2 5 16 10 32 l10 28 -24 -27 c-29 -33 -42 -22
-21 18 7 15 11 32 7 38 -3 6 -14 -13 -22 -42 -9 -30 -21 -57 -27 -60 -6 -4 2
-23 20 -47 29 -39 29 -39 23 -10 -4 16 -13 33 -19 37 -14 8 -3 21 21 25 15 2
17 -4 14 -33 -5 -40 34 -108 68 -119 24 -8 26 -28 5 -45 -13 -11 -14 -10 -10
2 4 10 -8 32 -32 57 l-38 41 0 -54 c0 -47 -4 -59 -30 -86 -36 -38 -85 -60
-132 -60 l-36 0 7 -40 c9 -56 -11 -61 -70 -16 -52 40 -66 43 -84 21 -16 -20
-5 -94 23 -151 26 -55 15 -72 -31 -44 -47 29 -74 77 -68 123 l4 37 -43 0 c-52
0 -77 8 -68 23 4 6 -2 8 -15 5 -28 -8 -63 18 -55 39 4 10 2 14 -5 9 -6 -3 -15
1 -20 10 -21 37 -26 -20 -27 -290 l0 -280 -28 -7 c-47 -13 -57 -3 -57 56 0 29
-2 59 -5 67 -4 11 -117 13 -629 10 l-625 -2 -19 -25 c-11 -14 -25 -25 -31 -25
-6 0 -11 -4 -11 -10 0 -29 -106 -2 -148 38 -23 21 -47 13 -86 -28 -21 -22 -44
-40 -51 -40 -7 0 -15 -9 -18 -20 -5 -19 -14 -20 -219 -20 -797 -2 -1543 2
-1552 7 -5 4 -26 6 -45 4 -19 -1 -37 2 -40 7 -6 9 -183 201 -241 262 -53 54
-92 111 -87 125 4 10 1 12 -11 8 -14 -6 -15 -4 -5 9 13 15 8 29 -45 123 -6 11
-25 50 -42 86 -17 36 -40 75 -50 87 -11 12 -20 24 -19 27 2 15 -15 72 -26 85
-7 8 -15 28 -19 43 -4 15 -11 25 -16 22 -6 -4 -10 18 -10 55 0 39 4 62 13 65
6 3 13 24 13 48 2 33 0 37 -7 20 -7 -19 -16 -23 -49 -23 -22 0 -40 5 -40 10 0
6 -46 10 -119 10 l-119 0 -4 -35 c-2 -19 -1 -35 3 -35 4 0 11 -9 14 -21 4 -13
12 -18 21 -15 10 4 19 -4 28 -24 7 -17 15 -27 19 -24 3 4 16 -10 28 -30 11
-20 27 -36 35 -36 8 0 14 -6 14 -12 0 -10 3 -9 9 1 5 7 13 12 19 10 6 -2 0
-12 -13 -21 -23 -18 -24 -17 -102 64 -135 141 -126 130 -105 124 14 -5 18 -1
19 16 0 13 4 32 7 43 7 18 6 18 -12 -3 -11 -12 -23 -28 -25 -35 -6 -15 -156
138 -367 376 -25 28 -92 97 -149 153 -56 57 -100 107 -97 112 4 7 922 11 2628
11 1442 1 2623 3 2625 5 2 2 4 47 6 102 l2 98 -1672 -2 c-1090 -2 -1673 0
-1673 7 0 5 8 23 17 40 17 29 17 31 -3 58 -28 37 -64 40 -120 9 -47 -26 -64
-26 -64 0 0 16 -57 54 -81 54 -12 0 -18 13 -23 43 -4 23 -14 52 -22 65 -14 21
-13 28 2 68 16 42 16 47 1 80 -15 31 -44 51 -99 68 -12 3 -16 17 -16 53 -1 62
-13 92 -52 132 -53 52 -151 91 -230 91 l-35 -1 40 -19 c22 -11 36 -19 31 -20
-5 0 -2 -8 7 -18 9 -10 27 -42 41 -72 37 -80 38 -196 3 -297 -9 -28 -7 -36 14
-65 57 -75 112 -238 89 -261 -4 -5 -39 -9 -76 -10 l-69 -2 2 28 c2 31 -12 37
-20 8 -4 -18 -18 -20 -188 -25 -310 -10 -440 -11 -939 -8 l-345 2 -43 47 c-24
27 -92 99 -151 161 l-108 113 -134 -62 c-231 -106 -261 -119 -384 -176 -66
-31 -167 -78 -224 -104 -57 -27 -105 -49 -106 -49 -2 0 -47 -21 -101 -46 -205
-95 -335 -154 -344 -154 -17 0 -21 42 -18 222 l2 183 -36 3 c-42 4 -57 -15
-83 -103 -10 -33 -24 -74 -31 -92 -8 -17 -14 -36 -14 -41 0 -6 -11 -23 -24
-39 -13 -15 -26 -37 -30 -48 -5 -18 -88 -108 -157 -172 -14 -13 -57 -34 -96
-47 -40 -14 -94 -36 -122 -49 -27 -14 -51 -23 -54 -21 -5 5 -110 -19 -149 -35
-26 -10 -28 -14 -28 -73 0 -35 -4 -68 -8 -75 -6 -10 -165 -85 -462 -221 -25
-11 -118 -54 -208 -96 -90 -42 -169 -76 -175 -76 -11 0 -93 122 -128 190 -7
14 -43 102 -81 195 -38 94 -71 176 -74 183 -4 6 -2 12 2 12 5 0 23 -26 39 -58
34 -65 62 -77 57 -24 -2 37 7 41 34 10 52 -59 194 -128 233 -113 13 5 11 11
-15 34 -17 16 -38 31 -45 33 -11 4 -12 8 -2 20 10 12 7 20 -20 45 -17 16 -54
46 -82 66 -140 100 -197 197 -203 345 -3 64 -1 92 7 92 6 0 11 -4 11 -9 0 -13
50 -71 61 -71 5 0 9 16 9 35 0 19 3 35 8 34 4 0 27 -28 52 -62 73 -99 212
-178 319 -181 56 -2 45 23 -34 76 -38 25 -71 51 -73 56 -1 5 27 7 70 4 124 -7
209 31 112 51 -189 39 -234 52 -284 83 -42 26 -136 121 -128 129 3 3 16 -7 30
-22 13 -15 35 -37 48 -48 13 -11 -9 18 -48 65 -61 72 -116 164 -147 245 -4 11
-13 111 -20 223 -12 191 -21 242 -40 211z m9241 -430 c3 -6 2 -15 -4 -21 -6
-6 -11 -2 -15 11 -5 22 7 29 19 10z m-9276 -90 c-7 -33 -17 -62 -22 -66 -6 -3
-8 3 -5 13 3 11 11 46 18 78 7 33 15 54 17 47 2 -7 -1 -40 -8 -72z m9310 73
c0 -13 -12 -22 -22 -16 -10 6 -1 24 13 24 5 0 9 -4 9 -8z m-15 -81 c3 -5 1
-12 -5 -16 -5 -3 -10 1 -10 9 0 18 6 21 15 7z m715 -68 c-11 -17 -11 -17 -6 0
3 10 7 28 7 40 2 22 2 22 6 0 2 -12 -1 -30 -7 -40z m-852 21 c-11 -11 -18 -12
-22 -5 -4 6 0 11 8 11 9 0 16 5 16 12 0 6 3 8 7 4 4 -3 0 -14 -9 -22z m19 -36
c-3 -8 -6 -5 -6 6 -1 11 2 17 5 13 3 -3 4 -12 1 -19z m219 7 c-11 -8 -25 -15
-30 -15 -6 0 -2 7 8 15 11 8 25 15 30 15 6 0 2 -7 -8 -15z m152 -7 c35 -17 52
-53 52 -111 0 -96 -41 -147 -120 -147 -138 1 -168 215 -38 270 26 11 68 6 106
-12z m432 -96 c-63 -187 -323 -602 -357 -569 -3 4 13 30 36 58 50 58 49 75 -1
27 -57 -55 -111 -98 -120 -98 -5 0 -6 9 -3 21 4 12 7 45 6 75 0 41 -7 63 -28
96 -15 24 -35 48 -43 55 -20 16 -6 26 55 42 27 7 58 20 69 29 34 30 76 105 76
135 0 28 2 29 38 25 46 -6 70 -18 100 -53 27 -30 23 -54 -16 -100 -37 -45 -73
-66 -112 -64 -52 2 -57 0 -64 -16 -10 -26 16 -66 57 -86 38 -18 41 -18 53 -1
37 50 168 279 205 357 23 50 46 98 50 107 5 10 9 26 10 35 0 12 2 14 6 5 3 -8
-5 -44 -17 -80z m-21 71 c-2 -23 -56 -138 -64 -137 -17 1 -63 68 -70 101 l-6
32 58 4 c32 2 64 4 71 5 6 1 12 -1 11 -5z m-10013 -75 c-22 -65 -51 -127 -103
-219 -61 -111 -185 -299 -212 -324 l-22 -19 11 29 c6 16 16 36 23 43 8 11 7
16 -6 23 -9 6 -17 19 -17 30 0 18 5 20 36 17 l37 -3 75 120 c73 118 163 287
177 333 4 13 9 21 12 19 2 -3 -2 -25 -11 -49z m10274 -129 c0 -5 -4 -9 -10 -9
-5 0 -10 7 -10 16 0 8 5 12 10 9 6 -3 10 -10 10 -16z m-11112 -208 c8 -23 12
-45 9 -47 -3 -3 -18 1 -34 10 -15 8 -23 15 -16 16 8 0 10 12 6 36 -8 52 16 41
35 -15z m903 -127 c1 -149 -41 -377 -96 -519 -9 -22 -18 -48 -22 -57 -3 -10
-14 -18 -25 -18 -15 0 -18 4 -12 18 25 57 7 142 -31 142 -27 0 -27 21 1 48 38
38 67 107 59 140 -7 30 -42 72 -59 72 -6 0 -17 4 -25 9 -12 8 -9 15 13 41 33
40 53 85 61 145 8 50 11 52 35 30 24 -22 47 -9 71 37 11 22 22 38 25 35 3 -2
5 -58 5 -123z m9433 85 c63 -29 36 -181 -35 -196 -34 -7 -46 -20 -30 -36 41
-41 -34 -177 -99 -177 -67 0 -110 110 -63 162 16 18 16 20 1 29 -53 30 -61 67
-25 113 21 26 30 29 70 28 43 -2 47 0 47 21 0 55 71 84 134 56z m-10414 -30
c0 -5 -4 -9 -10 -9 -5 0 -10 7 -10 16 0 8 5 12 10 9 6 -3 10 -10 10 -16z m30
-85 c0 -8 -4 -12 -10 -9 -5 3 -10 13 -10 21 0 8 5 12 10 9 6 -3 10 -13 10 -21z
m10917 -117 c18 -12 34 -26 36 -32 2 -5 -3 -41 -12 -80 l-16 -69 -54 -3 c-64
-4 -142 -41 -172 -83 -22 -29 -43 -33 -33 -6 8 21 -62 86 -91 86 -17 0 -25 6
-25 18 0 9 -7 30 -16 47 -14 27 -14 30 3 42 61 41 83 61 92 81 15 31 31 28 31
-7 0 -22 6 -30 25 -35 29 -7 56 5 104 46 38 33 72 32 128 -5z m-10283 1 c3
-13 6 -26 6 -30 0 -7 -67 -48 -81 -48 -21 0 -7 42 24 70 39 36 43 36 51 8z
m-2184 -57 c16 -16 32 -39 35 -53 9 -37 -11 -78 -45 -91 -17 -6 -30 -18 -30
-26 0 -24 -42 -61 -70 -61 -58 0 -65 44 -16 95 33 34 35 38 29 87 -5 42 -3 53
12 64 29 21 54 17 85 -15z m1008 -6 c16 -34 15 -40 -2 -26 -16 13 -28 51 -17
51 4 0 13 -11 19 -25z m-3121 -147 c-3 -8 -6 -5 -6 6 -1 11 2 17 5 13 3 -3 4
-12 1 -19z m-13 -33 c-4 -8 -8 -15 -10 -15 -2 0 -4 7 -4 15 0 8 4 15 10 15 5
0 7 -7 4 -15z m2874 5 c12 0 13 -3 5 -11 -8 -8 -17 -7 -35 6 -16 12 -18 16 -5
11 10 -3 26 -6 35 -6z m-2913 -94 c-32 -62 -62 -103 -69 -96 -2 3 11 30 30 60
20 30 40 66 45 79 5 13 12 21 16 17 3 -3 -6 -30 -22 -60z m3066 44 c31 -23 49
-71 49 -135 0 -29 7 -46 25 -63 22 -21 26 -22 31 -8 4 9 2 40 -4 69 -5 29 -7
54 -3 57 5 3 14 16 20 29 18 33 29 15 32 -54 1 -33 6 -65 11 -72 10 -13 -16
-73 -32 -73 -6 0 -10 -6 -10 -13 0 -7 -9 -18 -19 -24 -17 -11 -24 -8 -50 23
l-31 35 -37 -38 c-20 -21 -37 -42 -37 -48 -2 -21 -44 -16 -60 7 -15 20 -15 23
-1 26 19 4 19 4 -1 50 -31 74 -12 185 39 228 35 29 41 30 78 4z m-479 -17 c10
-9 18 -23 18 -31 0 -12 -6 -10 -25 8 -38 35 -31 58 7 23z m235 2 c9 -25 -4
-29 -17 -6 -7 15 -7 21 0 21 6 0 13 -7 17 -15z m-93 -30 c-23 -17 -34 -19 -34
-5 0 6 6 10 14 10 8 0 17 8 21 18 5 12 9 13 12 4 3 -7 -3 -20 -13 -27z m-64
10 c0 -16 -27 -32 -37 -21 -7 7 16 36 28 36 5 0 9 -7 9 -15z m-80 -46 c0 -6
-7 -9 -15 -5 -20 7 -46 -4 -39 -16 4 -6 10 -5 15 3 7 11 9 10 9 -4 0 -10 -11
-22 -26 -27 -34 -13 -34 -13 -34 13 0 16 9 28 25 35 15 7 25 20 25 32 l0 20
20 -20 c11 -11 20 -25 20 -31z m12398 -15 c-4 -3 -12 5 -18 18 -12 22 -12 22
6 6 10 -10 15 -20 12 -24z m-5678 5 c0 -24 -23 -21 -28 4 -2 10 3 17 12 17 10
0 16 -9 16 -21z m-66 -5 c4 -10 1 -14 -6 -12 -15 5 -23 28 -10 28 5 0 13 -7
16 -16z m-7179 -4 c14 -23 -66 -120 -99 -120 -42 0 -29 82 17 110 34 21 72 26
82 10z m-1975 -255 c-16 -130 -34 -203 -67 -270 -26 -54 -46 -68 -56 -41 -12
31 -80 71 -131 76 l-51 5 3 40 c4 46 -26 95 -57 95 -28 0 -31 10 -15 41 9 19
22 29 37 29 12 0 54 18 94 39 56 31 73 36 77 25 17 -43 74 18 133 142 l38 79
3 -80 c2 -44 -2 -125 -8 -180z m2580 220 c16 -19 8 -74 -15 -109 -37 -56 -119
-14 -95 48 26 69 79 98 110 61z m6680 -7 c0 -34 -11 -68 -21 -68 -5 0 -9 7 -9
15 0 8 5 15 10 15 6 0 10 7 10 15 0 8 -4 15 -10 15 -5 0 -10 7 -10 15 0 8 7
15 15 15 9 0 15 -9 15 -22z m-8964 -43 c23 -20 33 -34 24 -34 -16 0 -45 22
-69 52 -23 29 4 19 45 -18z m-768 -35 c13 -13 22 -33 22 -51 0 -36 -25 -99
-39 -99 -6 0 -11 -7 -11 -16 0 -8 -4 -12 -10 -9 -5 3 -10 2 -10 -3 0 -18 -57
-31 -96 -22 -92 21 -97 102 -11 182 45 42 120 50 155 18z m4610 -16 c58 -67
-20 -186 -101 -153 -65 27 -88 119 -41 166 22 22 32 25 72 20 34 -4 53 -12 70
-33z m10293 -70 c-28 -42 -51 -80 -51 -85 0 -4 -3 -9 -7 -11 -5 -1 -20 -21
-34 -43 -51 -78 -215 -240 -181 -179 6 10 25 30 42 44 37 29 136 148 169 203
13 21 28 43 34 50 16 17 32 44 54 86 9 19 19 29 21 23 2 -6 -19 -46 -47 -88z
m-9717 -5 c11 17 26 13 26 -7 0 -17 -36 -42 -60 -42 -12 0 -23 57 -14 71 5 8
12 4 24 -11 11 -15 19 -19 24 -11z m4584 3 c2 -14 11 -22 23 -22 14 0 19 -7
18 -27 -1 -26 -1 -27 -7 -5 -4 13 -11 23 -17 24 -20 1 -35 10 -30 18 3 5 1 11
-5 15 -14 9 -12 27 3 23 6 -3 13 -14 15 -26z m-6785 1 c-7 -2 -19 -2 -25 0 -7
3 -2 5 12 5 14 0 19 -2 13 -5z m6891 -48 c3 -8 1 -15 -4 -15 -6 0 -10 7 -10
15 0 8 2 15 4 15 2 0 6 -7 10 -15z m5326 0 c0 -8 -2 -15 -4 -15 -2 0 -6 7 -10
15 -3 8 -1 15 4 15 6 0 10 -7 10 -15z m-10165 -55 c-3 -6 -10 -10 -16 -10 -10
0 -12 33 -2 44 9 9 26 -22 18 -34z m4811 15 c-3 -8 -1 -15 4 -15 6 0 10 -5 10
-11 0 -8 -5 -8 -15 1 -17 15 -20 40 -4 40 6 0 9 -7 5 -15z m-7186 -35 c0 -5
-4 -10 -10 -10 -5 0 -10 5 -10 10 0 6 5 10 10 10 6 0 10 -4 10 -10z m12553
-16 c18 -24 16 -64 -3 -64 -12 0 -16 9 -24 53 -8 43 1 47 27 11z m-10923 -13
c17 -33 11 -58 -25 -106 -33 -43 -35 -47 -20 -68 41 -59 0 -132 -88 -157 -111
-30 -260 78 -227 164 13 36 46 49 135 56 l79 5 3 39 c3 56 35 86 89 86 33 0
46 -5 54 -19z m5610 15 c0 -11 -19 -15 -25 -6 -3 5 1 10 9 10 9 0 16 -2 16 -4z
m-6580 -26 c-13 -8 -13 -10 1 -10 9 0 19 -7 23 -15 3 -8 1 -15 -4 -15 -6 0
-10 5 -10 12 0 6 -2 9 -5 6 -11 -10 7 -37 21 -31 8 3 14 0 14 -6 0 -14 -30
-14 -65 -1 -22 8 -24 13 -15 30 6 12 7 20 1 20 -5 0 -11 -5 -13 -11 -2 -7 -10
-10 -17 -8 -24 8 18 39 52 39 24 0 28 -3 17 -10z m6695 0 c3 -5 -1 -10 -10
-10 -9 0 -13 5 -10 10 3 6 8 10 10 10 2 0 7 -4 10 -10z m-65 -35 c25 -27 21
-47 -5 -25 -21 17 -38 50 -27 50 5 0 19 -11 32 -25z m-7470 5 c0 -5 -2 -10 -4
-10 -3 0 -8 5 -11 10 -3 6 -1 10 4 10 6 0 11 -4 11 -10z m-2659 -22 c22 -27
24 -57 5 -64 -8 -3 -11 -15 -8 -30 2 -14 0 -24 -7 -24 -6 0 -11 9 -11 20 0 19
-1 19 -18 3 -21 -20 -18 -43 5 -43 8 0 11 -4 8 -10 -19 -30 -55 17 -55 73 0
38 28 97 47 97 8 0 23 -10 34 -22z m2647 -38 c-13 -21 -28 -27 -28 -10 0 5 8
14 18 19 23 14 24 14 10 -9z m-318 -19 c0 -50 89 -111 163 -111 24 0 51 -6 61
-13 17 -12 17 -18 6 -51 -16 -51 -5 -99 32 -142 30 -33 35 -36 76 -31 25 3 53
14 66 26 29 28 39 27 78 -9 18 -17 47 -36 65 -42 29 -11 32 -16 38 -68 5 -41
2 -67 -9 -94 -16 -37 -16 -38 -58 -31 -66 10 -244 72 -312 108 -89 47 -163
125 -213 228 -23 47 -47 106 -54 131 -12 43 -11 47 16 81 30 41 45 47 45 18z
m7882 -16 c17 -22 7 -23 -17 -1 -14 13 -25 27 -25 31 0 8 30 -13 42 -30z
m4998 25 c0 -5 -7 -7 -15 -4 -8 4 -15 8 -15 10 0 2 7 4 15 4 8 0 15 -4 15 -10z
m-636 -39 c15 -15 45 -33 67 -40 22 -7 37 -16 34 -20 -8 -14 -80 9 -106 33
-13 12 -32 25 -42 29 -19 7 -14 27 7 27 7 0 25 -13 40 -29z m-13148 -6 c13
-19 15 -37 10 -79 -7 -49 -5 -56 13 -66 27 -14 28 -63 1 -90 -11 -11 -20 -24
-20 -29 0 -10 -84 -41 -111 -41 -9 0 -27 9 -40 19 l-24 19 19 54 c10 29 21 58
23 65 3 7 -11 20 -30 29 -48 23 -75 85 -44 97 8 3 33 -3 56 -14 45 -20 66 -17
57 7 -7 19 28 54 54 54 11 0 27 -11 36 -25z m13320 -2 c-7 -7 -26 7 -26 19 0
6 6 6 15 -2 9 -7 13 -15 11 -17z m461 -15 c-3 -7 -5 -2 -5 12 0 14 2 19 5 13
2 -7 2 -19 0 -25z m-14822 16 c19 -8 45 -55 45 -82 0 -11 -6 -25 -14 -31 -11
-9 -25 0 -70 42 -31 30 -56 57 -56 60 0 13 68 21 95 11z m-361 -26 c-7 -23
-25 -41 -33 -32 -7 6 21 54 31 54 5 0 6 -10 2 -22z m10236 -8 c0 -5 -2 -10 -4
-10 -3 0 -8 5 -11 10 -3 6 -1 10 4 10 6 0 11 -4 11 -10z m-9967 -40 c15 -17
24 -36 21 -45 -4 -10 0 -15 10 -15 18 0 22 -50 6 -80 -12 -22 -67 -37 -83 -21
-8 8 -7 11 5 11 42 0 15 100 -31 115 -25 8 -27 22 -4 47 23 26 46 22 76 -12z
m1903 -65 c30 -82 30 -105 0 -105 -36 0 -76 38 -102 97 -13 29 -24 58 -24 64
0 6 21 9 52 7 l52 -3 22 -60z m12220 8 c-11 -11 -19 6 -11 24 8 17 8 17 12 0
3 -10 2 -21 -1 -24z m-10306 -23 c11 -11 20 -26 20 -32 0 -21 -112 -163 -159
-202 -56 -47 -117 -83 -181 -106 -85 -31 -306 -51 -338 -31 -11 7 -11 17 2 56
9 26 22 82 28 123 11 68 16 80 54 118 l41 43 13 -57 c22 -103 54 -142 113
-142 53 0 91 38 106 108 6 29 11 62 11 72 0 25 2 25 42 0 18 -11 50 -20 72
-20 46 0 109 33 127 66 15 29 23 30 49 4z m10342 -55 c10 -4 15 -11 12 -17 -8
-13 -54 36 -53 55 0 7 5 2 11 -10 6 -13 19 -25 30 -28z m-14451 -17 c29 -32
48 -93 34 -106 -4 -4 -10 -1 -12 6 -3 7 -10 18 -17 25 -7 7 -15 19 -18 27 -3
8 -8 -16 -12 -55 -4 -38 -9 -80 -12 -92 -2 -13 0 -23 6 -23 5 0 10 8 10 18 0
13 2 14 9 4 5 -8 24 -12 47 -11 35 2 40 6 42 28 3 34 11 39 28 17 21 -29 17
-52 -12 -75 -20 -16 -31 -18 -45 -10 -26 13 -24 2 7 -42 62 -90 19 -149 -139
-188 -40 -10 -73 -23 -73 -29 -1 -7 -2 -16 -3 -22 -2 -18 -60 -40 -106 -40
-42 0 -46 -2 -40 -20 11 -33 -14 -89 -46 -105 -37 -20 -69 -11 -99 25 -23 28
-23 28 -49 10 -48 -35 -77 -35 -111 -1 -26 25 -29 35 -23 58 11 42 6 93 -11
112 -9 10 -16 23 -16 30 0 14 59 41 90 41 24 0 24 -2 1 45 -14 29 -16 46 -10
74 5 20 9 39 9 42 0 3 11 18 25 33 43 46 150 32 224 -30 29 -24 31 -24 31 -6
0 26 23 44 46 36 25 -9 65 -45 59 -54 -2 -4 2 -7 10 -7 8 0 15 4 15 9 0 4 -4
8 -10 8 -5 0 -10 7 -10 15 0 13 4 14 21 5 11 -7 18 -17 16 -25 -4 -10 1 -11
21 -4 15 5 40 11 57 14 26 6 27 8 12 16 -10 6 -28 10 -40 9 -37 -3 -46 -1 -67
20 -37 37 -15 137 46 209 44 51 74 53 115 9z m3229 7 c21 -39 72 -65 136 -70
31 -2 58 -6 60 -8 2 -1 -6 -39 -17 -82 -26 -107 -82 -198 -169 -277 -67 -61
-188 -133 -201 -120 -4 4 -5 102 -2 219 l6 212 55 33 c41 24 62 45 77 75 23
49 36 53 55 18z m11350 11 c0 -2 -7 -9 -15 -16 -12 -10 -15 -10 -15 4 0 9 7
16 15 16 8 0 15 -2 15 -4z m-60 -16 c0 -5 -2 -10 -4 -10 -3 0 -8 5 -11 10 -3
6 -1 10 4 10 6 0 11 -4 11 -10z m270 -22 c13 -15 20 -35 20 -64 0 -35 -5 -47
-31 -68 -22 -19 -38 -25 -53 -20 -30 10 -36 22 -36 82 0 82 53 120 100 70z
m-14144 -60 c-9 -62 -12 -68 -37 -68 -31 0 -32 22 -3 73 34 63 48 61 40 -5z
m1294 42 c8 -5 11 -10 5 -10 -5 0 -17 5 -25 10 -8 5 -10 10 -5 10 6 0 17 -5
25 -10z m-367 -47 l27 -37 -23 -13 c-12 -7 -32 -12 -44 -13 -13 0 -23 -4 -23
-10 0 -11 -72 -14 -83 -4 -7 7 93 111 109 113 6 0 23 -16 37 -36z m333 -5
c-13 -86 -62 -164 -167 -267 -54 -54 -99 -105 -99 -114 0 -13 9 -17 38 -17 21
0 43 5 50 12 6 6 14 9 18 6 3 -4 -31 -50 -76 -103 -94 -111 -110 -143 -84
-162 59 -43 192 35 290 172 12 17 24 28 26 25 3 -3 2 -52 -2 -110 -17 -231
-110 -378 -241 -381 -105 -2 -122 -32 -51 -86 34 -26 53 -33 88 -33 46 0 110
26 133 54 14 17 41 22 41 8 0 -10 -15 -42 -73 -159 -54 -107 -143 -232 -184
-256 -18 -10 -70 -25 -115 -33 -98 -17 -128 -38 -110 -78 6 -13 20 -27 31 -31
12 -3 21 -13 21 -21 0 -21 6 -18 70 31 114 88 226 230 311 392 54 105 49 70
-6 -43 -84 -174 -248 -358 -369 -415 -33 -16 -67 -29 -74 -29 -7 0 -20 -4 -30
-9 -32 -16 -88 -31 -137 -36 -50 -5 -50 -5 -20 9 17 9 42 15 57 16 15 0 30 5
33 10 7 11 -1 10 -106 -16 -75 -19 -83 -18 -94 9 -6 12 -32 36 -60 54 -138 89
-177 131 -216 232 -18 45 -23 84 -27 204 -3 105 -1 147 7 147 6 0 11 -6 11
-12 0 -29 75 -157 117 -200 74 -75 145 -92 151 -35 4 33 0 33 74 -16 44 -30
67 -39 105 -40 47 -2 48 -1 46 27 -2 25 1 27 20 21 133 -43 307 -39 307 6 0 4
-26 13 -57 19 -68 13 -151 33 -246 59 -66 18 -144 61 -160 88 -4 7 -15 13 -22
13 -8 0 -15 5 -15 10 0 6 -6 10 -12 10 -23 1 -168 150 -168 173 0 6 8 0 17
-13 24 -34 123 -137 123 -128 0 4 -21 31 -47 60 -49 55 -154 210 -178 262 -22
50 -65 195 -65 222 0 26 7 28 61 15 66 -15 70 3 13 53 -70 62 -90 109 -96 224
-2 50 0 92 4 92 5 0 19 -25 33 -56 14 -31 41 -79 62 -106 47 -65 145 -138 184
-138 33 0 33 0 17 35 -16 35 -6 39 33 16 53 -31 119 -44 153 -31 26 9 28 14
23 45 -6 39 -2 42 33 18 33 -23 109 -23 144 1 35 22 21 36 -36 36 -34 0 -57
14 -45 26 3 3 35 12 73 19 79 17 155 54 202 99 30 28 34 29 43 14 6 -10 19
-18 31 -18 24 0 125 100 153 153 28 52 49 50 41 -5z m81 36 c-3 -3 -12 -4 -19
-1 -8 3 -5 6 6 6 11 1 17 -2 13 -5z m48 -14 c13 -6 15 -9 5 -9 -8 0 -22 4 -30
9 -18 12 -2 12 25 0z m95 -30 c18 -12 2 -12 -25 0 -13 6 -15 9 -5 9 8 0 22 -4
30 -9z m12911 -39 c-11 -20 -58 -47 -67 -38 -10 9 54 69 66 62 6 -4 7 -13 1
-24z m-12734 -96 c30 -25 60 -45 66 -45 6 0 0 8 -13 17 -14 9 -27 19 -30 23
-3 3 -24 20 -47 38 -25 20 -40 38 -37 47 8 20 46 1 114 -55 30 -26 68 -54 83
-64 15 -9 25 -21 21 -27 -3 -6 8 -15 25 -22 39 -15 40 -27 1 -27 -16 0 -30 5
-30 10 0 6 -8 10 -17 10 -24 1 -55 25 -45 35 4 5 2 5 -4 2 -6 -4 -27 1 -45 10
-42 21 -149 124 -149 143 0 9 12 1 26 -18 14 -18 50 -52 81 -77z m-2051 33
c70 -62 96 -168 52 -215 -12 -13 -29 -23 -37 -23 -32 0 -78 39 -99 84 -28 59
-31 160 -4 175 29 17 50 12 88 -21z m14554 28 c0 -3 -4 -8 -10 -11 -5 -3 -10
-1 -10 4 0 6 5 11 10 11 6 0 10 -2 10 -4z m-12757 -75 c38 -106 181 -251 249
-251 31 0 35 10 16 40 -18 29 -5 33 33 11 56 -32 117 -44 151 -30 27 11 30 16
25 47 -5 29 -4 33 11 26 70 -30 104 -36 129 -25 21 10 29 9 44 -5 10 -9 23
-13 30 -8 8 4 10 3 5 -4 -5 -8 0 -12 13 -12 12 0 21 -4 21 -9 0 -5 25 -24 56
-42 l57 -32 -7 -101 c-16 -251 -76 -507 -118 -506 -7 1 -30 23 -52 51 -42 55
-60 57 -103 15 l-22 -21 46 -93 c52 -106 49 -120 -16 -97 -24 8 -52 15 -62 15
-20 0 -121 52 -163 85 -14 11 -26 26 -26 33 0 7 -4 10 -10 7 -5 -3 -10 -1 -10
4 0 6 -6 11 -14 11 -7 0 -19 7 -26 15 -10 12 -10 15 0 15 6 0 -11 27 -40 60
-51 59 -113 148 -146 212 -24 46 -102 278 -95 283 4 2 31 -3 61 -11 78 -20 87
-4 27 47 -73 63 -97 119 -97 229 0 49 3 90 8 90 4 0 15 -22 25 -49z m13437
-10 c0 -11 -4 -10 -15 5 -8 10 -14 26 -14 34 0 11 3 10 14 -4 8 -11 15 -27 15
-35z m-288 -160 c-33 -95 -96 -216 -161 -307 -42 -58 -57 -99 -20 -55 11 13
22 22 24 19 9 -8 -112 -134 -178 -187 -56 -44 -324 -231 -331 -231 -2 0 -30
-16 -62 -35 -60 -36 -113 -49 -84 -21 8 8 38 26 65 41 l50 26 -48 -4 c-32 -3
-50 -1 -53 7 -3 7 16 46 40 87 57 94 118 247 147 364 25 104 32 114 59 97 11
-6 31 -12 45 -12 27 0 30 -4 39 -61 8 -49 26 -69 66 -78 29 -6 35 -12 47 -53
7 -26 18 -50 23 -53 38 -24 -31 -60 -182 -95 -125 -29 -159 -43 -182 -73 -16
-22 -17 -29 -6 -42 7 -8 22 -15 34 -15 12 0 27 -5 33 -11 9 -9 32 1 93 40 121
78 190 127 240 170 25 21 59 50 75 64 17 14 27 28 23 32 -4 4 -21 -7 -38 -24
-17 -17 -37 -31 -45 -31 -22 0 -39 30 -41 73 -2 40 -3 41 -38 43 -61 2 -98 62
-77 126 13 41 53 66 115 74 51 7 53 9 31 30 -27 27 -28 25 85 128 l43 39 17
-23 c13 -17 23 -21 39 -15 31 10 86 60 113 103 l23 37 3 -43 c2 -28 -7 -73
-26 -131z m-16082 74 c0 -8 -2 -15 -4 -15 -2 0 -6 7 -10 15 -3 8 -1 15 4 15 6
0 10 -7 10 -15z m3505 -27 c14 -6 25 -15 25 -20 0 -4 7 -8 15 -8 8 0 15 -4 15
-9 0 -6 -13 -5 -32 1 -18 5 -40 10 -49 10 -12 0 -15 5 -12 19 6 22 5 22 38 7z
m-3382 -26 c-3 -12 -9 -22 -14 -22 -12 0 -11 7 3 30 15 24 19 21 11 -8z m-50
-12 c-14 -13 -83 -22 -83 -11 0 8 25 14 78 17 7 0 9 -3 5 -6z m-284 -135 c-1
-12 -5 -7 -10 13 -5 17 -14 32 -19 32 -6 0 -10 10 -10 23 1 19 4 17 20 -13 11
-19 19 -44 19 -55z m201 36 c0 -5 -7 -12 -16 -15 -14 -5 -15 -4 -4 9 14 17 20
19 20 6z m15436 -98 c-11 -78 -56 -206 -77 -219 -20 -12 -149 135 -149 170 0
3 20 6 45 6 51 0 93 18 143 61 18 16 35 29 38 29 4 0 3 -21 0 -47z m-15636 16
c0 -11 -4 -18 -10 -14 -5 3 -7 12 -3 20 7 21 13 19 13 -6z m16170 -128 c-5
-11 -15 -23 -22 -27 -7 -5 -8 -2 -3 7 21 37 44 55 25 20z m1195 -11 c3 -5 1
-10 -4 -10 -6 0 -11 5 -11 10 0 6 2 10 4 10 3 0 8 -4 11 -10z m-15663 -55 c9
-9 -4 -55 -15 -55 -13 0 -57 40 -57 52 0 9 63 11 72 3z m1542 -128 c3 -12 13
-31 23 -42 29 -32 65 -85 57 -85 -11 0 -104 129 -104 145 0 15 19 2 24 -18z
m-249 -99 c-4 -24 -12 -47 -18 -53 -7 -7 -8 -5 -4 7 3 9 9 33 13 52 9 51 17
45 9 -6z m13880 32 c3 -5 1 -10 -4 -10 -6 0 -11 5 -11 10 0 6 2 10 4 10 3 0 8
-4 11 -10z m45 -60 c12 -7 12 -12 2 -22 -9 -9 -12 -8 -12 6 0 9 -4 14 -10 11
-5 -3 -10 -1 -10 4 0 13 10 14 30 1z m-13565 -30 c10 -11 16 -20 13 -20 -3 0
-13 9 -23 20 -10 11 -16 20 -13 20 3 0 13 -9 23 -20z m-2375 -52 c26 -24 58
-50 71 -59 l24 -17 -41 -48 c-42 -51 -109 -103 -132 -104 -10 0 -11 25 -6 118
6 108 15 152 31 152 3 0 27 -19 53 -42z m733 22 c-3 -11 -7 -20 -9 -20 -2 0
-4 9 -4 20 0 11 4 20 9 20 5 0 7 -9 4 -20z m-1363 -67 c0 -16 3 -60 7 -100 3
-40 3 -80 -1 -89 -6 -15 -8 -15 -28 2 -22 20 -98 132 -98 145 0 4 18 18 40 30
22 13 40 26 40 31 0 4 9 8 20 8 15 0 20 -7 20 -27z m16250 23 c0 -3 -4 -8 -10
-11 -5 -3 -10 -1 -10 4 0 6 5 11 10 11 6 0 10 -2 10 -4z m-16406 -151 c24 -49
69 -124 99 -166 85 -118 81 -103 74 -289 -8 -192 -11 -210 -41 -210 -53 0
-249 127 -265 171 -5 14 -25 36 -46 49 -20 12 -34 25 -31 28 3 2 12 0 19 -6
16 -14 27 -6 27 20 0 10 7 18 15 18 18 0 20 17 3 23 -7 2 -35 2 -63 0 l-50 -5
-32 53 c-51 86 -51 84 6 119 28 18 56 41 62 52 8 14 14 17 24 8 9 -8 14 -7 19
5 8 22 24 19 31 -6 6 -16 9 -18 15 -8 5 7 4 21 -2 32 -7 14 -16 17 -35 12 -24
-6 -25 -4 -19 22 4 15 14 35 22 43 13 13 15 12 20 -7 4 -13 10 -20 15 -17 14
8 11 19 -12 45 -19 22 -19 24 -3 36 14 10 15 16 6 25 -20 20 -13 46 20 72 l33
25 23 -27 c12 -15 42 -67 66 -117z m571 3 c-9 -58 -50 -179 -82 -245 -31 -62
-92 -138 -103 -126 -4 4 -13 76 -20 158 -19 222 -23 198 36 207 29 4 74 16
100 27 74 29 77 28 69 -21z m16491 3 c30 -36 82 -61 126 -61 l33 0 34 -104
c19 -57 31 -108 27 -114 -16 -26 -141 34 -207 100 -47 47 -99 136 -99 170 0
16 28 35 53 37 5 1 19 -12 33 -28z m-13439 -83 c-3 -8 -6 -5 -6 6 -1 11 2 17
5 13 3 -3 4 -12 1 -19z m13003 -248 c0 -5 -2 -10 -4 -10 -3 0 -8 5 -11 10 -3
6 -1 10 4 10 6 0 11 -4 11 -10z m-16810 -70 c0 -5 -7 -10 -15 -10 -8 0 -15 5
-15 10 0 6 7 10 15 10 8 0 15 -4 15 -10z m17415 -159 c3 -5 1 -12 -4 -15 -5
-3 -11 1 -15 9 -6 16 9 21 19 6z m-13463 -50 c2 -17 1 -28 -4 -25 -8 5 -12 54
-4 54 2 0 6 -13 8 -29z m12152 -23 c-10 -12 -24 -28 -31 -35 -6 -7 -21 -25
-32 -39 -12 -15 -23 -25 -26 -23 -4 5 93 119 102 119 4 0 -2 -10 -13 -22z
m-16069 -908 c0 -8 -10 -16 -22 -18 -22 -3 -32 16 -16 32 12 11 38 2 38 -14z
m192 -12 c-3 -8 -6 -5 -6 6 -1 11 2 17 5 13 3 -3 4 -12 1 -19z m-197 -78 c0
-21 -24 -28 -35 -10 -8 14 3 30 21 30 8 0 14 -9 14 -20z m-60 -14 c5 -13 18
-27 30 -31 26 -8 20 -15 -25 -31 -32 -11 -37 -10 -50 9 -18 26 -19 64 -2 70
25 11 38 6 47 -17z m220 -46 c0 -11 -4 -20 -9 -20 -5 0 -7 9 -4 20 3 11 7 20
9 20 2 0 4 -9 4 -20z m282 -20 c12 -25 14 -47 10 -75 -4 -22 -10 -38 -13 -35
-3 3 -13 -1 -22 -9 -23 -19 -44 0 -57 51 -25 92 43 149 82 68z m-98 -143 c17
-12 16 -14 -8 -25 -27 -12 -42 -2 -32 23 7 18 17 19 40 2z"/>
<path d="M6175 4510 c-3 -5 -1 -10 4 -10 6 0 11 5 11 10 0 6 -2 10 -4 10 -3 0
-8 -4 -11 -10z"/>
<path d="M16350 4230 c0 -5 5 -10 11 -10 5 0 7 5 4 10 -3 6 -8 10 -11 10 -2 0
-4 -4 -4 -10z"/>
<path d="M1385 3731 c-3 -5 -1 -12 5 -16 5 -3 10 1 10 9 0 18 -6 21 -15 7z"/>
<path d="M1393 3693 c-15 -5 -17 -23 -4 -23 5 0 11 7 15 15 3 8 4 15 3 14 -1
0 -8 -3 -14 -6z"/>
<path d="M2618 3163 c7 -3 16 -2 19 1 4 3 -2 6 -13 5 -11 0 -14 -3 -6 -6z"/>
<path d="M1260 2970 c0 -12 8 -12 35 0 18 8 17 9 -7 9 -16 1 -28 -3 -28 -9z"/>
<path d="M2768 3063 c7 -3 16 -2 19 1 4 3 -2 6 -13 5 -11 0 -14 -3 -6 -6z"/>
<path d="M2695 1530 c-3 -5 1 -10 9 -10 9 0 16 5 16 10 0 6 -4 10 -9 10 -6 0
-13 -4 -16 -10z"/>
<path d="M2598 1493 c7 -3 16 -2 19 1 4 3 -2 6 -13 5 -11 0 -14 -3 -6 -6z"/>
<path d="M15810 2070 c-8 -5 -12 -11 -10 -14 3 -2 14 2 24 10 22 15 10 19 -14
4z"/>
<path d="M147 1733 c-11 -10 -8 -63 3 -63 6 0 10 9 10 19 0 29 11 31 54 10 46
-22 46 -22 46 -9 0 6 -21 20 -46 30 -50 22 -57 23 -67 13z"/>
<path d="M152 1648 c-17 -17 -15 -32 6 -51 14 -13 20 -13 35 -3 9 7 17 18 17
25 0 16 20 14 26 -4 4 -8 10 -15 15 -15 16 0 10 19 -13 40 -24 22 -68 26 -86
8z m43 -18 c3 -6 -1 -13 -10 -16 -19 -8 -30 0 -20 15 8 14 22 14 30 1z"/>
<path d="M15400 5586 c0 -2 7 -7 16 -10 8 -3 12 -2 9 4 -6 10 -25 14 -25 6z"/>
<path d="M4265 5525 c-29 -13 -29 -13 -5 -14 14 0 39 6 55 14 29 13 29 13 5
14 -14 0 -38 -6 -55 -14z"/>
<path d="M15475 5520 c10 -11 20 -20 22 -20 2 0 -1 9 -7 20 -6 11 -16 20 -22
20 -6 0 -3 -9 7 -20z"/>
<path d="M4469 5499 c65 -65 18 -162 -55 -114 -13 8 -30 15 -37 15 -8 0 -22 9
-31 19 -10 11 -24 17 -32 14 -14 -5 -20 -24 -6 -22 31 5 44 -2 39 -22 -3 -12
-1 -30 6 -40 9 -14 9 -21 0 -30 -9 -9 -8 -19 8 -40 17 -24 18 -33 8 -79 -9
-43 -17 -55 -50 -75 -21 -14 -54 -25 -73 -25 l-34 0 2 -52 c1 -45 -2 -54 -22
-64 -37 -19 -67 -51 -81 -89 -11 -32 -10 -38 10 -67 32 -45 37 -123 10 -166
-12 -18 -32 -37 -46 -42 -30 -11 -31 -15 -5 -47 11 -14 22 -40 26 -59 6 -32 8
-34 49 -34 24 0 55 -4 69 -10 30 -11 30 -10 12 33 -33 79 5 139 107 171 14 5
16 13 11 45 -8 49 18 97 61 112 28 10 31 16 31 53 0 52 29 93 103 144 107 74
172 86 259 45 18 -9 35 -13 38 -10 4 3 8 30 10 58 3 29 14 69 25 88 l20 34
-25 25 c-19 19 -38 26 -80 30 l-55 4 0 56 c0 42 -4 60 -20 76 -27 26 -68 13
-96 -31 -11 -18 -22 -32 -25 -33 -3 0 -11 14 -17 30 -6 17 -18 30 -26 30 -9 0
-25 15 -36 34 -19 30 -60 66 -76 66 -4 0 7 -14 24 -31z m69 -93 c5 -24 -17
-73 -35 -81 -24 -9 -26 1 -5 21 27 26 38 64 21 76 -11 8 -11 9 1 5 8 -2 17
-12 18 -21z m-136 -48 c-6 -6 -16 -7 -22 -3 -9 6 -9 9 1 16 17 10 34 0 21 -13z
m25 -24 c-3 -3 -12 -4 -19 -1 -8 3 -5 6 6 6 11 1 17 -2 13 -5z m123 -64 c12
-8 9 -10 -13 -10 -16 0 -26 4 -22 10 8 12 16 12 35 0z m47 -6 c-3 -3 -12 -4
-19 -1 -8 3 -5 6 6 6 11 1 17 -2 13 -5z m43 -24 c0 -5 -4 -10 -10 -10 -5 0
-10 5 -10 10 0 6 5 10 10 10 6 0 10 -4 10 -10z m-282 -270 c29 -13 42 -25 42
-39 0 -28 -80 -53 -162 -49 -57 3 -63 5 -66 26 -4 26 21 59 53 73 34 14 88 9
133 -11z"/>
<path d="M4280 5481 c0 -5 5 -13 10 -16 6 -3 10 -2 10 4 0 5 -4 13 -10 16 -5
3 -10 2 -10 -4z"/>
<path d="M15517 5433 c5 -16 8 -58 8 -96 0 -65 7 -83 19 -51 10 26 7 92 -6
134 -14 45 -33 56 -21 13z"/>
<path d="M4260 5402 c0 -6 -7 -12 -15 -12 -8 0 -15 -4 -15 -10 0 -5 7 -10 15
-10 27 0 30 -1 50 -19 40 -36 43 -35 36 21 -1 3 -9 4 -20 1 -12 -3 -24 3 -35
18 -9 13 -16 18 -16 11z"/>
<path d="M15594 5276 c-10 -8 -16 -17 -13 -20 9 -9 59 11 59 24 0 14 -23 12
-46 -4z"/>
<path d="M5441 5247 c2 -1 13 -9 24 -17 19 -14 19 -14 6 3 -7 9 -18 17 -24 17
-6 0 -8 -1 -6 -3z"/>
<path d="M15545 5240 c-4 -6 5 -10 20 -10 15 0 24 4 20 10 -3 6 -12 10 -20 10
-8 0 -17 -4 -20 -10z"/>
<path d="M15500 5220 c0 -5 5 -10 10 -10 6 0 10 5 10 10 0 6 -4 10 -10 10 -5
0 -10 -4 -10 -10z"/>
<path d="M5516 5160 c7 -28 12 -35 18 -29 2 2 -2 15 -10 29 l-15 25 7 -25z"/>
<path d="M15537 5163 c-11 -10 -8 -20 7 -26 8 -3 16 2 19 14 5 18 -12 27 -26
12z"/>
<path d="M15480 5146 c0 -9 7 -16 16 -16 17 0 14 22 -4 28 -7 2 -12 -3 -12
-12z"/>
<path d="M3550 5055 c0 -8 5 -15 10 -15 6 0 10 7 10 15 0 8 -4 15 -10 15 -5 0
-10 -7 -10 -15z"/>
<path d="M5526 5024 c-4 -9 -4 -19 -1 -22 2 -3 7 3 11 12 4 9 4 19 1 22 -2 3
-7 -3 -11 -12z"/>
<path d="M3540 5000 c0 -5 9 -10 20 -10 11 0 20 -7 20 -15 0 -8 5 -15 10 -15
15 0 12 19 -4 36 -17 16 -46 19 -46 4z"/>
<path d="M3610 4975 c0 -8 7 -15 15 -15 8 0 15 4 15 9 0 5 -7 11 -15 15 -9 3
-15 0 -15 -9z"/>
<path d="M5565 4980 c-3 -5 3 -10 14 -10 12 0 21 5 21 10 0 6 -6 10 -14 10 -8
0 -18 -4 -21 -10z"/>
<path d="M11680 4964 c0 -14 3 -14 15 -4 8 7 15 14 15 16 0 2 -7 4 -15 4 -8 0
-15 -7 -15 -16z"/>
<path d="M5525 4960 c3 -5 10 -10 16 -10 5 0 9 5 9 10 0 6 -7 10 -16 10 -8 0
-12 -4 -9 -10z"/>
<path d="M11755 4960 c3 -5 8 -10 11 -10 2 0 4 5 4 10 0 6 -5 10 -11 10 -5 0
-7 -4 -4 -10z"/>
<path d="M5410 4940 c-9 -6 -10 -10 -3 -10 6 0 15 5 18 10 8 12 4 12 -15 0z"/>
<path d="M5675 4930 c3 -5 8 -10 11 -10 2 0 4 5 4 10 0 6 -5 10 -11 10 -5 0
-7 -4 -4 -10z"/>
<path d="M5620 4913 c0 -6 5 -15 10 -18 17 -11 11 -81 -9 -106 -17 -22 -17
-27 -5 -44 11 -15 17 -16 26 -7 9 9 8 12 -4 12 -14 0 -15 4 -5 29 13 34 27 31
27 -5 0 -26 20 -29 28 -4 3 7 0 10 -6 7 -12 -8 -24 28 -23 68 1 17 -8 41 -19
55 -11 14 -20 20 -20 13z"/>
<path d="M5700 4845 c-17 -18 -21 -28 -13 -36 16 -16 30 -4 35 31 3 16 4 30 3
30 -1 0 -12 -11 -25 -25z"/>
<path d="M3160 4847 c0 -10 -7 -29 -16 -42 -13 -20 -14 -25 -3 -25 20 0 41 49
29 69 -8 14 -9 14 -10 -2z"/>
<path d="M3210 4840 c0 -5 5 -10 11 -10 5 0 7 5 4 10 -3 6 -8 10 -11 10 -2 0
-4 -4 -4 -10z"/>
<path d="M3235 4801 c-5 -17 -3 -26 9 -33 10 -5 16 -22 16 -42 0 -47 23 -64
39 -30 10 22 9 30 -6 48 -10 11 -21 23 -25 26 -4 3 -11 17 -16 30 l-9 25 -8
-24z"/>
<path d="M5208 4783 c7 -3 16 -2 19 1 4 3 -2 6 -13 5 -11 0 -14 -3 -6 -6z"/>
<path d="M3216 4746 c3 -8 12 -17 21 -20 11 -5 13 -2 9 10 -3 8 -6 18 -6 20 0
2 -7 4 -15 4 -8 0 -12 -6 -9 -14z"/>
<path d="M5564 4746 c-14 -11 -16 -17 -7 -26 8 -9 14 -7 23 10 15 28 9 34 -16
16z"/>
<path d="M5156 4638 l-19 -33 23 21 c12 12 21 27 19 33 -3 7 -13 -3 -23 -21z"/>
<path d="M5210 4610 c0 -5 4 -10 9 -10 6 0 13 5 16 10 3 6 -1 10 -9 10 -9 0
-16 -4 -16 -10z"/>
<path d="M5160 4595 c-7 -8 -8 -15 -2 -15 5 0 15 7 22 15 7 8 8 15 2 15 -5 0
-15 -7 -22 -15z"/>
<path d="M4987 4581 c-4 -17 -3 -21 5 -13 5 5 8 16 6 23 -3 8 -7 3 -11 -10z"/>
<path d="M5123 4532 c-5 -21 -6 -47 -2 -57 6 -15 8 -10 8 18 1 21 6 47 11 58
6 10 7 19 2 19 -5 0 -14 -17 -19 -38z"/>
<path d="M10530 4534 c0 -17 22 -14 28 4 2 7 -3 12 -12 12 -9 0 -16 -7 -16
-16z"/>
<path d="M10792 4539 c28 -16 2884 -17 2900 -1 10 10 -303 12 -1452 12 -990
-1 -1459 -4 -1448 -11z"/>
<path d="M4944 4522 c-9 -13 -8 -21 4 -31 13 -12 14 -12 10 0 -3 8 -1 22 4 32
11 22 -4 22 -18 -1z"/>
<path d="M10578 4533 c6 -2 18 -2 25 0 6 3 1 5 -13 5 -14 0 -19 -2 -12 -5z"/>
<path d="M10680 4530 c0 -5 5 -10 10 -10 6 0 10 5 10 10 0 6 -4 10 -10 10 -5
0 -10 -4 -10 -10z"/>
<path d="M10720 4525 c0 -8 4 -15 9 -15 5 0 14 7 21 15 10 13 9 15 -9 15 -12
0 -21 -6 -21 -15z"/>
<path d="M15010 4494 c-10 -25 -15 -32 -57 -68 -22 -18 -22 -18 -54 15 -29 32
-31 32 -24 9 4 -14 11 -29 16 -34 14 -15 11 -99 -6 -146 -8 -23 -15 -44 -15
-46 0 -2 21 -15 48 -28 63 -32 83 -57 89 -110 5 -39 3 -46 -21 -61 -21 -14
-24 -20 -15 -31 6 -8 19 -14 28 -14 26 0 90 -59 106 -97 29 -69 11 -129 -42
-139 -18 -3 -39 -4 -48 -1 -8 4 -17 2 -20 -3 -4 -6 66 -11 184 -11 105 -1 197
-2 204 -3 15 -1 21 92 12 181 -5 46 -10 60 -20 57 -7 -3 -18 3 -24 14 -12 23
-82 58 -137 68 -57 10 -58 12 -20 55 41 45 51 75 42 128 -4 29 -2 42 12 53 28
25 111 60 126 55 18 -7 29 19 17 40 -6 11 -10 12 -15 4 -9 -14 -54 -14 -95 0
-33 12 -54 42 -66 97 -8 36 -8 36 -70 20 -38 -10 -50 -10 -80 5 -45 22 -44 22
-55 -9z"/>
<path d="M10838 4503 c7 -3 16 -2 19 1 4 3 -2 6 -13 5 -11 0 -14 -3 -6 -6z"/>
<path d="M11920 4500 c0 -6 38 -9 98 -9 85 2 91 3 47 9 -73 12 -145 12 -145 0z"/>
<path d="M12338 4503 c12 -2 32 -2 45 0 12 2 2 4 -23 4 -25 0 -35 -2 -22 -4z"/>
<path d="M13278 4503 c6 -2 18 -2 25 0 6 3 1 5 -13 5 -14 0 -19 -2 -12 -5z"/>
<path d="M10596 4492 c-3 -6 -1 -14 5 -17 15 -10 25 3 12 16 -7 7 -13 7 -17 1z"/>
<path d="M10695 4487 c-4 -10 -5 -21 -1 -24 10 -10 18 4 13 24 -4 17 -4 17
-12 0z"/>
<path d="M11518 4493 c18 -2 45 -2 60 0 15 2 0 4 -33 4 -33 0 -45 -2 -27 -4z"/>
<path d="M10776 4482 c-3 -6 3 -12 15 -15 12 -3 19 -1 16 6 -5 15 -24 20 -31
9z"/>
<path d="M13325 4480 c-18 -8 -17 -9 8 -9 16 -1 26 3 22 9 -3 6 -7 10 -8 9 -1
0 -11 -4 -22 -9z"/>
<path d="M11488 4473 c6 -2 18 -2 25 0 6 3 1 5 -13 5 -14 0 -19 -2 -12 -5z"/>
<path d="M12047 4473 c-3 -5 24 -8 59 -9 35 -1 61 3 58 7 -6 11 -111 12 -117
2z"/>
<path d="M12358 4473 c23 -2 61 -2 85 0 23 2 4 4 -43 4 -47 0 -66 -2 -42 -4z"/>
<path d="M13040 4458 c0 -4 7 -8 15 -8 8 0 15 4 15 8 0 5 -7 9 -15 9 -8 0 -15
-4 -15 -9z"/>
<path d="M13108 4463 c6 -2 18 -2 25 0 6 3 1 5 -13 5 -14 0 -19 -2 -12 -5z"/>
<path d="M13193 4455 c-16 -17 -4 -26 26 -18 18 4 20 8 9 15 -8 6 3 8 32 4 32
-5 41 -3 30 4 -22 14 -83 11 -97 -5z"/>
<path d="M10590 4456 c0 -2 7 -7 16 -10 8 -3 12 -2 9 4 -6 10 -25 14 -25 6z"/>
<path d="M10738 4453 c7 -3 16 -2 19 1 4 3 -2 6 -13 5 -11 0 -14 -3 -6 -6z"/>
<path d="M11575 4450 c4 -6 29 -10 57 -10 64 0 60 5 -10 13 -32 4 -50 2 -47
-3z"/>
<path d="M13112 4433 c-18 -2 -30 -9 -27 -14 9 -13 28 -11 51 6 10 8 17 14 14
13 -3 -1 -20 -3 -38 -5z"/>
<path d="M10630 4415 c0 -8 5 -15 11 -15 6 0 28 -19 49 -42 31 -35 41 -41 51
-30 9 8 9 12 2 12 -7 0 -32 20 -57 45 -50 49 -56 52 -56 30z"/>
<path d="M10760 4420 c0 -5 7 -10 15 -10 8 0 15 5 15 10 0 6 -7 10 -15 10 -8
0 -15 -4 -15 -10z"/>
<path d="M5110 4412 c0 -7 -14 -12 -34 -12 -22 0 -36 -6 -40 -16 -9 -22 -8
-24 10 -24 8 0 12 5 9 10 -3 6 -1 10 4 10 6 0 11 -4 11 -10 0 -17 26 -11 45
10 14 16 16 23 7 32 -9 9 -12 9 -12 0z"/>
<path d="M11532 4404 c15 -15 18 -15 39 0 23 16 23 16 -16 16 -36 0 -38 -1
-23 -16z"/>
<path d="M11600 4410 c0 -5 7 -7 15 -4 8 4 15 8 15 10 0 2 -7 4 -15 4 -8 0
-15 -4 -15 -10z"/>
<path d="M11663 4414 c10 -10 167 -12 173 -2 3 4 -36 8 -87 8 -51 0 -90 -3
-86 -6z"/>
<path d="M12005 4410 c4 -6 122 -10 321 -10 203 0 314 4 314 10 0 6 -114 10
-321 10 -211 0 -318 -3 -314 -10z"/>
<path d="M12804 4413 c9 -10 146 -11 152 -1 3 4 -32 8 -77 8 -45 0 -79 -3 -75
-7z"/>
<path d="M10735 4380 c3 -5 10 -10 16 -10 5 0 9 5 9 10 0 6 -7 10 -16 10 -8 0
-12 -4 -9 -10z"/>
<path d="M4992 4371 c2 -7 7 -12 11 -12 12 1 9 15 -3 20 -7 2 -11 -2 -8 -8z"/>
<path d="M10766 4279 c12 -13 20 -16 22 -9 3 7 -2 16 -9 21 -25 16 -32 9 -13
-12z"/>
<path d="M11477 4273 c-4 -3 -7 -13 -7 -21 0 -12 3 -12 15 -2 8 7 15 16 15 21
0 11 -14 12 -23 2z"/>
<path d="M10867 4195 c10 -13 27 -24 38 -25 17 0 16 4 -10 25 -39 31 -51 32
-28 0z"/>
<path d="M4450 4201 c0 -6 5 -13 10 -16 6 -3 10 1 10 9 0 9 -4 16 -10 16 -5 0
-10 -4 -10 -9z"/>
<path d="M12184 4193 l-222 -3 2 -38 c2 -20 4 -59 5 -87 1 -36 4 -46 11 -35 5
8 10 31 11 50 0 19 3 29 6 23 6 -15 323 -19 323 -4 0 5 9 7 19 4 17 -4 19 -12
16 -55 -2 -27 -6 -52 -9 -55 -16 -16 -1 -23 53 -23 70 0 127 10 111 20 -7 4
-8 15 -2 31 6 13 11 58 13 99 l4 75 -60 0 c-33 1 -160 -1 -281 -2z"/>
<path d="M12604 4189 c-11 -19 0 -139 13 -139 9 0 14 16 14 48 1 28 4 36 6 20
5 -31 33 -28 33 3 0 10 4 19 9 19 6 0 8 -15 6 -32 -2 -18 -6 -57 -9 -85 l-5
-53 117 0 c122 0 166 6 156 21 -5 9 11 68 27 101 5 10 9 26 10 35 0 14 2 13 9
-4 6 -13 18 -23 30 -23 11 0 20 -7 20 -15 0 -18 17 -20 23 -2 3 9 7 9 20 -1 9
-8 22 -10 28 -6 7 4 17 0 24 -9 10 -14 13 -5 18 50 4 37 5 69 2 71 -8 9 -545
9 -551 1z"/>
<path d="M11360 4129 c0 -5 5 -7 10 -4 6 3 10 8 10 11 0 2 -4 4 -10 4 -5 0
-10 -5 -10 -11z"/>
<path d="M10895 4120 c3 -5 10 -10 16 -10 5 0 9 5 9 10 0 6 -7 10 -16 10 -8 0
-12 -4 -9 -10z"/>
<path d="M4460 4085 c0 -9 6 -12 15 -9 8 4 12 10 9 15 -8 14 -24 10 -24 -6z"/>
<path d="M11380 4090 c0 -6 4 -9 9 -6 5 4 12 1 14 -4 3 -6 4 -5 3 2 -3 15 -26
23 -26 8z"/>
<path d="M4128 4045 c2 -14 8 -25 12 -25 4 0 5 11 2 25 -2 14 -8 25 -12 25 -4
0 -5 -11 -2 -25z"/>
<path d="M15383 4025 c0 -22 2 -30 4 -17 2 12 2 30 0 40 -3 9 -5 -1 -4 -23z"/>
<path d="M1131 3957 c2 -1 15 -11 29 -22 l25 -20 -19 23 c-11 12 -24 22 -29
22 -6 0 -8 -1 -6 -3z"/>
<path d="M4120 3939 c0 -9 7 -22 15 -29 28 -23 18 -39 -22 -36 -21 2 -42 0
-48 -4 -5 -4 -22 -10 -36 -14 -15 -3 -29 -12 -32 -20 -5 -12 -1 -12 23 1 31
15 114 20 141 9 23 -10 35 62 14 84 -13 13 -15 12 -15 -2 0 -9 5 -18 12 -20 9
-3 9 -6 0 -12 -7 -4 -19 6 -32 26 -12 19 -20 26 -20 17z"/>
<path d="M4083 3923 c8 -12 -20 -26 -34 -17 -5 3 -9 0 -9 -5 0 -16 36 -13 49
3 9 11 9 16 0 22 -7 4 -9 3 -6 -3z"/>
<path d="M14273 3905 c7 -14 15 -25 19 -25 4 0 14 -12 21 -27 15 -29 7 -86
-13 -98 -31 -19 5 -25 158 -25 l167 1 -34 31 c-33 29 -37 30 -100 25 -36 -2
-74 -8 -83 -12 -13 -5 -20 -1 -24 11 -4 11 -19 31 -34 45 -15 14 -31 35 -34
47 -8 24 -33 52 -46 52 -4 0 -3 -11 3 -25z"/>
<path d="M16240 3896 c0 -2 7 -6 15 -10 8 -3 15 -1 15 4 0 6 -7 10 -15 10 -8
0 -15 -2 -15 -4z"/>
<path d="M1201 3854 c0 -11 3 -14 6 -6 3 7 2 16 -1 19 -3 4 -6 -2 -5 -13z"/>
<path d="M3921 3754 c0 -11 3 -14 6 -6 3 7 2 16 -1 19 -3 4 -6 -2 -5 -13z"/>
<path d="M3875 3750 c-3 -5 -1 -10 4 -10 6 0 11 5 11 10 0 6 -2 10 -4 10 -3 0
-8 -4 -11 -10z"/>
<path d="M3842 3726 c-2 -25 33 -56 63 -56 22 0 18 28 -5 35 -12 4 -29 15 -38
25 -17 19 -18 19 -20 -4z"/>
<path d="M8603 3733 c-6 -16 4 -305 13 -360 3 -24 10 -40 15 -37 12 7 11 51
-1 74 -14 26 4 36 75 43 33 3 68 8 78 12 15 6 17 -1 17 -74 0 -45 4 -81 8 -81
4 0 8 42 8 93 1 52 4 98 7 104 5 7 179 10 536 9 l530 -2 3 109 c2 62 -1 111
-7 115 -5 3 -294 6 -643 6 -487 1 -636 -2 -639 -11z m1244 -169 c-3 -3 -12 -4
-19 -1 -8 3 -5 6 6 6 11 1 17 -2 13 -5z"/>
<path d="M14663 3733 c15 -2 37 -2 50 0 12 2 0 4 -28 4 -27 0 -38 -2 -22 -4z"/>
<path d="M14928 3733 c6 -2 18 -2 25 0 6 3 1 5 -13 5 -14 0 -19 -2 -12 -5z"/>
<path d="M3759 3728 c-10 -32 -6 -57 11 -73 24 -22 27 -9 3 17 -13 14 -14 21
-5 30 15 15 15 28 2 28 -5 0 -10 -1 -11 -2z"/>
<path d="M3795 3710 c4 -6 11 -8 16 -5 14 9 11 15 -7 15 -8 0 -12 -5 -9 -10z"/>
<path d="M13915 3690 c-3 -5 -1 -10 4 -10 6 0 11 5 11 10 0 6 -2 10 -4 10 -3
0 -8 -4 -11 -10z"/>
<path d="M3810 3665 c0 -28 15 -34 24 -9 10 25 7 34 -9 34 -9 0 -15 -9 -15
-25z"/>
<path d="M14262 3658 c-21 -21 -15 -93 11 -125 40 -50 50 -79 45 -133 -4 -36
-13 -61 -35 -88 -23 -29 -31 -50 -35 -94 l-5 -58 32 -6 c18 -3 45 -4 61 -2
l29 3 -2 250 -3 250 -35 -1 c-19 -1 -35 3 -35 7 0 13 -14 11 -28 -3z"/>
<path d="M15004 3662 c-18 -3 -22 -12 -28 -64 -3 -34 -6 -99 -6 -146 l0 -84
28 6 c41 10 64 8 73 -6 4 -7 10 -10 13 -8 8 8 10 290 2 298 -8 7 -45 9 -82 4z"/>
<path d="M15164 3648 c-3 -12 -7 -88 -6 -168 l0 -145 34 -38 c31 -33 64 -104
54 -115 -3 -2 -25 -4 -50 -4 -62 0 -59 -18 4 -19 28 -1 55 -2 61 -3 7 -1 11
81 12 254 l2 255 -52 3 c-46 3 -52 1 -59 -20z"/>
<path d="M15345 3658 c-3 -7 -6 -122 -7 -255 -3 -257 -4 -253 43 -253 19 0 19
9 17 258 l-3 257 -23 3 c-12 2 -24 -3 -27 -10z"/>
<path d="M14438 3648 c-2 -7 -5 -84 -7 -170 -1 -116 1 -158 10 -158 6 0 26 16
45 35 18 19 35 35 38 35 10 0 4 -170 -6 -176 -5 -3 -25 -6 -44 -6 -24 0 -38
-6 -45 -20 -15 -28 4 -39 65 -36 l49 3 1 250 1 250 -51 3 c-36 2 -53 -1 -56
-10z"/>
<path d="M14877 3654 c-4 -4 -4 -18 -1 -31 9 -35 -14 -80 -52 -102 l-34 -21 2
-172 3 -173 58 -3 57 -3 2 241 c0 132 1 246 2 252 1 14 -26 23 -37 12z"/>
<path d="M11851 3624 c0 -11 3 -14 6 -6 3 7 2 16 -1 19 -3 4 -6 -2 -5 -13z"/>
<path d="M14708 3585 c-6 -30 -3 -43 8 -33 3 4 4 19 2 35 l-3 28 -7 -30z"/>
<path d="M2190 3593 c0 -4 12 -16 25 -26 14 -10 25 -14 25 -10 0 4 -12 16 -25
26 -14 10 -25 14 -25 10z"/>
<path d="M11871 3544 c0 -11 3 -14 6 -6 3 7 2 16 -1 19 -3 4 -6 -2 -5 -13z"/>
<path d="M14620 3524 c-16 -40 -12 -79 10 -107 24 -30 25 -52 4 -92 -21 -39
-35 -157 -20 -167 6 -4 35 -8 64 -8 l52 0 -2 186 -3 186 -40 14 c-53 18 -54
18 -65 -12z"/>
<path d="M15670 3480 c-53 -8 -51 -10 12 -14 32 -2 49 2 52 11 3 7 0 12 -7 11
-7 0 -32 -4 -57 -8z"/>
<path d="M1060 3468 c0 -9 -7 -24 -16 -32 -8 -9 -12 -21 -9 -27 4 -6 15 2 27
22 14 22 16 35 9 42 -8 8 -11 6 -11 -5z"/>
<path d="M6560 3359 c-33 -18 -63 -28 -76 -25 -17 5 -24 -3 -44 -52 -53 -132
-153 -243 -263 -293 -37 -17 -28 -35 17 -32 20 1 36 -1 36 -5 0 -4 -26 -33
-58 -65 l-58 -57 -511 0 -512 0 -25 -82 c-14 -46 -52 -175 -85 -288 -33 -113
-68 -233 -79 -267 -11 -33 -17 -65 -13 -70 9 -12 2204 -10 2214 2 8 10 6 637
-1 682 -4 22 -8 23 -161 25 l-156 3 -25 50 c-14 28 -50 105 -79 173 -30 68
-58 125 -63 128 -14 9 -9 44 7 44 17 0 35 30 35 59 0 31 16 26 58 -18 27 -27
51 -42 87 -50 55 -13 105 -3 105 21 0 7 -46 44 -102 81 -122 81 -158 86 -248
36z m-67 -431 c-3 -40 -11 -79 -18 -86 -7 -8 -30 -12 -61 -10 l-49 3 36 40
c20 22 48 59 63 83 14 23 28 42 31 42 2 0 1 -33 -2 -72z m-189 -65 c8 -21 -8
-38 -29 -29 -13 4 -14 10 -5 26 13 24 26 26 34 3z"/>
<path d="M11905 3350 c3 -5 8 -10 11 -10 2 0 4 5 4 10 0 6 -5 10 -11 10 -5 0
-7 -4 -4 -10z"/>
<path d="M15000 3305 c-3 -16 -10 -29 -17 -28 -7 2 -12 -19 -15 -57 -3 -58 -2
-60 25 -66 16 -3 44 -3 63 0 31 6 34 10 34 41 0 40 -9 67 -20 60 -4 -3 -6 -23
-3 -45 5 -35 3 -39 -11 -34 -9 3 -16 12 -16 19 0 7 -7 18 -15 25 -8 6 -15 34
-17 63 -3 40 -5 45 -8 22z"/>
<path d="M11922 3281 c1 -16 5 -28 9 -26 6 5 0 55 -7 55 -3 0 -3 -13 -2 -29z"/>
<path d="M805 3290 c3 -5 21 -10 38 -9 27 0 29 2 12 9 -28 12 -57 12 -50 0z"/>
<path d="M13983 3255 c0 -22 2 -30 4 -17 2 12 2 30 0 40 -3 9 -5 -1 -4 -23z"/>
<path d="M870 3270 c-9 -6 -10 -10 -3 -10 6 0 15 5 18 10 8 12 4 12 -15 0z"/>
<path d="M15045 3270 c-3 -5 -1 -10 4 -10 6 0 11 5 11 10 0 6 -2 10 -4 10 -3
0 -8 -4 -11 -10z"/>
<path d="M740 3260 c0 -5 7 -10 15 -10 8 0 15 5 15 10 0 6 -7 10 -15 10 -8 0
-15 -4 -15 -10z"/>
<path d="M14171 3263 c0 -7 -7 -12 -13 -10 -9 1 -13 -13 -13 -45 -1 -37 3 -48
17 -51 24 -7 26 -1 18 63 -4 30 -8 49 -9 43z"/>
<path d="M875 3240 c3 -5 13 -10 21 -10 8 0 14 5 14 10 0 6 -9 10 -21 10 -11
0 -17 -4 -14 -10z"/>
<path d="M11946 3160 c4 -19 6 -47 6 -62 -1 -16 3 -28 8 -28 12 0 6 67 -9 100
-10 23 -11 22 -5 -10z"/>
<path d="M13785 3170 c4 -6 11 -8 16 -5 14 9 11 15 -7 15 -8 0 -12 -5 -9 -10z"/>
<path d="M13970 3170 c0 -5 5 -10 10 -10 6 0 10 5 10 10 0 6 -4 10 -10 10 -5
0 -10 -4 -10 -10z"/>
<path d="M17547 3133 c-3 -5 9 -15 27 -21 45 -17 61 -37 85 -107 16 -48 18
-69 11 -100 -14 -60 -13 -65 20 -65 l30 0 0 135 0 135 -26 11 c-40 14 -140 23
-147 12z"/>
<path d="M560 3102 c0 -5 14 -7 30 -4 17 2 30 6 30 8 0 2 -13 4 -30 4 -16 0
-30 -4 -30 -8z"/>
<path d="M438 3073 c23 -15 42 -34 42 -43 0 -13 2 -13 9 -1 6 9 5 18 -2 25
-21 20 -66 46 -79 46 -6 0 7 -12 30 -27z"/>
<path d="M11970 3021 c0 -17 5 -31 10 -31 6 0 10 11 10 24 0 14 -4 28 -10 31
-6 4 -10 -7 -10 -24z"/>
<path d="M540 3020 c0 -5 5 -10 10 -10 6 0 10 5 10 10 0 6 -4 10 -10 10 -5 0
-10 -4 -10 -10z"/>
<path d="M348 2993 c7 -3 16 -2 19 1 4 3 -2 6 -13 5 -11 0 -14 -3 -6 -6z"/>
<path d="M375 2940 c-3 -5 -2 -10 4 -10 5 0 13 5 16 10 3 6 2 10 -4 10 -5 0
-13 -4 -16 -10z"/>
<path d="M17590 2809 c0 -5 11 -9 25 -9 14 0 25 2 25 4 0 2 -11 6 -25 8 -14 3
-25 1 -25 -3z"/>
<path d="M102 2776 c7 -8 15 -12 17 -11 5 6 -10 25 -20 25 -5 0 -4 -6 3 -14z"/>
<path d="M17660 2783 c0 -5 12 -19 25 -32 28 -26 34 -12 8 19 -18 20 -33 26
-33 13z"/>
<path d="M5310 1986 c0 -20 4 -22 28 -18 l27 6 -25 7 c-14 4 -18 8 -10 9 44 5
1506 8 1620 3 l135 -6 -3 -159 c-3 -139 -5 -159 -18 -154 -9 3 -34 6 -56 6
-48 0 -43 13 5 15 18 1 32 5 32 10 0 12 -79 6 -83 -6 -6 -15 -210 -11 -215 4
-3 9 -10 9 -30 -2 -15 -8 -26 -15 -24 -17 1 -1 47 -5 102 -8 55 -3 125 -8 155
-11 30 -3 76 -7 103 -9 l47 -5 0 180 0 179 -895 0 -895 0 0 -24z"/>
<path d="M5460 1972 c0 -5 7 -9 15 -9 8 0 12 4 9 9 -3 4 -9 8 -15 8 -5 0 -9
-4 -9 -8z"/>
<path d="M15429 1963 c-13 -16 -12 -17 4 -4 16 13 21 21 13 21 -2 0 -10 -8
-17 -17z"/>
<path d="M7904 1946 c-3 -7 -3 -385 -1 -839 3 -568 1 -829 -7 -837 -5 -5 -20
-10 -32 -10 -13 0 -26 -5 -30 -12 -4 -7 -3 -8 4 -4 7 4 12 3 12 -1 0 -8 -112
-66 -135 -69 -42 -6 -133 -41 -147 -56 -9 -10 -23 -18 -32 -18 -8 0 -24 -10
-36 -22 -11 -12 -20 -18 -20 -13 0 4 -8 0 -19 -9 -19 -17 -135 -41 -151 -31
-6 4 -10 13 -10 21 0 17 60 20 78 2 8 -8 15 -8 26 1 13 11 11 16 -15 38 -19
17 -34 22 -42 16 -6 -5 -36 -10 -66 -12 -30 -1 -75 -6 -100 -11 -25 -5 -50 -5
-55 0 -4 4 -7 47 -5 94 3 65 1 87 -9 91 -8 3 -317 5 -688 5 l-673 0 6 -32 6
-33 -35 33 c-19 17 -42 32 -51 32 -10 0 -20 6 -22 13 -3 7 -24 12 -50 13 -51
1 -64 9 -47 26 7 7 12 18 12 25 0 20 -45 15 -65 -7 -24 -27 -42 -25 -49 4 -10
41 -34 39 -56 -4 l-20 -39 43 -3 c32 -2 44 -8 52 -26 12 -26 18 -27 51 -6 43
29 144 -1 144 -42 0 -7 -13 -23 -30 -36 -16 -12 -30 -25 -30 -28 0 -4 15 -11
33 -16 22 -7 37 -20 49 -43 15 -30 15 -38 3 -67 l-14 -34 725 0 c642 0 724 2
724 15 0 12 8 14 33 10 17 -4 36 -10 42 -16 15 -15 892 -12 897 3 4 11 3 52
-1 78 -1 3 -46 3 -101 2 -83 -3 -100 -1 -100 11 0 12 35 16 210 22 l210 7 1
732 c1 402 2 751 3 776 l1 45 451 3 451 2 7 -372 c11 -533 6 -474 38 -470 34
4 48 -25 47 -96 0 -71 -19 -117 -47 -116 -15 0 -24 -6 -28 -22 -10 -41 -1 -48
57 -45 80 3 104 -9 124 -66 9 -26 21 -56 26 -66 7 -13 5 -22 -6 -34 -13 -12
-14 -18 -4 -27 8 -8 13 -8 16 0 5 16 43 5 43 -11 0 -8 -6 -15 -12 -18 -7 -2
-4 -3 7 -1 11 2 76 4 144 4 68 0 122 2 119 5 -2 3 -56 5 -118 6 -131 1 -138 5
-157 83 -17 72 -16 121 3 137 22 18 322 24 544 10 197 -12 200 -13 200 -87 0
-68 -11 -105 -34 -114 -20 -8 -19 -9 5 -9 14 -1 30 4 35 9 8 8 15 6 24 -5 7
-8 24 -15 39 -16 23 0 24 -1 6 -9 -18 -8 -18 -9 -2 -9 10 -1 25 6 33 14 14 13
14 16 0 21 -9 3 -22 4 -30 1 -29 -12 -26 167 4 197 7 7 83 12 223 14 237 4
317 -2 317 -23 0 -12 5 -11 28 1 15 7 41 14 59 14 32 0 51 14 34 24 -5 4 -38
8 -73 11 -63 5 -206 21 -264 30 -37 6 -54 37 -54 99 0 66 11 106 31 116 10 6
78 11 151 11 73 0 151 4 172 7 l40 7 4 533 4 532 -1536 0 c-1289 0 -1537 -2
-1542 -14z m2541 -512 c4 -140 5 -257 2 -260 -3 -3 -135 -4 -293 -2 -159 1
-357 1 -441 -1 -163 -3 -198 2 -188 26 3 9 6 119 6 246 0 127 2 234 5 239 3 4
207 8 453 8 l449 0 7 -256z m75 -278 c0 -2 -15 -6 -34 -8 -19 -2 -32 0 -30 4
5 8 64 12 64 4z m403 -3 c-7 -2 -19 -2 -25 0 -7 3 -2 5 12 5 14 0 19 -2 13 -5z
m-565 -19 c-4 -3 -44 -7 -90 -9 -55 -3 -78 -1 -68 5 16 10 167 14 158 4z m54
-1 c-6 -2 -10 -9 -7 -13 3 -5 0 -12 -7 -16 -7 -4 -10 -4 -6 1 4 4 3 14 -3 22
-9 10 -6 13 12 12 13 0 18 -3 11 -6z m235 -15 c-3 -8 -6 -5 -6 6 -1 11 2 17 5
13 3 -3 4 -12 1 -19z m193 13 c0 -6 -4 -13 -10 -16 -5 -3 -10 1 -10 9 0 9 5
16 10 16 6 0 10 -4 10 -9z m-1535 -21 c3 -5 -3 -10 -14 -10 -12 0 -21 5 -21
10 0 6 6 10 14 10 8 0 18 -4 21 -10z m140 0 c-3 -5 -10 -10 -16 -10 -5 0 -9 5
-9 10 0 6 7 10 16 10 8 0 12 -4 9 -10z m92 4 c-3 -3 -12 -4 -19 -1 -8 3 -5 6
6 6 11 1 17 -2 13 -5z m943 -4 c0 -5 -6 -10 -14 -10 -8 0 -18 5 -21 10 -3 6 3
10 14 10 12 0 21 -4 21 -10z m-630 -8 c-14 -2 -31 -9 -37 -14 -9 -7 -17 -7
-28 2 -8 6 -19 9 -24 6 -5 -4 -12 -2 -15 3 -3 4 25 8 62 8 37 -1 56 -3 42 -5z
m190 -2 c-18 -12 -78 -12 -105 0 -14 6 2 9 50 9 49 1 65 -2 55 -9z m-440 -28
c0 -15 4 -32 10 -38 5 -5 13 -30 16 -55 l6 -46 -58 -7 c-33 -3 -116 -9 -186
-12 l-128 -6 0 55 c0 51 2 55 30 67 16 7 37 9 47 6 9 -4 19 -3 22 3 3 5 41 12
84 16 l77 7 1 -28 1 -29 11 33 c8 25 15 32 29 29 13 -4 18 0 18 14 0 10 5 19
10 19 6 0 10 -13 10 -28z m120 16 c0 -7 -5 -20 -10 -28 -8 -12 -10 -9 -10 13
0 15 5 27 10 27 6 0 10 -6 10 -12z m341 -132 c-19 -19 -33 -20 -182 -20 -157
0 -162 1 -181 24 -12 14 -16 30 -12 44 11 35 23 41 33 15 9 -23 10 -22 10 10
1 25 4 31 14 24 14 -12 188 -10 230 1 25 8 27 6 28 -25 2 -30 3 -31 6 -7 3 18
11 28 26 30 12 2 27 13 32 26 8 19 11 12 13 -39 3 -52 0 -66 -17 -83z m150 59
c5 4 6 17 3 31 -4 14 -2 24 5 24 6 0 11 -5 11 -10 0 -7 32 -9 93 -6 85 5 92 7
99 28 6 21 6 21 7 -4 1 -16 5 -28 10 -28 5 0 17 -7 25 -16 14 -13 16 -14 16 0
0 18 75 26 103 11 12 -7 23 -6 38 4 20 12 21 11 17 -7 -3 -11 -2 -26 2 -33 6
-9 11 -2 18 22 8 32 9 33 16 11 8 -23 8 -23 28 -6 19 18 19 18 16 -26 l-3 -45
-245 0 c-287 0 -290 1 -290 74 0 63 14 76 18 17 2 -26 7 -44 13 -41z m723 70
c3 -9 -1 -18 -10 -22 -19 -7 -26 0 -18 21 8 20 20 21 28 1z m-374 -5 c0 -5
-18 -10 -40 -10 -22 0 -40 5 -40 10 0 6 18 10 40 10 22 0 40 -4 40 -10z m160
-5 c0 -8 -4 -15 -9 -15 -13 0 -22 16 -14 24 11 11 23 6 23 -9z m145 -23 c23
-1 45 -8 51 -17 6 -8 17 -15 23 -15 7 0 9 -5 6 -10 -4 -6 -2 -17 5 -25 15 -18
-5 -23 -90 -26 -45 -2 -65 1 -64 9 1 7 2 36 3 65 1 43 4 49 14 36 7 -9 29 -16
52 -17z m-397 -178 c38 -8 52 -42 52 -125 0 -92 -6 -95 -191 -100 -210 -7
-347 2 -359 21 -11 17 -12 122 -1 160 6 22 15 26 76 36 76 13 373 18 423 8z
m-619 -24 c26 -13 36 -103 19 -155 -12 -36 -18 -41 -63 -53 -60 -16 -359 -11
-392 6 -32 17 -46 64 -39 126 4 30 13 59 19 65 17 13 72 17 270 19 94 1 176
-2 186 -8z m-3979 -640 c24 -24 25 -43 5 -60 -12 -10 -16 -8 -25 14 -5 14 -16
26 -24 26 -18 0 -29 16 -21 30 10 16 44 11 65 -10z m70 -136 c0 -22 -23 -54
-40 -54 -5 0 -3 15 5 34 8 19 12 43 8 53 -6 16 -5 16 10 4 9 -7 17 -24 17 -37z"/>
<path d="M9600 1506 c0 -179 6 -187 49 -75 20 52 41 103 47 113 11 19 12 19
18 -2 4 -12 12 -22 17 -22 6 0 7 -4 4 -10 -3 -5 -2 -10 4 -10 5 0 12 -8 15
-17 3 -10 3 1 0 25 -7 48 2 55 17 15 10 -26 12 -27 23 -10 7 9 16 17 19 17 4
0 5 -47 4 -105 -2 -91 0 -104 13 -99 36 15 53 17 46 6 -9 -15 23 -16 56 -3 13
5 48 14 79 20 48 10 55 15 54 34 -2 20 6 55 22 97 4 8 5 19 4 24 -1 5 1 16 4
24 5 13 8 12 19 -3 12 -16 13 -16 19 -1 9 23 27 20 27 -6 0 -20 1 -20 13 -5 6
9 29 18 50 20 42 5 48 -5 50 -82 l2 -40 40 6 c22 3 44 9 49 14 5 5 11 51 14
102 l4 93 -391 0 -391 0 0 -120z"/>
<path d="M9695 1521 c-3 -5 -1 -12 5 -16 5 -3 10 1 10 9 0 18 -6 21 -15 7z"/>
<path d="M10225 1510 c-3 -5 -1 -10 4 -10 6 0 11 5 11 10 0 6 -2 10 -4 10 -3
0 -8 -4 -11 -10z"/>
<path d="M10036 1033 c-10 -10 -7 -33 5 -33 5 0 8 4 5 9 -4 5 -1 11 6 13 8 3
9 6 1 11 -5 4 -13 4 -17 0z"/>
<path d="M10665 1000 c-3 -5 -2 -10 4 -10 5 0 13 5 16 10 3 6 2 10 -4 10 -5 0
-13 -4 -16 -10z"/>
<path d="M10895 1000 c-3 -5 1 -10 10 -10 9 0 13 5 10 10 -3 6 -8 10 -10 10
-2 0 -7 -4 -10 -10z"/>
<path d="M5568 1923 c7 -3 16 -2 19 1 4 3 -2 6 -13 5 -11 0 -14 -3 -6 -6z"/>
<path d="M5660 1891 c0 -6 21 -13 46 -17 36 -5 49 -3 62 10 11 10 12 16 4 16
-7 0 -12 -4 -12 -10 0 -5 -11 -10 -24 -10 -14 0 -28 5 -31 10 -8 13 -45 13
-45 1z"/>
<path d="M5920 1870 c0 -13 20 -13 40 0 12 8 9 10 -12 10 -16 0 -28 -4 -28
-10z"/>
<path d="M5810 1858 c14 -6 38 -17 54 -25 19 -8 33 -10 39 -4 12 12 -55 41
-92 40 l-26 0 25 -11z"/>
<path d="M11935 1861 c-3 -5 -2 -114 1 -241 6 -205 9 -229 22 -216 12 12 13
20 3 44 -14 33 -11 97 4 97 14 0 55 44 55 60 0 8 5 15 10 15 6 0 10 -9 10 -19
0 -11 -4 -23 -10 -26 -5 -3 -10 -21 -10 -39 0 -17 -4 -36 -9 -41 -5 -6 -14
-32 -20 -60 -22 -97 -37 -145 -44 -139 -4 4 -6 -76 -6 -177 2 -161 3 -174 10
-100 8 80 19 121 19 69 0 -19 5 -26 18 -24 9 2 22 -4 29 -13 10 -14 12 -14 18
4 4 11 11 29 15 40 11 26 46 145 61 210 7 28 16 53 22 56 10 7 26 128 27 210
0 66 13 76 98 74 l53 -2 -3 111 -3 111 -182 2 c-102 2 -184 -1 -188 -6z m125
-197 c0 -8 -5 -12 -10 -9 -6 4 -8 11 -5 16 9 14 15 11 15 -7z"/>
<path d="M12992 1739 l3 -131 108 0 c59 0 113 5 120 10 29 22 158 34 330 31
l177 -4 0 112 0 112 -370 1 -371 0 3 -131z"/>
<path d="M13806 1839 c-10 -50 -7 -178 4 -200 10 -18 13 -18 47 -4 40 17 168
20 178 5 7 -11 238 -14 249 -3 13 14 170 13 211 -1 22 -8 43 -12 47 -9 5 2 8
58 8 124 l0 119 -369 0 -368 0 -7 -31z"/>
<path d="M5922 1824 c4 -3 21 -7 40 -10 26 -3 29 -2 13 5 -22 11 -62 14 -53 5z"/>
<path d="M6418 1813 c12 -2 32 -2 45 0 12 2 2 4 -23 4 -25 0 -35 -2 -22 -4z"/>
<path d="M6265 1781 c-7 -12 12 -24 25 -16 11 7 4 25 -10 25 -5 0 -11 -4 -15
-9z"/>
<path d="M6640 1751 c0 -5 -6 -11 -12 -14 -7 -2 -4 -3 7 -1 11 2 35 4 53 4 17
0 32 5 32 10 0 6 -18 10 -40 10 -22 0 -40 -4 -40 -9z"/>
<path d="M6435 1738 c74 -18 125 -21 125 -8 0 9 -12 11 -40 6 -25 -4 -40 -2
-40 4 0 5 -19 9 -42 9 l-43 -1 40 -10z"/>
<path d="M6780 1730 c-23 -7 -23 -8 -3 -9 12 -1 25 4 28 9 3 6 5 10 3 9 -2 -1
-14 -5 -28 -9z"/>
<path d="M6248 1721 c41 -11 239 -25 231 -16 -11 10 -50 15 -159 20 -70 3 -94
2 -72 -4z"/>
<path d="M6500 1700 c20 -13 167 -13 175 0 4 6 -29 10 -92 10 -67 0 -93 -3
-83 -10z"/>
<path d="M8380 880 c0 -593 3 -750 13 -751 32 -1 762 2 763 4 1 1 4 338 8 750
l6 747 -395 0 -395 0 0 -750z m276 -277 l4 -392 -52 -3 c-29 -2 -70 1 -90 7
l-38 9 0 187 c0 203 9 341 21 334 8 -6 15 36 24 148 6 62 10 79 26 88 11 5 17
14 14 20 -4 5 -1 9 6 9 7 0 10 2 7 5 -3 3 4 36 15 73 10 37 24 96 31 132 l11
65 8 -145 c4 -80 10 -321 13 -537z m115 624 c-1 -23 -6 -44 -10 -47 -14 -9
-20 -150 -7 -150 19 0 239 57 273 71 21 9 36 10 42 4 15 -16 26 -881 11 -890
-17 -10 -332 -6 -345 5 -7 5 -8 130 -3 381 4 206 4 389 0 409 -4 19 -5 85 -1
145 3 61 6 96 7 78 3 -52 22 -50 22 3 0 26 3 44 7 40 4 -3 6 -25 4 -49z m294
-65 c-2 -24 -8 -36 -19 -38 -17 -2 -21 7 -9 20 4 3 7 19 8 34 1 15 3 45 4 67
l4 40 7 -44 c4 -24 6 -60 5 -79z"/>
<path d="M8611 1084 c0 -11 3 -14 6 -6 3 7 2 16 -1 19 -3 4 -6 -2 -5 -13z"/>
<path d="M8600 1010 c0 -5 5 -10 10 -10 6 0 10 5 10 10 0 6 -4 10 -10 10 -5 0
-10 -4 -10 -10z"/>
<path d="M1435 1530 c-3 -5 1 -10 9 -10 9 0 16 5 16 10 0 6 -4 10 -9 10 -6 0
-13 -4 -16 -10z"/>
<path d="M5995 1532 c-2 -3 -44 -4 -92 -4 -73 1 -85 -1 -69 -11 55 -36 67 -50
64 -75 -4 -36 -32 -51 -56 -29 -18 17 -19 14 -20 -94 -2 -111 -2 -111 20 -105
59 17 71 17 64 0 -3 -9 -18 -62 -32 -118 -15 -55 -30 -106 -36 -113 -5 -6 -12
-50 -15 -97 l-6 -86 67 0 c65 0 92 15 39 22 l-28 4 25 11 c33 14 46 40 69 141
11 46 26 91 33 99 8 10 15 57 19 115 3 54 10 103 15 108 12 12 173 20 180 9 6
-10 158 -12 255 -3 l67 7 1 107 2 108 -38 6 c-43 6 -521 4 -528 -2z m-85 -276
c0 -3 -4 -8 -10 -11 -5 -3 -10 -1 -10 4 0 6 5 11 10 11 6 0 10 -2 10 -4z m-35
-426 c3 -5 1 -10 -4 -10 -6 0 -11 5 -11 10 0 6 2 10 4 10 3 0 8 -4 11 -10z"/>
<path d="M12990 1269 c0 -160 4 -280 10 -289 8 -12 10 -12 10 5 0 11 9 36 20
55 11 19 29 54 39 76 26 56 104 218 108 223 5 7 14 -6 18 -26 2 -10 5 -61 6
-113 2 -60 5 -22 8 103 5 159 9 200 21 208 9 6 112 8 258 7 133 -2 242 0 242
5 0 4 -89 7 -197 7 -109 0 -276 3 -370 7 l-173 6 0 -274z"/>
<path d="M14173 1532 l-363 -2 2 -218 2 -217 6 205 c4 113 8 208 9 211 0 3
161 5 357 5 311 -1 388 3 357 16 -5 2 -171 2 -370 0z"/>
<path d="M1338 1493 c7 -3 16 -2 19 1 4 3 -2 6 -13 5 -11 0 -14 -3 -6 -6z"/>
<path d="M17348 1453 c7 -3 16 -2 19 1 4 3 -2 6 -13 5 -11 0 -14 -3 -6 -6z"/>
<path d="M11943 1345 c0 -22 2 -30 4 -17 2 12 2 30 0 40 -3 9 -5 -1 -4 -23z"/>
<path d="M4462 1268 c-9 -11 -12 -49 -10 -134 l3 -117 28 -10 c48 -16 51 1 23
109 -14 55 -27 114 -28 133 -3 30 -5 32 -16 19z"/>
<path d="M2386 1223 c-3 -10 -2 -58 2 -108 6 -76 10 -90 25 -93 16 -3 18 1 14
25 -3 15 -9 65 -13 111 -6 78 -16 103 -28 65z"/>
<path d="M15731 1226 c-17 -20 -32 -199 -17 -208 6 -4 62 -8 124 -8 l112 0 0
26 c0 24 -3 26 -27 20 -47 -10 -161 -19 -175 -13 -11 4 -12 22 -6 97 5 51 7
95 5 97 -2 2 -9 -3 -16 -11z"/>
<path d="M1210 1198 c-23 -22 -28 -178 -7 -178 12 0 17 18 22 73 4 40 5 84 3
97 -3 21 -5 22 -18 8z"/>
<path d="M3752 1187 c-8 -9 -32 -149 -32 -184 0 -2 8 -3 19 -3 15 0 20 10 25
58 4 31 9 76 13 100 5 42 -4 54 -25 29z"/>
<path d="M5823 1174 c-3 -8 -1 -20 4 -25 7 -7 12 -2 15 15 6 28 -9 36 -19 10z"/>
<path d="M15922 1163 c5 -25 28 -28 28 -4 0 12 -6 21 -16 21 -9 0 -14 -7 -12
-17z"/>
<path d="M1616 1128 c-22 -11 -67 -23 -100 -25 -67 -6 -86 -16 -86 -44 0 -24
6 -25 143 -14 71 6 77 9 82 31 3 13 7 35 10 49 6 30 2 30 -49 3z"/>
<path d="M4980 1100 c0 -27 0 -53 -1 -57 0 -4 4 -9 10 -11 7 -2 11 18 11 57 0
34 -4 61 -10 61 -5 0 -10 -22 -10 -50z"/>
<path d="M2700 1085 c-23 -28 -5 -44 42 -38 50 6 63 15 55 37 -8 21 -80 22
-97 1z"/>
<path d="M185 1001 c5 -16 0 -20 -27 -23 -42 -4 -54 -38 -14 -38 16 0 26 -6
26 -14 0 -8 7 -22 17 -31 15 -15 15 -19 0 -44 -27 -47 12 -78 64 -51 23 13 24
28 2 52 -15 17 -15 19 0 36 19 20 23 77 7 87 -7 4 -7 13 0 26 9 15 7 19 -5 19
-8 0 -15 -4 -15 -10 0 -5 -9 -10 -20 -10 -11 0 -20 5 -20 10 0 6 -5 10 -11 10
-6 0 -8 -8 -4 -19z m65 -60 c0 -20 -13 -41 -25 -41 -18 0 -28 17 -21 35 6 16
46 21 46 6z m-6 -106 c3 -9 -1 -18 -10 -22 -19 -7 -39 11 -30 26 10 16 33 13
40 -4z"/>
<path d="M2913 1003 c-21 -8 -15 -33 7 -33 13 0 20 7 20 20 0 20 -5 23 -27 13z"/>
<path d="M1765 990 c-4 -7 -3 -16 3 -22 14 -14 45 -2 40 15 -6 16 -34 21 -43
7z"/>
<path d="M17247 985 c-7 -16 8 -29 23 -20 15 9 12 35 -4 35 -8 0 -16 -7 -19
-15z"/>
<path d="M4313 983 c-20 -7 -15 -33 6 -33 11 0 22 4 25 9 8 12 -16 29 -31 24z"/>
<path d="M15583 983 c-23 -9 -15 -35 10 -31 12 2 22 9 22 17 0 16 -14 22 -32
14z"/>
<path d="M16054 975 c-4 -9 -3 -19 0 -23 9 -8 42 12 39 24 -4 16 -33 16 -39
-1z"/>
<path d="M1050 965 c-10 -12 -9 -16 5 -21 19 -8 40 9 31 25 -10 15 -21 14 -36
-4z"/>
<path d="M2290 955 c-14 -16 -6 -35 16 -35 8 0 14 10 14 25 0 28 -12 32 -30
10z"/>
<path d="M4879 954 c-11 -14 -11 -18 5 -30 17 -12 17 -13 -10 -19 -66 -14 -75
-23 -72 -63 2 -30 6 -37 23 -34 78 11 102 16 112 24 20 16 26 -14 21 -96 -4
-66 -9 -78 -39 -114 -19 -23 -48 -49 -66 -58 -21 -12 -33 -27 -35 -46 -3 -16
0 -28 6 -28 6 0 18 -15 27 -33 13 -27 21 -31 45 -29 16 2 30 5 31 6 1 1 -2 19
-8 39 -7 25 -7 43 0 56 12 21 5 32 -14 24 -8 -2 -11 -11 -8 -19 7 -18 -11 -18
-27 1 -10 12 -5 17 26 30 34 14 39 14 46 0 5 -8 15 -15 22 -15 11 0 16 42 22
183 5 100 8 188 5 195 -2 8 -10 10 -20 6 -9 -3 -26 -9 -39 -11 -18 -5 -22 -1
-20 17 4 28 -15 36 -33 14z"/>
<path d="M16285 960 c-38 -4 -142 -12 -230 -20 -99 -7 -172 -18 -190 -28 -108
-54 -128 -63 -132 -58 -10 10 10 27 48 43 21 8 39 19 39 24 0 15 -37 10 -50
-6 -7 -8 -19 -15 -26 -15 -8 0 -14 7 -14 15 0 13 -22 15 -135 15 l-135 0 0
-57 0 -58 107 -2 c61 -1 109 -6 111 -12 4 -12 -22 -64 -56 -111 -38 -53 -91
-99 -144 -126 -43 -22 -48 -28 -48 -58 0 -33 1 -34 48 -39 26 -3 83 -10 126
-16 44 -6 81 -9 82 -8 2 1 6 44 10 94 l7 91 58 51 c62 55 69 59 69 36 0 -8 10
-24 22 -35 18 -16 33 -20 68 -18 l45 3 0 85 c0 78 2 85 20 86 11 1 56 3 100 5
l80 4 0 -80 c0 -77 -1 -83 -38 -132 -21 -28 -62 -68 -92 -88 -53 -35 -55 -38
-55 -81 l0 -45 68 7 c183 17 177 16 180 51 4 41 -13 73 -38 73 -12 0 -22 9
-26 24 -7 31 1 46 27 46 25 0 24 -11 14 165 l-6 130 28 -34 c27 -31 31 -33 54
-21 57 29 124 113 87 108 -7 -1 -44 -4 -83 -8z"/>
<path d="M16430 928 c0 -24 4 -48 8 -54 6 -10 97 -19 155 -15 25 1 22 12 -18
65 -35 45 -37 46 -90 46 l-55 0 0 -42z"/>
<path d="M16727 963 c-11 -10 -8 -53 2 -53 11 0 41 39 41 52 0 10 -34 11 -43
1z"/>
<path d="M21 946 c-8 -10 -9 -16 -1 -21 15 -9 12 -25 -5 -25 -9 0 -15 -9 -15
-24 0 -19 7 -25 34 -30 36 -7 62 -29 52 -45 -3 -5 -2 -20 3 -33 l9 -23 10 25
c5 14 11 53 13 85 l4 60 -45 -3 c-37 -3 -43 -1 -32 9 6 7 12 19 12 26 0 17
-25 17 -39 -1z"/>
<path d="M1636 953 c-3 -3 -6 -19 -6 -34 0 -32 -1 -31 125 -57 l90 -19 -1 -64
c0 -47 -7 -76 -24 -109 -13 -25 -25 -51 -26 -57 -3 -17 -24 -36 -56 -50 -33
-15 -36 -29 -8 -36 48 -12 -1 -97 -56 -97 -17 0 -33 -3 -37 -6 -7 -7 13 -56
27 -66 19 -13 137 -21 148 -10 5 5 16 64 23 131 8 66 17 130 20 142 7 20 8 19
27 -12 18 -29 20 -47 17 -154 l-4 -120 75 -8 c83 -9 248 -3 410 16 l105 12 0
50 c0 44 2 50 20 47 55 -9 59 -7 66 25 8 42 22 58 62 74 42 16 42 16 27 34 -7
8 -25 15 -41 15 -18 0 -29 5 -29 14 0 8 -3 22 -6 31 -5 13 -2 15 22 9 15 -4
43 -18 62 -31 19 -12 41 -23 48 -23 9 0 14 -11 14 -30 0 -19 5 -30 14 -30 20
0 22 13 21 119 l0 94 -95 55 c-52 30 -118 70 -147 89 l-52 34 -138 -16 c-76
-10 -143 -22 -150 -29 -6 -6 -9 -23 -6 -38 5 -27 8 -28 62 -27 31 0 79 4 106
9 42 7 52 5 63 -8 19 -24 7 -130 -23 -197 -22 -51 -123 -167 -153 -176 -7 -2
-13 -19 -15 -37 -1 -17 -5 -32 -8 -32 -17 0 -119 75 -119 87 0 8 5 11 10 8 15
-9 40 14 40 36 0 23 18 35 33 20 22 -22 30 -10 25 34 -4 34 -13 51 -32 66 -55
44 -79 97 -84 187 -3 45 -8 84 -11 87 -4 2 -92 13 -196 25 -105 11 -199 23
-211 25 -12 3 -24 2 -28 -2z m165 -403 c-7 -32 -8 -33 -15 -12 -5 14 -3 29 5
38 16 20 19 15 10 -26z m-63 -122 c-3 -7 -13 -15 -24 -17 -16 -3 -17 -1 -5 13
16 19 34 21 29 4z"/>
<path d="M2792 919 l3 -44 90 -12 c50 -6 98 -12 108 -12 17 -1 18 -8 12 -88
-4 -49 -13 -99 -20 -114 -22 -41 -98 -105 -164 -136 -56 -26 -61 -31 -61 -60
0 -18 0 -36 0 -40 -1 -9 240 -33 253 -26 4 2 7 16 7 30 0 13 9 38 20 53 29 41
51 98 59 149 6 42 31 71 31 36 0 -9 7 -31 15 -48 9 -20 16 -70 17 -132 l3
-100 38 -3 c40 -3 45 3 22 34 -8 12 -22 49 -31 83 -24 84 -12 111 48 111 38 0
47 -5 96 -56 41 -43 57 -53 63 -43 5 8 9 19 9 24 1 6 5 31 9 57 7 41 5 50 -12
65 -33 31 -57 91 -67 170 -6 42 -11 78 -13 80 -2 2 -55 8 -117 15 -85 8 -117
8 -131 0 -24 -16 -26 -15 -32 7 -3 14 -18 19 -68 24 -35 4 -92 9 -127 13 l-63
7 3 -44z m286 -60 c-10 -22 -22 -39 -24 -36 -6 6 28 77 37 77 4 0 -2 -18 -13
-41z"/>
<path d="M17137 953 c-4 -3 -7 -26 -7 -50 0 -42 1 -43 33 -43 17 -1 43 -7 57
-15 14 -8 36 -14 49 -15 24 0 26 -16 6 -62 -4 -10 -3 -18 3 -18 5 0 13 11 16
25 4 14 11 25 16 25 14 0 12 -28 -2 -32 -7 -3 -1 -12 15 -21 15 -9 38 -24 52
-32 14 -9 25 -24 25 -36 0 -11 7 -22 15 -25 20 -8 85 23 85 40 0 8 -28 21 -67
33 l-68 19 0 39 c1 22 3 62 5 90 l5 50 -63 7 c-77 8 -132 17 -153 23 -8 3 -18
2 -22 -2z"/>
<path d="M3582 938 c-19 -19 -14 -28 13 -28 18 0 25 5 25 20 0 22 -20 26 -38
8z"/>
<path d="M2530 932 c0 -5 8 -16 18 -24 22 -21 205 -118 220 -118 7 0 12 16 12
38 l0 39 -74 0 c-74 0 -118 16 -161 60 -8 8 -15 10 -15 5z"/>
<path d="M4185 930 c-3 -4 -1 -27 3 -51 l7 -44 115 -13 c63 -7 119 -17 124
-22 16 -16 -36 -111 -89 -162 -27 -26 -74 -60 -102 -74 l-53 -25 0 -58 0 -58
68 -6 c37 -4 106 -7 153 -7 71 0 88 3 93 16 6 17 40 16 95 -2 l24 -7 -7 89
c-7 81 -15 138 -46 309 -18 100 -7 92 -138 100 -64 4 -145 10 -180 14 -35 4
-65 4 -67 1z"/>
<path d="M1095 923 c-33 -1 -79 -5 -102 -9 -41 -5 -43 -7 -43 -39 l0 -34 98 6
c53 3 102 9 107 13 6 4 23 10 38 14 22 5 28 12 25 29 -3 24 -15 26 -123 20z"/>
<path d="M3832 900 c5 -15 215 -130 239 -130 15 0 79 56 79 70 0 24 -34 30
-143 28 -108 -3 -117 -1 -147 21 -18 13 -31 18 -28 11z"/>
<path d="M16863 859 l-32 -50 41 -39 c40 -38 40 -40 35 -92 -3 -29 -9 -66 -13
-82 -6 -26 -5 -27 14 -17 50 26 132 -1 132 -44 0 -18 9 -19 45 -5 28 11 25 30
-5 30 -22 0 -33 23 -17 39 8 8 8 14 0 22 -14 14 -6 39 13 39 8 0 14 7 14 16 0
13 -7 15 -32 10 -18 -3 -34 -10 -38 -15 -3 -5 -23 -6 -45 -2 l-40 7 28 18 c15
10 42 19 60 21 30 2 32 5 35 41 2 22 8 43 13 48 5 6 9 13 9 18 0 8 -163 88
-177 87 -4 0 -22 -23 -40 -50z"/>
<path d="M3571 889 c-56 -4 -105 -10 -107 -12 -3 -3 -6 -17 -7 -33 l-2 -29
115 -3 c63 -1 118 -6 122 -10 10 -10 -8 -166 -23 -189 -27 -44 -168 -122 -221
-123 -29 0 -39 -33 -25 -75 l13 -37 67 0 c37 1 72 1 77 1 6 1 10 16 10 35 0
19 4 38 10 41 17 11 48 -14 55 -45 7 -30 32 -41 40 -17 2 6 9 54 14 106 11
100 15 111 33 93 31 -31 71 2 68 56 -1 15 -2 30 -1 34 1 4 47 -15 104 -42 158
-74 266 -106 268 -79 2 24 -1 122 -4 124 -1 1 -63 32 -137 68 -74 36 -163 84
-198 106 -70 46 -70 46 -271 30z"/>
<path d="M17668 893 c-25 -4 -28 -9 -28 -40 0 -35 0 -35 25 -19 13 9 31 16 40
16 9 0 15 9 15 25 0 14 -5 24 -12 24 -7 -1 -25 -4 -40 -6z"/>
<path d="M9252 810 c0 -14 2 -19 5 -12 2 6 2 18 0 25 -3 6 -5 1 -5 -13z"/>
<path d="M169 764 c-20 -25 2 -36 50 -25 48 11 56 15 47 30 -5 7 -13 7 -26 -2
-16 -9 -24 -9 -39 0 -16 10 -22 9 -32 -3z"/>
<path d="M15405 760 c-58 -38 -86 -138 -49 -174 18 -19 16 -19 48 -6 25 9 26
13 26 81 l0 72 -23 -21 c-13 -12 -26 -22 -30 -22 -17 0 -4 25 30 56 42 39 41
43 -2 14z"/>
<path d="M13 723 c-16 -6 -18 -114 -2 -130 8 -8 8 -13 0 -17 -17 -11 -14 -76
4 -76 8 0 29 -18 47 -41 29 -36 34 -38 45 -24 7 10 17 14 24 9 17 -10 121 -5
136 8 7 5 17 7 22 3 15 -8 60 26 61 46 0 24 -40 71 -56 65 -7 -3 -18 3 -23 12
-9 16 -11 15 -25 -3 -15 -19 -15 -19 -16 8 0 17 -5 27 -14 27 -23 0 -29 20
-12 39 9 10 16 23 16 29 0 7 5 12 11 12 7 0 9 -11 6 -30 -5 -22 -3 -28 8 -24
30 12 29 66 -2 78 -10 4 -26 -3 -40 -16 -23 -21 -25 -22 -34 -5 -18 31 -32 19
-26 -23 4 -34 2 -40 -13 -40 -11 0 -22 12 -29 31 -17 48 -56 76 -88 62z m263
-240 c-4 -4 -11 -1 -16 7 -16 25 -11 35 7 17 9 -9 13 -20 9 -24z m-110 -19
c-5 -14 -9 -15 -19 -5 -9 9 -9 14 3 21 18 11 24 6 16 -16z m82 9 c2 -8 -6 -13
-22 -13 -26 0 -40 12 -29 24 11 11 46 2 51 -11z"/>
<path d="M16651 699 c-19 -18 -22 -28 -16 -57 6 -32 5 -34 -15 -29 -34 9 -68
-12 -72 -44 -5 -33 -3 -34 32 -14 40 23 58 18 104 -28 30 -30 45 -56 50 -83
10 -53 12 -54 46 -41 25 10 34 8 58 -10 l29 -22 22 30 c13 17 35 32 52 36 l30
6 -22 20 c-18 17 -26 18 -57 9 -32 -10 -37 -9 -50 9 -8 11 -23 24 -35 28 -27
10 -39 86 -23 144 7 24 6 27 -18 27 -15 0 -31 8 -38 20 -17 26 -48 25 -77 -1z"/>
<path d="M17285 693 c-11 -3 -26 -14 -33 -24 -7 -11 -20 -19 -29 -19 -13 0
-13 -3 -3 -15 18 -21 -12 -82 -43 -88 -20 -3 -20 -4 8 -16 17 -7 47 -29 68
-49 l37 -36 0 27 c0 64 47 125 84 111 21 -8 21 -65 0 -105 -20 -40 -12 -46 31
-23 31 17 36 17 50 3 21 -21 11 -43 -31 -65 -36 -20 -44 -38 -19 -48 9 -3 15
-18 15 -37 0 -28 3 -31 23 -25 67 20 104 18 170 -9 16 -7 16 -5 5 20 -9 20 -9
31 0 46 16 26 16 28 -13 39 -33 13 -41 34 -24 68 11 20 22 28 47 30 19 1 40 9
49 17 8 8 21 15 29 15 9 0 14 11 14 30 0 38 -14 38 -53 -2 -25 -24 -39 -31
-63 -29 -18 1 -35 -2 -39 -8 -11 -18 -22 -12 -29 14 -10 40 -74 105 -104 105
-17 0 -36 13 -59 40 -33 39 -46 43 -88 33z"/>
<path d="M5182 657 c-12 -13 -22 -32 -22 -43 0 -31 -19 -43 -56 -37 -43 7 -64
-10 -64 -53 0 -24 -5 -34 -21 -39 -37 -12 -52 -79 -19 -88 13 -3 20 -14 20
-29 0 -13 12 -31 26 -41 l24 -18 -6 39 c-8 50 6 75 51 96 29 14 42 15 67 7 43
-15 48 -14 48 12 0 12 18 47 40 76 42 56 43 65 7 66 -16 0 -23 7 -25 25 -8 53
-36 63 -70 27z"/>
<path d="M17711 664 c0 -11 3 -14 6 -6 3 7 2 16 -1 19 -3 4 -6 -2 -5 -13z"/>
<path d="M1183 647 c-16 -20 -21 -41 -13 -62 11 -32 -47 -82 -96 -82 -22 0
-54 -8 -72 -17 l-33 -17 50 -45 c28 -25 51 -52 51 -59 0 -7 6 -18 14 -24 11
-9 16 -5 26 19 7 17 22 37 34 45 24 17 72 20 81 5 9 -15 25 -2 18 16 -7 20 44
66 71 62 11 -1 26 1 33 5 19 12 43 -4 43 -29 0 -13 4 -24 9 -24 12 0 31 -55
31 -89 l1 -26 22 26 c26 31 63 52 77 44 18 -11 10 -40 -20 -75 -16 -19 -29
-38 -30 -42 0 -5 17 -8 38 -8 41 0 82 -23 82 -45 0 -8 17 -19 40 -25 48 -13
62 -46 36 -85 -16 -24 -16 -25 17 -38 18 -8 47 -28 64 -46 l31 -31 346 0 c190
0 346 3 346 8 -1 4 -20 16 -43 28 -48 23 -79 66 -61 84 13 13 100 -26 123 -54
35 -42 51 17 18 64 -33 48 -16 80 45 80 29 0 41 6 54 25 24 37 12 58 -28 50
-18 -4 -40 -12 -50 -18 -12 -8 -23 -8 -40 1 -17 9 -37 10 -77 2 -29 -5 -55
-10 -56 -10 -1 0 0 11 3 25 3 18 0 25 -11 25 -20 0 -41 -26 -27 -35 17 -11 1
-25 -30 -25 -16 0 -40 -4 -54 -10 -22 -8 -25 -16 -28 -62 -2 -41 -7 -54 -20
-56 -13 -3 -18 3 -18 22 0 48 -44 26 -59 -30 -14 -54 -43 -27 -32 30 1 6 -1
32 -4 58 l-7 48 -88 0 c-49 0 -91 -4 -94 -8 -10 -16 10 -30 51 -37 23 -3 47
-13 54 -22 11 -13 8 -14 -23 -8 -19 4 -52 2 -73 -4 -35 -10 -41 -8 -73 20 -22
20 -42 29 -54 26 -12 -4 -32 6 -53 25 -29 24 -40 29 -65 23 -40 -9 -59 14 -60
73 0 24 -5 52 -10 63 -7 13 -7 25 -1 37 15 28 -19 86 -52 90 -18 2 -27 -2 -32
-18 -6 -19 -12 -20 -53 -15 -47 7 -82 33 -82 61 0 20 -61 43 -83 32 -10 -5
-20 -8 -21 -6 -1 2 -10 15 -19 30 -22 36 -52 52 -64 35z"/>
<path d="M1555 619 c-4 -6 -5 -13 -2 -16 7 -7 27 6 27 18 0 12 -17 12 -25 -2z"/>
<path d="M1412 564 c4 -21 22 -23 26 -1 2 10 -3 17 -13 17 -10 0 -15 -6 -13
-16z"/>
<path d="M10820 554 c0 -8 5 -12 10 -9 6 4 8 11 5 16 -9 14 -15 11 -15 -7z"/>
<path d="M4687 513 c-3 -16 0 -34 5 -41 8 -9 6 -22 -5 -45 -9 -17 -18 -40 -21
-49 -4 -12 -15 -18 -35 -18 -17 0 -31 -6 -35 -16 -7 -19 10 -44 31 -44 11 0
14 -7 10 -27 -3 -15 1 -40 9 -55 13 -25 13 -32 -1 -59 -9 -17 -14 -33 -12 -36
7 -6 117 -11 117 -5 0 2 -18 22 -40 43 -47 46 -53 84 -17 117 43 41 111 22
142 -38 14 -28 16 -28 45 -14 33 17 40 49 12 56 -10 3 -19 11 -19 19 0 8 -4
21 -7 30 -4 10 -1 23 8 32 14 13 13 16 -7 21 -39 9 -107 70 -129 114 -25 48
-43 54 -51 15z"/>
<path d="M16466 485 c-14 -11 -20 -28 -20 -62 -1 -27 -5 -53 -9 -59 -4 -8 11
-24 41 -43 57 -37 63 -37 80 -11 7 11 19 20 27 20 21 0 19 4 -20 55 -19 25
-37 61 -41 80 -7 38 -26 45 -58 20z"/>
<path d="M10814 445 c-7 -18 3 -35 22 -35 8 0 14 10 14 25 0 27 -27 35 -36 10z"/>
<path d="M12661 427 c-1 -10 -5 -16 -10 -13 -4 3 -16 -12 -25 -33 -19 -41 -65
-102 -66 -86 0 12 -79 13 -97 2 -7 -5 -22 -3 -34 3 -11 7 -22 10 -25 8 -8 -9
-5 -66 7 -119 7 -31 9 -64 5 -75 -7 -17 -10 -16 -34 14 -21 25 -35 32 -61 32
-22 0 -44 8 -59 23 l-25 22 6 -35 c4 -19 9 -46 13 -59 4 -15 3 -22 -2 -18 -6
3 -16 2 -23 -3 -8 -5 -35 -2 -64 7 -27 8 -53 11 -56 6 -3 -4 -255 -8 -558 -8
-451 0 -554 -2 -558 -13 -3 -8 -5 -29 -5 -48 l0 -34 1078 0 1077 0 1 43 c1 23
3 51 5 62 4 19 0 20 -136 16 -77 -2 -159 -4 -182 -6 -36 -2 -43 0 -43 16 0 24
-11 24 -59 0 -36 -19 -154 -32 -167 -18 -3 3 13 32 35 64 49 68 88 204 72 244
-8 19 -10 20 -10 6z"/>
<path d="M15536 391 c-15 -17 -16 -19 -1 -25 22 -8 35 1 35 25 0 24 -12 24
-34 0z"/>
<path d="M4009 355 c-53 -36 -72 -56 -98 -105 -18 -34 -31 -63 -29 -66 7 -7
200 195 196 206 -1 5 -33 -10 -69 -35z"/>
<path d="M16087 383 c-14 -13 -6 -33 13 -33 13 0 20 7 20 20 0 19 -20 27 -33
13z"/>
<path d="M17660 380 c0 -5 9 -10 20 -10 11 0 20 5 20 10 0 6 -9 10 -20 10 -11
0 -20 -4 -20 -10z"/>
<path d="M1270 337 c0 -43 1 -45 37 -50 20 -4 38 -5 39 -4 1 1 4 20 6 42 3 37
1 40 -22 41 -14 1 -33 5 -42 9 -16 6 -18 1 -18 -38z"/>
<path d="M4310 365 c-10 -12 -9 -16 3 -21 20 -7 37 3 37 22 0 18 -24 18 -40
-1z"/>
<path d="M10138 373 c7 -3 16 -2 19 1 4 3 -2 6 -13 5 -11 0 -14 -3 -6 -6z"/>
<path d="M10475 370 c3 -5 13 -10 21 -10 8 0 14 5 14 10 0 6 -9 10 -21 10 -11
0 -17 -4 -14 -10z"/>
<path d="M10920 371 c0 -9 24 -21 41 -21 5 0 9 7 9 15 0 9 -9 15 -25 15 -14 0
-25 -4 -25 -9z"/>
<path d="M2861 356 c-6 -8 -10 -20 -9 -27 2 -10 -13 -12 -64 -10 -57 2 -68 0
-68 -13 0 -9 5 -16 10 -16 20 0 9 -24 -50 -103 -33 -45 -67 -92 -75 -104 -9
-13 -22 -23 -29 -23 -8 0 -16 -7 -20 -15 -3 -8 -15 -15 -26 -15 -11 0 -20 -7
-20 -15 0 -13 109 -15 921 -15 918 0 920 0 914 20 -9 29 13 88 37 101 11 6 38
8 58 5 32 -5 38 -3 43 14 7 26 53 43 96 35 32 -6 33 -5 26 17 -4 13 -9 35 -12
49 -4 23 -10 27 -36 25 -28 -1 -32 2 -32 24 0 24 -4 25 -80 32 -44 3 -120 5
-170 5 l-89 -2 -1 -115 -1 -115 -24 1 c-14 1 -28 -3 -31 -9 -9 -14 -29 1 -29
22 0 10 11 28 25 41 45 43 24 86 -29 58 -58 -30 -191 -113 -198 -122 -4 -6
-10 -7 -14 -3 -4 3 -1 14 7 23 12 14 10 19 -13 39 -15 13 -33 25 -40 27 -10 4
-8 20 10 79 28 92 33 121 18 111 -6 -4 -27 -17 -47 -30 -37 -23 -40 -31 -86
-194 -7 -27 -23 -21 -23 8 0 15 -7 49 -17 78 -9 28 -18 58 -21 66 -4 13 -5 13
-10 0 -2 -8 -13 -23 -22 -32 -17 -16 -19 -15 -30 13 -9 20 -19 29 -35 29 -19
0 -21 4 -17 26 4 21 1 25 -14 22 -13 -2 -19 -12 -19 -28 0 -39 -47 -40 -74 -2
-12 17 -21 35 -21 41 0 6 -13 11 -30 11 -16 0 -30 -5 -30 -10 0 -7 -7 -7 -17
-2 -10 4 -36 8 -58 7 -37 0 -40 -2 -37 -25 2 -14 10 -32 17 -40 7 -8 16 -26
20 -39 4 -14 21 -46 36 -72 35 -57 36 -66 4 -45 -13 9 -35 16 -49 16 -14 0
-28 4 -31 10 -3 6 -24 10 -47 10 -37 0 -97 -26 -172 -75 -31 -20 -29 -27 -26
103 l2 102 -59 0 c-64 0 -79 6 -63 25 7 9 6 16 -4 24 -10 9 -16 8 -25 -3z
m974 -217 c5 -15 1 -28 -14 -42 -27 -27 -33 -19 -19 26 13 42 24 47 33 16z
m-1115 -20 c0 -10 -6 -19 -14 -19 -8 0 -21 -3 -30 -6 -24 -9 -20 22 6 40 25
18 38 13 38 -15z m460 -7 c0 -11 -22 -32 -32 -32 -5 0 -4 9 2 20 11 20 30 28
30 12z"/>
<path d="M9991 361 c-11 -7 -11 -9 0 -13 8 -3 22 -3 32 0 15 4 16 7 5 13 -16
11 -20 11 -37 0z"/>
<path d="M10065 360 c3 -5 8 -10 11 -10 2 0 4 5 4 10 0 6 -5 10 -11 10 -5 0
-7 -4 -4 -10z"/>
<path d="M9778 353 c6 -2 18 -2 25 0 6 3 1 5 -13 5 -14 0 -19 -2 -12 -5z"/>
<path d="M17166 344 c-9 -8 -16 -22 -16 -30 0 -30 -30 -26 -60 7 -28 32 -30
32 -30 12 0 -13 5 -23 10 -23 17 0 11 -29 -10 -50 -11 -11 -27 -20 -35 -20 -8
0 -15 -9 -15 -20 0 -24 13 -26 30 -5 7 9 29 15 51 15 47 0 72 -31 68 -82 -3
-25 0 -32 11 -28 36 11 99 4 119 -14 27 -25 33 -18 21 25 -6 19 -8 52 -4 75 6
39 4 42 -30 58 -27 12 -36 23 -36 41 0 13 -10 31 -22 39 -28 20 -33 20 -52 0z"/>
<path d="M15400 317 c0 -39 -22 -69 -45 -61 -8 4 -15 1 -15 -5 0 -8 -6 -9 -17
-3 -10 5 -27 6 -38 2 -11 -4 -26 -3 -33 3 -7 6 -46 7 -100 3 -106 -8 -73 -8
-290 0 l-182 7 6 -30 c5 -25 1 -34 -21 -51 l-27 -21 36 -15 c46 -19 69 -62 56
-107 -6 -19 -10 -35 -10 -36 0 -2 210 -3 466 -3 l465 0 -15 22 c-24 34 -20 54
19 97 24 26 32 42 24 46 -8 6 -9 31 -5 85 l7 77 -53 6 c-29 4 -92 10 -140 13
l-88 7 0 -36z"/>
<path d="M9245 331 c-3 -5 -1 -12 5 -16 5 -3 10 1 10 9 0 18 -6 21 -15 7z"/>
<path d="M5214 316 c-3 -8 -4 -22 -2 -32 2 -13 -4 -20 -19 -22 -13 -2 -31 -14
-42 -28 -20 -26 -77 -34 -98 -13 -5 5 -22 7 -37 3 -19 -4 -26 -12 -26 -31 0
-16 5 -23 13 -20 50 18 57 18 84 -9 l26 -27 26 32 c44 53 115 59 141 10 10
-18 8 -26 -9 -49 l-20 -28 44 -7 c50 -7 89 -45 80 -77 -6 -17 2 -18 129 -18
75 0 137 3 138 8 8 39 3 62 -14 68 -11 3 -22 3 -25 0 -3 -3 -24 4 -45 17 -39
21 -40 21 -53 3 -9 -11 -20 -16 -30 -12 -9 3 -25 1 -35 -4 -14 -7 -23 -6 -34
5 -8 8 -23 15 -34 15 -17 0 -20 7 -20 50 0 35 4 50 14 50 20 0 27 19 13 36 -8
10 -25 14 -48 12 -32 -3 -36 0 -39 22 -7 48 -64 82 -78 46z"/>
<path d="M14230 296 c0 -28 -4 -36 -17 -36 -21 -1 -53 -23 -53 -38 0 -16 -70
-20 -86 -5 -15 16 -60 8 -68 -12 -8 -23 18 -37 48 -25 23 8 31 6 53 -16 l25
-25 33 35 c27 30 40 36 72 36 44 0 63 -14 63 -46 0 -16 9 -25 30 -33 17 -5 33
-18 36 -28 3 -10 12 -30 20 -45 8 -14 11 -33 8 -42 -5 -14 10 -16 129 -16
l135 0 7 30 c9 39 0 50 -38 50 -18 0 -43 7 -55 16 -16 11 -34 14 -58 10 -29
-6 -34 -4 -34 12 0 20 -29 52 -47 52 -5 0 -14 15 -20 33 -9 30 -11 32 -59 32
-27 1 -64 7 -82 14 -30 12 -33 17 -28 42 3 15 1 31 -4 34 -6 4 -10 -9 -10 -29z"/>
<path d="M10570 313 c1 -5 9 -23 19 -42 12 -22 21 -30 25 -22 5 7 0 21 -10 32
-15 16 -15 19 -1 19 8 0 17 -6 20 -12 2 -7 8 -10 12 -6 16 15 -5 38 -35 38
-16 0 -30 -3 -30 -7z"/>
<path d="M15900 288 c-23 -25 -25 -50 -8 -78 11 -17 8 -24 -20 -53 -17 -18
-32 -41 -32 -50 0 -13 -9 -17 -36 -17 -42 0 -70 -13 -84 -40 -21 -39 -4 -50
82 -50 53 0 77 3 73 11 -4 5 -4 21 -1 35 9 33 65 57 115 49 35 -5 37 -4 55 37
35 81 33 80 104 64 39 -9 41 1 10 49 -19 28 -29 35 -56 35 -19 0 -46 -9 -61
-19 l-27 -20 -27 35 c-32 39 -58 43 -87 12z"/>
<path d="M3173 293 c-16 -6 -17 -59 -2 -69 15 -9 26 5 34 44 7 32 -1 38 -32
25z"/>
<path d="M1162 268 c-7 -7 -12 -20 -12 -29 0 -10 -8 -20 -19 -24 -23 -7 -47
-33 -55 -61 -6 -19 -2 -22 31 -27 21 -3 46 -8 56 -12 13 -5 17 -2 17 13 0 36
38 72 76 72 19 0 34 4 34 10 0 9 -18 15 -65 22 -11 2 -20 8 -20 13 0 14 -15
35 -24 35 -4 0 -12 -5 -19 -12z"/>
<path d="M3040 237 c0 -16 -5 -37 -10 -48 -13 -24 -8 -24 29 -1 l30 18 -24 30
-24 29 -1 -28z"/>
<path d="M7334 249 c-6 -10 57 -10 101 0 23 6 15 8 -33 8 -34 1 -65 -3 -68 -8z"/>
<path d="M7510 250 c8 -5 24 -10 35 -10 17 0 17 2 5 10 -8 5 -24 10 -35 10
-17 0 -17 -2 -5 -10z"/>
<path d="M12230 250 c-9 -6 -10 -10 -3 -10 6 0 15 5 18 10 8 12 4 12 -15 0z"/>
<path d="M13615 250 c3 -5 19 -10 36 -10 16 0 29 5 29 10 0 6 -16 10 -36 10
-21 0 -33 -4 -29 -10z"/>
<path d="M13870 250 c0 -13 11 -13 30 0 12 8 11 10 -7 10 -13 0 -23 -4 -23
-10z"/>
<path d="M7208 243 c7 -3 16 -2 19 1 4 3 -2 6 -13 5 -11 0 -14 -3 -6 -6z"/>
<path d="M2177 234 c-8 -8 1 -24 13 -24 4 0 10 7 14 15 5 15 -14 21 -27 9z"/>
<path d="M17692 218 c-7 -7 -12 -17 -12 -24 0 -7 -22 -26 -50 -43 -57 -35 -62
-47 -22 -53 15 -3 34 -8 42 -12 11 -4 19 2 27 24 6 16 18 30 27 30 12 0 16 11
16 45 0 46 -7 54 -28 33z"/>
<path d="M16346 195 c-14 -22 -15 -25 -1 -25 8 0 15 -4 15 -9 0 -5 -9 -7 -20
-4 -13 3 -20 0 -20 -8 0 -9 -12 -14 -30 -15 -34 -1 -58 -19 -70 -50 -6 -14
-21 -24 -44 -28 -35 -7 -66 -29 -66 -47 0 -5 17 -9 38 -9 31 0 41 5 55 29 25
42 78 64 143 59 50 -4 54 -3 54 17 0 12 9 30 20 40 27 25 26 28 -19 53 l-39
22 -16 -25z"/>
<path d="M16746 212 c-3 -6 -3 -17 0 -26 3 -9 1 -16 -5 -16 -6 0 -11 5 -11 12
0 6 -9 3 -20 -7 -20 -18 -22 -18 -49 -2 -16 9 -35 17 -43 17 -18 0 -61 -44
-51 -53 12 -13 32 -7 27 8 -4 8 -2 15 4 15 16 0 20 -23 9 -45 -15 -30 -15 -30
-36 -4 -11 13 -20 19 -21 12 0 -24 13 -43 31 -43 24 0 26 -35 3 -48 -9 -5 -14
-14 -10 -21 5 -8 107 -11 354 -11 277 0 344 3 334 13 -8 7 -44 13 -94 13 -73
2 -83 4 -89 22 -17 46 -87 57 -113 18 -17 -27 -50 -36 -83 -23 -26 12 -36 54
-15 66 14 8 14 11 -1 25 -9 9 -14 22 -12 29 8 22 -23 49 -63 54 -22 3 -42 1
-46 -5z m31 -24 c-3 -8 -6 -5 -6 6 -1 11 2 17 5 13 3 -3 4 -12 1 -19z"/>
<path d="M13280 199 c0 -5 5 -7 10 -4 6 3 10 8 10 11 0 2 -4 4 -10 4 -5 0 -10
-5 -10 -11z"/>
<path d="M1388 193 c-35 -6 -45 -19 -53 -74 l-7 -47 34 -4 c18 -3 40 -7 48 -9
11 -3 17 10 25 46 5 28 14 55 18 62 5 7 0 16 -12 22 -11 6 -21 10 -23 10 -2
-1 -15 -4 -30 -6z"/>
<path d="M7600 190 c0 -5 5 -10 11 -10 5 0 7 5 4 10 -3 6 -8 10 -11 10 -2 0
-4 -4 -4 -10z"/>
<path d="M7460 150 c0 -5 5 -10 11 -10 5 0 7 5 4 10 -3 6 -8 10 -11 10 -2 0
-4 -4 -4 -10z"/>
<path d="M13540 153 c-8 -3 -21 -10 -28 -16 -18 -14 3 -27 46 -27 42 0 52 -24
21 -50 -39 -32 -73 -26 -112 21 -31 38 -41 43 -93 50 -114 15 -195 -24 -180
-87 9 -33 18 -32 121 12 49 21 125 -5 125 -43 0 -10 23 -13 99 -13 l100 0 -11
30 c-8 24 -7 35 6 56 19 28 61 48 88 41 10 -3 18 -2 18 3 0 14 -29 32 -40 25
-13 -8 -101 -9 -128 -1 -9 2 -24 2 -32 -1z"/>
<path d="M10548 143 c7 -3 16 -2 19 1 4 3 -2 6 -13 5 -11 0 -14 -3 -6 -6z"/>
<path d="M4858 119 c-11 -6 -18 -22 -18 -39 0 -24 -5 -29 -27 -32 -20 -2 -29
-9 -31 -25 l-3 -23 270 0 c185 0 271 3 271 11 0 26 -21 46 -50 47 -16 0 -30
-3 -30 -7 0 -5 -14 -11 -30 -15 -29 -5 -67 7 -81 28 -4 4 -16 3 -28 -3 -17
-10 -23 -8 -33 9 -15 24 -66 27 -74 5 -8 -21 -53 -19 -61 3 -8 24 -34 52 -47
52 -6 0 -19 -5 -28 -11z"/>
<path d="M13872 118 c-5 -7 -12 -24 -14 -38 -2 -16 -11 -26 -28 -30 -16 -4
-26 -14 -28 -28 l-3 -22 263 0 c247 0 264 1 275 19 11 17 8 20 -35 27 -26 4
-64 7 -84 5 -20 -1 -45 2 -55 7 -12 7 -25 7 -38 0 -15 -9 -22 -7 -33 10 -16
25 -59 29 -76 8 -14 -18 -62 -33 -51 -16 8 13 -22 39 -47 40 -10 0 -18 7 -18
15 0 18 -14 19 -28 3z"/>
<path d="M1563 74 c-2 -45 -1 -46 25 -41 18 4 34 -1 48 -14 17 -16 33 -19 75
-17 l54 3 -34 22 c-18 11 -53 24 -77 28 -33 5 -44 11 -44 24 0 19 -18 41 -34
41 -6 0 -12 -21 -13 -46z"/>
<path d="M4516 75 c-5 -14 -9 -15 -20 -6 -10 9 -16 9 -21 1 -4 -6 -13 -9 -21
-6 -7 3 -20 -5 -29 -17 -30 -43 -22 -47 96 -47 84 0 110 3 107 13 -3 6 -19 14
-37 17 -20 3 -38 15 -50 33 -15 24 -19 26 -25 12z"/>
<path d="M17358 26 c-27 -20 -22 -26 22 -26 41 0 49 7 28 28 -15 15 -29 15
-50 -2z"/>
<path d="M17519 9 c-9 -5 13 -9 61 -9 50 0 70 3 60 10 -18 11 -102 11 -121 -1z"/>
</g>
</svg>
