<?xml version="1.0" standalone="no"?>
<!DOCTYPE svg PUBLIC "-//W3C//DTD SVG 20010904//EN"
 "http://www.w3.org/TR/2001/REC-SVG-20010904/DTD/svg10.dtd">
<svg version="1.0" xmlns="http://www.w3.org/2000/svg"
 width="1772.000000pt" height="590.000000pt" viewBox="0 0 1772.000000 590.000000"
 preserveAspectRatio="xMidYMid meet">

<g transform="translate(0.000000,590.000000) scale(0.100000,-0.100000)"
fill="#000000" stroke="none">
<path d="M3945 5530 c-7 -11 9 -11 45 0 24 8 24 8 -7 9 -17 1 -35 -3 -38 -9z"/>
<path d="M3907 5500 c5 -20 15 -25 26 -14 6 6 -16 34 -26 34 -3 0 -3 -9 0 -20z"/>
<path d="M4140 5481 c26 -32 30 -42 21 -59 -6 -11 -9 -27 -6 -34 4 -10 -3 -13
-27 -12 -48 4 -62 8 -91 27 -15 9 -30 17 -35 17 -4 0 -18 19 -30 43 -12 23
-22 37 -22 30 0 -21 18 -58 39 -81 17 -17 20 -26 12 -40 -9 -15 -10 -15 -11
-1 0 9 -7 22 -15 29 -12 10 -15 10 -15 -3 0 -9 5 -19 10 -22 6 -3 10 -15 10
-26 0 -10 8 -27 18 -37 78 -80 17 -212 -99 -212 -31 0 -36 -14 -20 -55 12 -29
4 -42 -38 -65 -37 -21 -81 -84 -81 -116 0 -10 10 -28 22 -41 33 -36 37 -118 6
-163 -13 -19 -34 -36 -46 -38 -29 -4 -28 -25 4 -59 18 -20 24 -36 22 -55 -5
-28 -4 -28 53 -28 32 0 61 -4 64 -10 17 -28 21 -3 7 49 -15 57 -15 59 7 90 13
18 44 42 70 54 43 21 46 25 43 58 -5 52 13 87 53 106 28 13 35 22 35 46 0 16
7 44 16 63 14 29 30 46 89 92 6 4 17 11 25 15 8 4 31 17 50 29 44 26 131 29
177 5 18 -10 36 -17 41 -17 5 0 12 25 15 56 3 30 15 71 27 91 l21 36 -25 25
c-19 19 -38 26 -80 30 l-56 4 0 53 c0 67 -24 101 -63 91 -29 -7 -67 -43 -67
-63 0 -23 -18 -14 -24 12 -4 14 -18 31 -31 37 -14 6 -25 15 -25 19 0 11 -60
69 -71 69 -6 0 4 -18 21 -39z m52 -102 l-10 -34 -1 45 c-1 31 2 41 10 33 7 -7
7 -21 1 -44z m-147 -10 c12 -19 -5 -23 -22 -6 -16 16 -16 17 -1 17 9 0 20 -5
23 -11z m125 -39 c0 -5 -2 -10 -4 -10 -3 0 -8 5 -11 10 -3 6 -1 10 4 10 6 0
11 -4 11 -10z m20 -64 c0 -2 -7 -7 -16 -10 -8 -3 -12 -2 -9 4 6 10 25 14 25 6z
m-186 -292 c79 -27 72 -61 -16 -83 -51 -12 -127 -15 -152 -5 -23 9 -20 28 9
63 37 43 84 50 159 25z"/>
<path d="M3896 5393 c-11 -11 -6 -23 9 -23 8 0 15 4 15 9 0 13 -16 22 -24 14z"/>
<path d="M3940 5350 c0 -5 7 -10 16 -10 8 0 12 5 9 10 -3 6 -10 10 -16 10 -5
0 -9 -4 -9 -10z"/>
<path d="M5068 5263 c7 -3 16 -2 19 1 4 3 -2 6 -13 5 -11 0 -14 -3 -6 -6z"/>
<path d="M5125 5230 c3 -5 8 -10 11 -10 2 0 4 5 4 10 0 6 -5 10 -11 10 -5 0
-7 -4 -4 -10z"/>
<path d="M5167 5166 c3 -15 10 -29 15 -32 6 -4 7 2 3 17 -10 35 -23 45 -18 15z"/>
<path d="M5188 5069 c-1 -28 0 -53 5 -56 4 -2 7 21 7 51 0 70 -7 73 -12 5z"/>
<path d="M3160 5080 c0 -5 10 -15 23 -21 22 -12 22 -12 3 10 -21 23 -26 26
-26 11z"/>
<path d="M3248 5073 c-2 -5 -3 -35 -3 -67 1 -40 6 -61 15 -64 9 -3 11 2 7 17
-3 11 0 21 5 21 7 0 7 4 0 13 -6 7 -9 30 -6 50 4 32 -8 52 -18 30z"/>
<path d="M5440 5039 c-13 -6 -39 -26 -57 -45 -29 -32 -31 -38 -18 -51 14 -14
20 -10 16 12 -1 6 4 3 13 -5 8 -8 20 -36 27 -61 11 -40 10 -52 -4 -81 -18 -39
-35 -55 -94 -86 -26 -14 -44 -19 -48 -12 -11 18 -20 11 -22 -18 -1 -15 6 -36
15 -46 16 -18 16 -19 -5 -14 -12 3 -23 2 -25 -4 -2 -5 -3 17 -3 49 0 40 5 62
15 70 26 20 5 23 -25 3 -17 -11 -24 -20 -17 -20 19 0 15 -81 -7 -109 -16 -21
-24 -23 -60 -18 -33 4 -53 -1 -96 -22 l-55 -28 -16 23 c-23 30 -85 50 -110 35
-18 -10 -18 -11 1 -9 57 4 105 -24 119 -69 7 -23 26 -32 26 -12 0 13 16 28 52
52 32 20 59 22 76 5 9 -9 12 -9 12 1 0 7 5 9 11 5 8 -4 7 -9 -2 -14 -10 -7
-10 -12 -1 -22 22 -27 25 -94 7 -155 -10 -32 -22 -62 -27 -67 -13 -16 -9 -26
9 -26 44 0 102 -33 118 -66 51 -108 -110 -205 -241 -145 -39 18 -84 66 -84 91
0 6 -15 0 -33 -14 -77 -59 -159 -69 -190 -25 -11 15 -12 30 -4 67 10 49 58
129 84 139 8 3 12 12 9 20 -3 8 -2 12 3 8 14 -8 42 6 35 17 -4 5 -15 7 -26 5
-14 -4 -16 -2 -9 6 6 8 5 20 -4 37 -8 14 -15 43 -16 65 -1 23 -4 30 -6 18 -3
-14 -9 -20 -19 -16 -11 4 -14 -6 -14 -46 0 -37 -4 -51 -13 -49 -15 4 -57 -37
-57 -56 0 -9 10 -13 26 -12 19 1 24 5 20 18 -6 24 9 31 34 18 23 -12 27 -32 5
-24 -11 5 -13 2 -9 -10 5 -12 2 -15 -11 -9 -15 5 -17 2 -13 -15 4 -12 2 -25
-3 -28 -5 -3 -9 -2 -8 3 7 40 -14 43 -36 6 -9 -16 -14 -20 -11 -11 3 11 -2 22
-14 28 -17 9 -20 7 -20 -9 0 -11 5 -32 10 -47 24 -62 -31 -124 -109 -124 -44
0 -111 28 -146 61 -36 34 -45 36 -45 11 0 -25 -27 -48 -78 -66 -57 -20 -110
-3 -133 42 -12 24 -18 28 -23 17 -3 -8 0 -15 5 -15 7 0 9 -9 6 -21 -4 -15 0
-23 14 -26 22 -6 26 -23 4 -23 -8 0 -15 -4 -15 -10 0 -5 9 -10 20 -10 11 0 19
5 17 12 -3 18 26 21 48 4 18 -13 16 -15 -32 -37 -35 -16 -54 -32 -58 -47 -3
-15 -11 -22 -19 -19 -10 4 -12 0 -9 -14 3 -10 11 -19 19 -19 7 0 16 -5 20 -11
4 -8 0 -9 -15 -4 -12 4 -21 2 -21 -4 0 -6 -4 -11 -9 -11 -12 0 -22 82 -11 95
5 6 5 17 0 25 -8 12 -10 12 -10 2 0 -23 -54 -91 -80 -102 -29 -11 -72 -14
-115 -7 -16 2 -24 2 -17 0 7 -3 10 -9 7 -14 -4 -5 15 -9 43 -9 39 0 54 -5 74
-25 36 -36 54 -96 39 -133 -11 -26 -10 -32 12 -56 32 -35 40 -68 27 -116 -11
-39 -52 -83 -91 -95 -65 -21 -154 47 -147 113 4 32 4 32 -42 32 -57 0 -112 19
-146 51 -21 19 -25 30 -20 57 4 28 3 32 -9 22 -8 -7 -13 -16 -10 -20 3 -4 -1
-13 -9 -19 -11 -9 -15 -9 -19 1 -4 10 -8 10 -16 -2 -8 -11 -6 -17 7 -21 16 -6
16 -7 0 -14 -9 -4 -22 -4 -27 -1 -6 4 -9 -5 -8 -24 2 -34 22 -40 32 -9 4 11
12 18 18 16 26 -8 14 -25 -37 -50 -50 -25 -58 -26 -92 -14 -45 14 -70 52 -61
89 6 22 12 26 47 26 72 1 159 39 191 81 18 25 25 28 40 18 12 -8 27 -8 52 0
22 6 52 7 79 3 24 -5 43 -8 43 -7 17 63 21 87 14 87 -5 0 -9 -7 -9 -16 0 -9
-5 -12 -12 -8 -7 4 -8 3 -4 -5 8 -13 -5 -19 -54 -25 -19 -2 -48 -9 -63 -15
-37 -14 -50 -6 -42 28 15 53 14 83 -1 106 -14 22 -14 24 7 30 12 4 43 23 69
41 51 36 60 58 60 141 0 138 -128 218 -290 181 -10 -2 -16 10 -20 42 -7 54
-33 96 -72 116 -23 12 -29 20 -24 37 9 36 -10 94 -44 137 -38 48 -55 52 -32 8
25 -48 21 -174 -7 -230 -21 -42 -16 -57 16 -58 18 0 53 -50 53 -77 0 -13 -9
-41 -21 -61 l-21 -37 40 -43 c50 -54 61 -99 34 -150 -10 -20 -33 -45 -49 -55
-34 -19 -118 -26 -175 -13 -35 7 -38 6 -47 -17 -6 -14 -23 -34 -38 -44 -38
-24 -43 -34 -32 -56 16 -29 -7 -110 -40 -141 -34 -33 -114 -56 -156 -45 -35
10 -85 53 -85 74 0 8 -3 16 -7 16 -5 1 -20 3 -35 4 -33 4 -69 23 -85 44 -10
14 -13 14 -30 -2 -11 -9 -25 -17 -32 -17 -9 0 -11 -7 -6 -22 28 -86 10 -147
-58 -195 -52 -37 -87 -44 -157 -31 -52 9 -55 9 -75 -16 -45 -57 -168 -76 -207
-33 -19 21 -25 23 -63 14 -35 -8 -47 -17 -65 -49 -41 -74 2 -158 88 -173 l42
-7 -6 -38 c-20 -121 56 -204 186 -203 75 0 116 17 172 70 l36 36 39 -41 c44
-46 100 -65 153 -53 52 12 107 40 142 73 26 24 36 28 52 20 23 -11 143 -47
191 -58 109 -24 192 -59 235 -98 73 -68 291 -206 480 -303 l55 -29 5 -116 c6
-129 3 -159 -11 -137 -6 10 -9 7 -9 -13 0 -14 -5 -50 -11 -80 -40 -190 -67
-268 -93 -268 -9 0 -16 3 -16 8 -1 4 -18 27 -39 51 l-38 43 -37 -17 c-20 -10
-39 -21 -41 -26 -3 -4 16 -54 43 -111 66 -137 142 -379 172 -548 32 -179 60
-344 65 -396 l7 -61 42 2 c22 2 101 6 174 10 96 5 132 11 132 20 0 23 -88 348
-136 501 -25 82 -73 221 -105 309 l-60 160 15 50 c23 73 53 220 61 300 9 78 5
73 143 188 45 37 107 99 138 137 53 64 61 70 103 75 223 28 412 76 491 124 93
56 251 216 306 310 17 29 20 29 113 34 53 3 105 6 115 8 14 3 21 -4 27 -26 21
-77 124 -128 212 -104 46 12 97 58 97 87 0 31 9 31 67 1 70 -37 132 -39 186
-6 66 40 96 113 67 167 -8 15 -3 22 30 44 109 72 105 245 -7 292 l-32 14 24
36 c31 46 33 101 4 137 -16 21 -18 31 -10 46 25 45 2 131 -34 131 -29 0 -25
22 9 60 48 54 63 107 42 148 -35 67 -124 79 -206 27 -22 -14 -43 -25 -47 -25
-5 0 -18 22 -31 49 l-22 50 25 37 c34 49 36 136 4 170 l-22 23 51 56 c31 34
54 69 58 89 15 84 -88 164 -175 136 -11 -4 -15 6 -16 37 -2 56 -41 98 -109
118 -57 17 -81 18 -116 4z m-200 -439 c0 -5 -7 -7 -15 -4 -8 4 -15 8 -15 10 0
2 7 4 15 4 8 0 15 -4 15 -10z m40 -5 c0 -8 -4 -15 -10 -15 -5 0 -7 7 -4 15 4
8 8 15 10 15 2 0 4 -7 4 -15z m-75 -44 c3 -5 0 -13 -6 -17 -7 -4 -9 -3 -5 4 3
5 0 13 -6 15 -9 4 -10 6 -1 6 6 1 14 -3 18 -8z m-421 -87 c4 -10 1 -14 -6 -12
-15 5 -23 28 -10 28 5 0 13 -7 16 -16z m6 -70 c0 -8 -4 -14 -10 -14 -5 0 -10
9 -10 21 0 11 5 17 10 14 6 -3 10 -13 10 -21z m-1110 -104 c17 -17 30 -36 31
-43 0 -7 2 -21 4 -31 6 -29 -11 -53 -45 -64 -16 -6 -30 -16 -30 -22 0 -7 -9
-25 -21 -41 -18 -25 -27 -30 -58 -27 -31 3 -36 7 -39 31 -3 22 5 36 33 62 33
30 36 36 29 67 -22 92 34 131 96 68z m704 -116 c9 -22 8 -24 -11 -25 -13 0
-14 -2 -4 -6 8 -3 20 2 28 13 14 19 17 15 7 -10 -3 -9 -17 -16 -29 -16 -13 0
-27 -4 -30 -10 -3 -5 -18 -10 -32 -10 -25 0 -25 0 13 39 45 44 50 46 58 25z
m18 -86 c-6 -6 -15 -8 -19 -4 -4 4 -1 11 7 16 19 12 27 3 12 -12z m-108 -9 c3
-3 -7 -6 -22 -7 -14 -1 -31 -7 -37 -13 -7 -7 -5 -8 8 -4 10 4 17 2 17 -5 0 -6
-4 -9 -9 -6 -5 3 -12 -5 -15 -18 -6 -23 -46 -44 -46 -24 0 5 9 12 20 15 23 6
27 33 5 33 -8 0 -15 -4 -15 -10 0 -5 -7 -10 -15 -10 -23 0 -18 26 5 27 11 1
26 8 34 15 12 13 60 17 70 7z m299 -26 c50 -45 43 -164 -14 -242 -45 -63 -88
-53 -123 30 -25 59 -6 165 37 209 33 34 64 35 100 3z m-253 -15 c0 -13 -23 -5
-28 10 -2 7 2 10 12 6 9 -3 16 -11 16 -16z m-173 -47 c-15 -6 -28 15 -21 33 6
15 8 14 18 -6 7 -13 8 -25 3 -27z m223 19 c0 -5 -4 -10 -9 -10 -6 0 -13 5 -16
10 -3 6 1 10 9 10 9 0 16 -4 16 -10z m30 6 c0 -3 -4 -8 -10 -11 -5 -3 -10 -1
-10 4 0 6 5 11 10 11 6 0 10 -2 10 -4z m-358 -34 c-7 -2 -12 -10 -12 -18 0 -8
-4 -14 -10 -14 -15 0 -12 17 7 40 12 14 19 16 22 8 2 -6 -1 -14 -7 -16z m-482
-29 c0 -35 -89 -119 -115 -109 -21 8 -19 59 3 86 23 28 112 47 112 23z m438
-32 c-2 -4 -12 1 -23 12 -11 11 -14 17 -7 13 7 -4 12 -2 12 6 0 8 5 6 11 -5 6
-10 9 -21 7 -26z m167 -59 c0 -38 -3 -51 -12 -47 -7 2 -13 0 -13 -5 0 -13 -38
-23 -66 -16 -20 5 -24 13 -24 41 0 55 31 101 71 107 32 5 44 -16 44 -80z
m-124 35 c-10 -9 -11 -8 -5 6 3 10 9 15 12 12 3 -3 0 -11 -7 -18z m-21 -18 c0
-5 -4 -9 -10 -9 -5 0 -10 7 -10 16 0 8 5 12 10 9 6 -3 10 -10 10 -16z m1683
-39 c36 -28 41 -63 18 -115 -24 -53 -59 -72 -102 -55 -42 18 -61 45 -66 94 -5
38 -2 48 20 70 33 33 92 35 130 6z m-523 -28 c0 -4 -17 -6 -37 -4 -59 5 -63
10 -10 11 26 1 47 -3 47 -7z m-144 -29 c-4 -9 -1 -20 6 -24 10 -6 10 -11 1
-20 -8 -8 -13 -6 -18 10 -5 17 -12 20 -28 16 -20 -6 -20 -5 3 14 30 25 44 27
36 4z m-986 -7 c0 -8 -4 -17 -9 -21 -12 -7 -24 12 -16 25 9 15 25 12 25 -4z
m1050 -30 c0 -3 -4 -8 -10 -11 -5 -3 -10 -1 -10 4 0 6 5 11 10 11 6 0 10 -2
10 -4z m-1477 -92 c-3 -8 -9 -14 -13 -14 -14 0 -21 17 -14 34 5 12 10 14 20 6
7 -7 10 -18 7 -26z m1393 -1 c-8 -8 -36 10 -36 25 0 13 3 12 20 -3 11 -10 18
-20 16 -22z m-1451 -92 c-8 -8 -25 51 -18 62 4 7 10 -3 14 -23 4 -19 6 -37 4
-39z m1305 59 c0 -5 -6 -10 -14 -10 -8 0 -16 -6 -19 -12 -2 -7 -8 -10 -12 -5
-5 4 0 14 11 22 23 17 34 19 34 5z m524 -16 c9 -8 16 -22 16 -30 0 -20 -28
-74 -52 -100 -18 -21 -19 -24 -4 -52 29 -57 18 -97 -37 -129 -52 -31 -101 -37
-158 -18 -91 30 -148 116 -113 170 21 32 36 37 129 44 77 6 80 7 81 31 1 47 4
56 24 78 25 27 90 30 114 6z m-474 -29 c0 -12 -29 -3 -34 10 -4 13 -2 14 14 5
11 -6 20 -13 20 -15z m-136 -10 c-4 -9 -19 -15 -38 -15 l-31 0 25 14 c34 19
51 19 44 1z m20 -40 c-4 -8 -10 -15 -14 -15 -5 0 -11 -10 -13 -22 -3 -17 -5
-15 -6 9 -1 22 4 33 17 36 9 3 18 5 19 6 1 0 0 -6 -3 -14z m-1233 -38 c-13
-13 -26 -3 -16 12 3 6 11 8 17 5 6 -4 6 -10 -1 -17z m-311 -12 c0 -22 52 -77
87 -91 18 -8 52 -14 76 -14 24 0 51 -6 61 -13 16 -12 17 -18 6 -49 -17 -48 -6
-101 32 -143 37 -43 79 -46 132 -10 20 14 41 25 45 25 5 0 23 -13 41 -30 17
-16 47 -35 66 -42 34 -12 34 -12 34 -74 0 -34 -3 -76 -6 -94 -7 -31 -9 -32
-44 -26 -152 24 -369 117 -437 188 -54 55 -105 142 -143 240 l-30 79 31 39
c31 38 49 44 49 15z m-904 -30 c13 -19 15 -37 10 -75 -6 -42 -4 -52 15 -71 45
-45 -6 -124 -98 -150 -52 -14 -73 -6 -87 34 -7 19 -4 36 12 71 12 25 22 47 22
49 0 2 -20 17 -45 33 -36 22 -45 34 -45 56 0 24 4 28 26 28 15 0 42 -9 60 -21
19 -11 35 -19 35 -17 1 2 3 16 5 31 7 60 60 78 90 32z m2364 -35 c0 -5 -4 -10
-10 -10 -5 0 -10 5 -10 10 0 6 5 10 10 10 6 0 10 -4 10 -10z m-1613 -22 c-3
-8 -6 -5 -6 6 -1 11 2 17 5 13 3 -3 4 -12 1 -19z m-131 -3 c11 -8 41 -14 71
-15 51 0 53 -1 68 -37 21 -51 39 -122 32 -130 -7 -6 -153 20 -236 42 -56 14
-71 27 -71 58 0 14 5 16 25 11 37 -9 75 19 75 56 0 34 7 37 36 15z m1779 5
c-3 -5 -13 -10 -21 -10 -8 0 -12 5 -9 10 3 6 13 10 21 10 8 0 12 -4 9 -10z
m286 -101 l22 -22 -24 -46 c-13 -25 -60 -82 -104 -127 -88 -90 -157 -131 -265
-157 -77 -19 -270 -32 -288 -19 -10 6 -8 24 7 83 10 41 22 98 26 127 5 40 13
57 31 68 13 9 26 24 29 35 12 36 33 20 44 -32 20 -92 56 -139 108 -139 66 0
102 48 118 153 4 26 9 47 12 47 3 0 16 -9 30 -20 53 -41 158 -18 199 45 20 31
28 31 55 4z m-879 -68 c22 -39 68 -62 132 -65 61 -3 66 -16 41 -103 -36 -124
-100 -217 -203 -297 -70 -53 -159 -99 -167 -86 -3 5 -3 104 1 220 l7 211 37
19 c45 23 99 77 106 107 8 31 26 29 46 -6z m-375 -1863 c-3 -7 -5 -2 -5 12 0
14 2 19 5 13 2 -7 2 -19 0 -25z m20 -90 c-3 -7 -5 -2 -5 12 0 14 2 19 5 13 2
-7 2 -19 0 -25z m10 -70 c-3 -7 -5 -2 -5 12 0 14 2 19 5 13 2 -7 2 -19 0 -25z
m13 -38 c0 -11 -2 -20 -4 -20 -2 0 -6 9 -9 20 -3 11 -1 20 4 20 5 0 9 -9 9
-20z m7 -112 c-2 -13 -4 -5 -4 17 -1 22 1 32 4 23 2 -10 2 -28 0 -40z"/>
<path d="M3510 3921 c0 -6 4 -13 10 -16 6 -3 7 1 4 9 -7 18 -14 21 -14 7z"/>
<path d="M5230 4981 c0 -5 25 -9 55 -9 30 0 52 5 49 9 -7 12 -104 11 -104 0z"/>
<path d="M5238 4943 c6 -2 18 -2 25 0 6 3 1 5 -13 5 -14 0 -19 -2 -12 -5z"/>
<path d="M5301 4875 c4 -31 -11 -85 -24 -85 -19 0 16 -20 36 -20 9 0 17 4 17
9 0 5 -9 7 -20 4 -19 -5 -20 -3 -9 21 7 14 16 26 21 26 11 0 0 40 -14 55 -6 7
-9 3 -7 -10z"/>
<path d="M5355 4877 c-5 -12 1 -26 19 -44 19 -19 26 -22 26 -10 0 9 -5 19 -11
22 -6 4 -14 17 -19 29 -7 19 -9 19 -15 3z"/>
<path d="M5391 4874 c0 -11 3 -14 6 -6 3 7 2 16 -1 19 -3 4 -6 -2 -5 -13z"/>
<path d="M2900 4807 c0 -32 -13 -34 -39 -8 -19 19 -19 19 -24 -7 -4 -19 2 -31
20 -46 14 -12 38 -34 55 -49 28 -27 31 -27 44 -10 7 10 14 24 14 30 0 17 -52
51 -57 37 -5 -15 -50 -5 -57 12 -6 17 -5 17 28 4 23 -8 26 -7 32 16 4 14 2 30
-5 37 -8 8 -11 4 -11 -16z"/>
<path d="M4905 4810 c-3 -5 -1 -10 4 -10 6 0 11 5 11 10 0 6 -2 10 -4 10 -3 0
-8 -4 -11 -10z"/>
<path d="M4955 4810 c-3 -5 -1 -10 4 -10 6 0 11 5 11 10 0 6 -2 10 -4 10 -3 0
-8 -4 -11 -10z"/>
<path d="M2796 4801 c-4 -7 -5 -15 -2 -18 9 -9 19 4 14 18 -4 11 -6 11 -12 0z"/>
<path d="M5350 4798 c0 -9 5 -20 10 -23 13 -8 13 5 0 25 -8 13 -10 13 -10 -2z"/>
<path d="M5280 4750 c0 -5 12 -10 26 -10 14 0 23 4 19 10 -3 6 -15 10 -26 10
-10 0 -19 -4 -19 -10z"/>
<path d="M4830 4650 c0 -5 5 -10 10 -10 6 0 10 5 10 10 0 6 -4 10 -10 10 -5 0
-10 -4 -10 -10z"/>
<path d="M4650 4630 c0 -5 5 -10 11 -10 5 0 7 5 4 10 -3 6 -8 10 -11 10 -2 0
-4 -4 -4 -10z"/>
<path d="M4615 4540 c-3 -5 -1 -10 4 -10 6 0 11 5 11 10 0 6 -2 10 -4 10 -3 0
-8 -4 -11 -10z"/>
<path d="M4563 4474 c-22 -24 -36 -44 -30 -44 13 0 77 69 77 82 0 12 -1 11
-47 -38z"/>
<path d="M4720 4509 c0 -5 5 -7 10 -4 6 3 10 8 10 11 0 2 -4 4 -10 4 -5 0 -10
-5 -10 -11z"/>
<path d="M4690 4474 c0 -10 -6 -14 -15 -10 -8 3 -15 1 -15 -3 0 -17 25 -18 37
-2 15 20 16 31 3 31 -5 0 -10 -7 -10 -16z"/>
<path d="M4560 4415 c0 -3 9 -16 20 -27 16 -17 23 -19 32 -10 16 16 28 15 28
-3 0 -8 -7 -15 -15 -15 -8 0 -15 -4 -15 -9 0 -18 15 -19 35 -5 27 20 8 50 -29
46 -18 -2 -26 2 -26 13 0 8 -7 15 -15 15 -8 0 -15 -2 -15 -5z"/>
<path d="M4660 4410 c0 -5 5 -10 11 -10 5 0 7 5 4 10 -3 6 -8 10 -11 10 -2 0
-4 -4 -4 -10z"/>
<path d="M4083 4183 c-7 -3 -13 -14 -12 -26 0 -15 2 -17 6 -7 3 8 11 18 17 22
13 9 5 17 -11 11z"/>
<path d="M4078 4108 c5 -5 16 -8 23 -6 8 3 3 7 -10 11 -17 4 -21 3 -13 -5z"/>
<path d="M3784 4047 c3 -10 6 -25 6 -33 0 -8 5 -14 10 -14 15 0 12 22 -7 45
-14 18 -15 18 -9 2z"/>
<path d="M3760 3985 c0 -8 4 -15 10 -15 5 0 7 7 4 15 -4 8 -8 15 -10 15 -2 0
-4 -7 -4 -15z"/>
<path d="M1131 3957 c2 -1 15 -11 29 -22 l25 -20 -19 23 c-11 12 -24 22 -29
22 -6 0 -8 -1 -6 -3z"/>
<path d="M3726 3951 c-4 -7 -5 -15 -2 -18 9 -9 19 4 14 18 -4 11 -6 11 -12 0z"/>
<path d="M3775 3930 c-3 -5 3 -10 14 -10 12 0 21 5 21 10 0 6 -6 10 -14 10 -8
0 -18 -4 -21 -10z"/>
<path d="M3780 3899 c0 -5 5 -7 10 -4 6 3 10 8 10 11 0 2 -4 4 -10 4 -5 0 -10
-5 -10 -11z"/>
<path d="M3680 3885 c0 -8 4 -15 10 -15 5 0 7 7 4 15 -4 8 -8 15 -10 15 -2 0
-4 -7 -4 -15z"/>
<path d="M1325 3869 c-69 -27 -88 -46 -103 -104 -15 -55 -36 -83 -100 -127
-38 -26 -43 -33 -37 -57 24 -91 21 -204 -6 -272 -11 -29 -76 -96 -84 -88 -6 7
18 59 28 59 4 0 7 9 7 20 0 25 -18 26 -27 3 -4 -10 -14 -23 -22 -30 -14 -11
-14 -12 2 -13 10 0 15 -5 12 -10 -4 -6 -10 -8 -15 -5 -5 3 -18 1 -30 -5 -11
-5 -29 -14 -40 -20 -10 -5 -27 -7 -37 -3 -17 6 -17 6 -1 -10 20 -21 32 -21 51
-3 18 19 49 24 54 10 8 -25 -118 -47 -132 -24 -3 6 -15 10 -26 10 -10 0 -19 5
-19 11 0 8 -5 7 -15 -1 -9 -7 -13 -21 -10 -30 6 -18 -45 -70 -69 -70 -6 0 -29
-9 -51 -20 -22 -11 -52 -20 -67 -20 -21 0 -28 -5 -28 -20 0 -11 -4 -20 -10
-20 -5 0 -10 -5 -10 -11 0 -6 6 -9 14 -6 18 7 27 -35 16 -72 l-8 -26 -1 27
c-1 32 -21 49 -21 18 0 -18 -2 -19 -22 -8 -20 10 -21 13 -5 16 20 4 23 42 3
42 -8 0 -16 -6 -19 -13 -3 -9 -16 -12 -36 -9 -35 5 -81 -4 -81 -17 0 -4 21 -7
48 -5 45 4 47 3 49 -24 1 -27 -14 -45 -30 -35 -5 3 -5 8 1 12 7 4 8 12 1 21
-8 13 -11 13 -22 -1 -22 -28 -45 -29 -89 -4 -53 30 -114 32 -169 6 l-40 -20
-8 22 c-5 12 -12 36 -15 54 -7 31 -74 103 -96 103 -6 0 -10 -50 -10 -129 l0
-129 38 -6 c50 -9 101 -37 108 -59 4 -12 -2 -26 -15 -38 -24 -23 -31 -24 -31
-4 0 22 -13 18 -40 -10 -13 -14 -32 -25 -42 -25 -16 0 -18 -10 -18 -120 0 -69
4 -120 10 -120 5 0 13 -16 19 -35 10 -36 -1 -99 -19 -110 -6 -4 -10 -85 -10
-197 0 -162 2 -189 14 -179 8 6 20 26 27 44 7 18 13 33 15 35 1 2 20 -2 41 -8
43 -13 70 -57 54 -88 -5 -10 -14 -29 -19 -44 -14 -35 -55 -61 -98 -62 l-34 -1
0 -137 c0 -103 3 -138 13 -139 20 -1 127 -154 127 -182 0 -30 18 -45 26 -23 9
22 41 20 54 -4 8 -15 6 -21 -10 -30 -11 -6 -25 -8 -31 -5 -15 10 -39 -15 -39
-41 0 -14 -4 -32 -10 -42 -13 -23 -29 -195 -20 -206 14 -15 30 4 30 35 0 16 6
30 13 30 6 1 40 2 74 3 89 2 84 20 -7 26 l-75 5 3 30 c2 16 5 31 6 32 2 2 17
-4 35 -13 42 -21 66 -5 49 32 -7 14 -17 23 -24 20 -6 -2 -17 1 -23 7 -9 9 -14
8 -21 -3 -7 -11 -10 -7 -10 17 0 37 14 50 35 33 11 -9 15 -9 15 -1 0 20 27 12
33 -10 4 -15 11 -19 25 -15 11 4 24 0 32 -9 14 -16 134 -99 189 -130 40 -22
48 -50 33 -106 -8 -30 -12 -34 -41 -31 -38 3 -46 -12 -37 -72 6 -36 11 -45 29
-48 24 -3 24 0 16 -140 -2 -38 -7 -68 -11 -68 -5 0 -8 -8 -8 -17 0 -10 -7 -27
-15 -37 -10 -13 -13 -32 -9 -57 5 -27 0 -49 -18 -85 -17 -34 -22 -57 -17 -74
11 -40 10 -50 -6 -50 -9 0 -18 -7 -21 -15 -4 -8 -16 -15 -29 -15 -18 0 -24 -7
-29 -38 -10 -64 -8 -75 14 -69 15 4 20 0 20 -13 0 -11 -5 -22 -10 -25 -6 -3
-10 -15 -10 -26 0 -38 -34 -16 -62 40 -20 40 -25 58 -18 72 8 13 6 20 -6 27
-14 8 -14 10 0 21 20 17 20 35 0 56 -15 15 -16 18 -1 32 15 15 15 19 -1 45
-21 35 -45 36 -67 1 -13 -20 -15 -31 -7 -43 9 -15 6 -17 -26 -16 -49 1 -98
-34 -107 -75 -4 -19 -15 -33 -26 -36 -15 -4 -19 -15 -19 -49 0 -40 2 -44 24
-44 21 0 25 5 28 38 3 35 5 37 37 35 20 -1 38 -8 43 -17 5 -9 25 -23 44 -31
26 -11 34 -20 34 -39 0 -23 -3 -24 -35 -19 -23 4 -35 2 -35 -6 0 -6 4 -11 9
-11 5 0 11 -6 14 -14 4 -9 0 -12 -12 -9 -9 2 -28 -4 -41 -15 -21 -17 -22 -22
-11 -36 12 -14 63 -16 487 -16 415 0 474 2 474 15 0 10 10 15 26 15 22 0 25
-2 14 -15 -11 -13 1 -15 99 -15 87 0 111 3 111 14 0 9 -21 15 -72 20 -40 4
-77 11 -82 16 -6 6 -29 10 -53 10 -33 0 -41 3 -37 14 3 8 13 17 22 19 10 3
-11 5 -45 6 -55 1 -62 3 -65 22 -2 12 -11 27 -20 33 -14 8 -23 5 -45 -16 -27
-26 -102 -62 -110 -54 -2 2 1 23 7 46 13 50 8 60 -20 35 l-21 -19 3 59 c3 69
18 79 74 49 l33 -18 21 27 c12 15 30 27 40 27 27 0 32 15 11 34 -10 10 -35 17
-57 17 -120 -1 -116 -4 -109 109 2 41 5 253 5 470 l1 395 59 60 c77 81 133
169 172 272 l32 84 70 37 c88 45 185 139 212 204 16 40 26 50 66 67 97 40 158
113 158 189 0 44 21 41 55 -8 33 -48 105 -103 157 -119 46 -15 92 2 131 48 55
66 45 147 -28 229 -25 27 -45 52 -45 55 0 2 29 7 65 9 112 9 166 58 173 156 6
80 -21 141 -77 177 l-42 26 27 46 c53 89 27 175 -64 215 -32 14 -56 18 -83 14
-22 -3 -39 -4 -39 0 0 3 12 26 28 52 24 41 27 57 27 132 0 98 -14 133 -72 177
-24 19 -52 29 -87 33 l-51 5 3 40 c4 47 -24 92 -61 97 -14 2 -21 9 -18 18 23
86 24 104 12 148 -7 26 -20 55 -29 66 -43 48 -133 58 -217 25z m129 -19 c49
-18 43 -107 -11 -168 -40 -43 -62 -51 -110 -42 -73 13 -102 70 -66 128 47 75
121 107 187 82z m-160 -316 c10 -14 16 -32 14 -41 -4 -22 -28 -29 -28 -9 0 9
-4 16 -10 16 -5 0 -10 -13 -10 -29 0 -17 -6 -31 -16 -35 -15 -6 -15 -8 1 -26
10 -11 15 -23 11 -28 -14 -13 -46 39 -46 75 0 46 28 103 50 103 10 0 25 -12
34 -26z m5 -106 c1 6 6 12 12 12 13 0 1 -42 -15 -52 -13 -9 -29 40 -20 62 5
11 9 9 14 -10 5 -14 8 -19 9 -12z m396 -4 c27 -29 33 -75 12 -92 -10 -9 -27 2
-70 42 -31 30 -57 56 -57 59 0 7 29 14 63 16 18 1 36 -8 52 -25z m-109 -56
c16 -18 27 -39 26 -45 -2 -7 2 -13 8 -13 13 0 13 -55 0 -80 -12 -22 -67 -37
-83 -21 -8 8 -7 11 5 11 42 0 15 100 -31 115 -25 8 -27 22 -4 47 24 26 46 22
79 -14z m-316 -128 c26 -14 60 -73 60 -105 0 -28 0 -28 -21 -9 -12 10 -25 28
-29 39 -5 14 -10 -2 -14 -50 -4 -38 -9 -80 -12 -92 -2 -13 0 -23 6 -23 5 0 10
8 10 18 0 13 2 14 9 4 5 -8 24 -12 49 -11 41 3 42 4 42 37 0 30 2 33 15 22 8
-7 15 -18 15 -25 0 -8 6 -15 12 -17 8 -3 1 -16 -19 -37 -27 -27 -36 -30 -53
-21 -27 14 -25 4 6 -41 62 -90 19 -149 -139 -188 -40 -10 -73 -23 -73 -29 -1
-7 -2 -16 -3 -22 -2 -18 -60 -40 -107 -40 -44 0 -46 -1 -40 -25 4 -14 0 -40
-8 -58 -26 -63 -104 -70 -141 -13 l-17 25 -26 -19 c-50 -36 -78 -36 -112 0
-24 26 -28 37 -23 58 12 41 6 92 -11 111 -9 10 -16 22 -16 28 0 12 60 43 82
43 24 0 27 10 12 38 -25 48 -9 145 26 167 54 33 144 18 213 -36 33 -27 37 -28
37 -11 0 26 23 44 46 36 26 -9 64 -45 59 -54 -8 -13 128 10 142 23 8 8 -44 20
-56 13 -15 -10 -58 14 -71 40 -25 45 8 143 68 207 27 28 51 34 82 17z m276
-222 c70 -62 96 -168 52 -215 -12 -13 -29 -23 -37 -23 -32 0 -78 39 -99 84
-28 59 -31 160 -4 175 29 17 50 12 88 -21z m-396 -69 c0 -6 -7 -8 -16 -5 -9 3
-18 6 -20 6 -2 0 -4 7 -4 15 0 13 4 14 20 5 11 -6 20 -16 20 -21z m-740 -74
c0 -8 -2 -15 -4 -15 -2 0 -6 7 -10 15 -3 8 -1 15 4 15 6 0 10 -7 10 -15z m123
-53 c-3 -12 -9 -22 -14 -22 -12 0 -11 7 3 30 15 24 19 21 11 -8z m-93 -22
c-20 -13 -40 -13 -40 0 0 6 12 10 28 10 21 0 24 -2 12 -10z m-241 -125 c-1
-12 -5 -7 -10 13 -5 17 -14 32 -19 32 -6 0 -10 10 -10 23 1 19 4 17 20 -13 11
-19 19 -44 19 -55z m201 36 c0 -5 -7 -12 -16 -15 -14 -5 -15 -4 -4 9 14 17 20
19 20 6z m-200 -82 c0 -11 -4 -18 -10 -14 -5 3 -7 12 -3 20 7 21 13 19 13 -6z
m966 -520 c16 -17 46 -42 67 -55 20 -13 37 -28 37 -32 0 -4 -23 -33 -50 -64
-45 -51 -97 -88 -122 -88 -11 0 1 228 14 253 12 24 20 22 54 -14z m-611 -136
c8 -114 3 -133 -28 -106 -22 20 -97 131 -97 144 0 5 12 15 28 23 15 8 38 24
51 35 14 12 28 18 32 14 4 -5 11 -54 14 -110z m-161 -48 c24 -49 69 -124 99
-166 85 -118 81 -103 74 -289 -8 -190 -11 -210 -39 -210 -60 0 -262 133 -264
174 -1 35 -12 46 -45 46 -32 0 -37 14 -13 45 15 20 15 20 30 1 7 -11 16 -17
19 -14 11 11 -8 39 -36 54 -28 14 -39 34 -19 34 6 0 10 7 10 15 0 20 17 19 29
-2 5 -10 12 -15 15 -12 12 12 -6 37 -39 55 -33 17 -35 17 -54 -1 -25 -22 -26
-33 -5 -56 17 -19 12 -39 -9 -39 -12 0 -68 84 -82 122 -5 12 4 24 33 42 23 14
52 37 65 52 17 18 27 22 32 14 5 -8 11 -6 19 6 15 19 36 11 36 -14 0 -11 3
-13 11 -5 8 8 8 17 -1 33 -9 16 -17 20 -36 16 -26 -7 -34 11 -9 20 8 4 15 17
15 30 0 15 6 24 15 24 18 0 20 17 3 23 -10 3 -10 7 1 20 9 11 11 28 7 49 -5
27 -2 35 21 54 l28 22 23 -26 c12 -15 42 -67 66 -117z m576 32 c0 -42 -46
-184 -85 -263 -47 -94 -100 -160 -109 -133 -4 13 -28 273 -30 329 -1 22 4 25
50 32 29 4 74 16 100 27 60 23 74 25 74 8z m-770 -327 c0 -12 -28 -25 -36 -17
-9 9 6 27 22 27 8 0 14 -5 14 -10z m-2 -92 c-3 -7 -11 -13 -18 -13 -7 0 -15 6
-17 13 -3 7 4 12 17 12 13 0 20 -5 18 -12z m52 -88 c0 -5 -7 -10 -15 -10 -8 0
-15 5 -15 10 0 6 7 10 15 10 8 0 15 -4 15 -10z m-5 -1060 c0 -8 -10 -16 -22
-18 -22 -3 -32 16 -16 32 12 11 38 2 38 -14z m192 -12 c-3 -8 -6 -5 -6 6 -1
11 2 17 5 13 3 -3 4 -12 1 -19z m-197 -78 c0 -21 -24 -28 -35 -10 -8 14 3 30
21 30 8 0 14 -9 14 -20z m-60 -14 c5 -13 18 -27 30 -31 26 -8 20 -15 -25 -31
-32 -11 -37 -10 -50 9 -18 26 -19 64 -2 70 25 11 38 6 47 -17z m492 -43 c8
-10 17 -27 20 -39 6 -25 -5 -101 -13 -94 -3 3 -13 -1 -22 -9 -23 -19 -44 0
-57 51 -22 79 28 141 72 91z m-88 -166 c17 -12 16 -14 -8 -25 -27 -12 -42 -2
-32 23 7 18 17 19 40 2z"/>
<path d="M1384 3734 c3 -8 6 -18 6 -20 0 -2 5 -4 10 -4 16 0 11 27 -6 34 -12
5 -15 2 -10 -10z"/>
<path d="M1365 3660 c-3 -6 1 -7 9 -4 18 7 21 14 7 14 -6 0 -13 -4 -16 -10z"/>
<path d="M1260 2970 c0 -12 8 -12 35 0 18 8 17 9 -7 9 -16 1 -28 -3 -28 -9z"/>
<path d="M192 1720 c-14 -24 -32 -26 -32 -5 0 8 -5 15 -11 15 -6 0 -9 -10 -7
-22 4 -32 42 -36 61 -7 18 24 47 20 47 -8 0 -12 3 -14 11 -6 16 16 -7 53 -34
53 -12 0 -28 -9 -35 -20z"/>
<path d="M1201 3854 c0 -11 3 -14 6 -6 3 7 2 16 -1 19 -3 4 -6 -2 -5 -13z"/>
<path d="M3630 3820 c0 -5 5 -10 10 -10 6 0 10 5 10 10 0 6 -4 10 -10 10 -5 0
-10 -4 -10 -10z"/>
<path d="M3453 3704 c-10 -9 -12 -13 -5 -9 6 3 12 1 12 -5 0 -6 5 -8 10 -5 6
3 10 1 10 -5 0 -17 17 -3 22 18 6 23 -23 26 -49 6z"/>
<path d="M3410 3681 c0 -6 5 -13 10 -16 6 -3 10 1 10 9 0 9 -4 16 -10 16 -5 0
-10 -4 -10 -9z"/>
<path d="M3465 3650 c-3 -5 1 -10 9 -10 9 0 16 5 16 10 0 6 -4 10 -9 10 -6 0
-13 -4 -16 -10z"/>
<path d="M1950 3539 c0 -5 5 -7 10 -4 6 3 10 8 10 11 0 2 -4 4 -10 4 -5 0 -10
-5 -10 -11z"/>
<path d="M1060 3468 c0 -9 -7 -24 -16 -32 -8 -9 -12 -21 -9 -27 4 -6 15 2 27
22 14 22 16 35 9 42 -8 8 -11 6 -11 -5z"/>
<path d="M991 3354 c-12 -9 -19 -20 -15 -25 3 -6 11 -3 18 7 17 22 34 11 44
-29 8 -31 9 -31 13 -7 4 17 -2 32 -17 47 -20 20 -24 20 -43 7z"/>
<path d="M928 3311 c-16 -9 -28 -19 -28 -23 0 -14 27 -8 40 7 11 13 15 13 21
3 7 -10 9 -9 9 4 0 25 -11 27 -42 9z"/>
<path d="M805 3290 c3 -5 21 -10 38 -9 27 0 29 2 12 9 -28 12 -57 12 -50 0z"/>
<path d="M870 3270 c-9 -6 -10 -10 -3 -10 6 0 15 5 18 10 8 12 4 12 -15 0z"/>
<path d="M740 3260 c0 -5 7 -10 15 -10 8 0 15 5 15 10 0 6 -7 10 -15 10 -8 0
-15 -4 -15 -10z"/>
<path d="M875 3240 c3 -5 13 -10 21 -10 8 0 14 5 14 10 0 6 -9 10 -21 10 -11
0 -17 -4 -14 -10z"/>
<path d="M625 3141 c-3 -5 -1 -12 5 -16 5 -3 10 1 10 9 0 18 -6 21 -15 7z"/>
<path d="M17547 3133 c-3 -5 9 -15 27 -21 45 -17 61 -37 85 -107 16 -48 18
-69 11 -100 -14 -60 -13 -65 20 -65 l30 0 0 135 0 135 -26 11 c-40 14 -140 23
-147 12z"/>
<path d="M438 3073 c23 -15 42 -34 42 -43 0 -13 2 -13 9 -1 6 9 5 18 -2 25
-21 20 -66 46 -79 46 -6 0 7 -12 30 -27z"/>
<path d="M348 2993 c7 -3 16 -2 19 1 4 3 -2 6 -13 5 -11 0 -14 -3 -6 -6z"/>
<path d="M375 2940 c-3 -5 -2 -10 4 -10 5 0 13 5 16 10 3 6 2 10 -4 10 -5 0
-13 -4 -16 -10z"/>
<path d="M16860 2933 c0 -6 8 -17 18 -24 16 -13 16 -13 2 6 -8 11 -16 22 -17
24 -2 2 -3 0 -3 -6z"/>
<path d="M17590 2809 c0 -5 11 -9 25 -9 14 0 25 2 25 4 0 2 -11 6 -25 8 -14 3
-25 1 -25 -3z"/>
<path d="M102 2776 c7 -8 15 -12 17 -11 5 6 -10 25 -20 25 -5 0 -4 -6 3 -14z"/>
<path d="M17660 2783 c0 -5 12 -19 25 -32 28 -26 34 -12 8 19 -18 20 -33 26
-33 13z"/>
<path d="M17676 2565 c-54 -48 -133 -51 -210 -8 -28 15 -29 15 -23 -1 4 -10 7
-22 7 -27 0 -5 7 -9 15 -9 17 0 20 -16 5 -25 -5 -3 -17 6 -26 20 -13 20 -19
23 -25 13 -5 -7 -4 -17 1 -22 6 -6 10 -33 10 -61 0 -40 -6 -61 -30 -96 -34
-51 -111 -107 -166 -120 -45 -10 -124 9 -163 40 l-25 19 -22 -49 c-31 -67 -78
-133 -107 -152 -49 -32 -72 -31 -111 3 -20 18 -36 39 -36 47 0 8 -5 11 -11 7
-22 -13 9 162 34 194 5 7 7 15 4 18 -11 12 -57 -105 -63 -162 -12 -112 25
-164 116 -164 23 0 55 7 73 16 34 18 92 73 117 113 l16 23 31 -26 c17 -14 36
-26 42 -26 6 0 11 -14 11 -30 0 -66 58 -138 122 -154 22 -5 35 -22 67 -90 72
-149 150 -227 283 -280 114 -45 108 -52 108 135 0 88 -5 169 -10 179 -7 13 -7
21 0 25 6 4 10 77 10 189 l0 182 -58 -4 c-56 -4 -60 -3 -85 28 -51 60 -46 118
14 158 27 19 43 23 82 19 l47 -4 0 58 c0 33 -1 59 -2 59 -2 -1 -20 -16 -42
-35z m-111 -75 c3 -5 -1 -10 -10 -10 -9 0 -13 5 -10 10 3 6 8 10 10 10 2 0 7
-4 10 -10z m-490 -250 c3 -5 1 -10 -4 -10 -6 0 -11 5 -11 10 0 6 2 10 4 10 3
0 8 -4 11 -10z m50 -61 c4 -6 4 -13 0 -17 -4 -4 -10 -1 -12 6 -3 6 -9 10 -14
6 -5 -3 -9 0 -9 5 0 14 27 14 35 0z m-345 -102 c0 -4 -7 -2 -15 7 -8 8 -15 21
-15 28 1 14 30 -20 30 -35z m676 -146 c30 -36 82 -61 126 -61 32 0 34 -2 56
-67 55 -164 54 -173 -19 -148 -101 36 -193 123 -238 228 -20 47 -18 56 19 70
26 10 31 8 56 -22z"/>
<path d="M16736 2560 c3 -14 14 -36 23 -50 21 -29 98 -73 106 -60 3 5 -5 12
-17 15 -38 12 -88 54 -103 88 -11 25 -13 26 -9 7z"/>
<path d="M14487 1324 c-3 -4 -4 -18 -2 -33 2 -14 7 -69 10 -122 6 -89 16 -131
30 -118 5 5 -22 270 -29 276 -1 2 -5 0 -9 -3z"/>
<path d="M5624 1293 c3 -16 8 -71 11 -124 7 -89 17 -131 29 -119 3 3 1 39 -4
80 -5 41 -12 101 -15 133 -4 31 -11 57 -16 57 -5 0 -7 -12 -5 -27z"/>
<path d="M3053 1298 c-18 -21 -31 -257 -16 -270 18 -15 21 -2 31 142 9 124 5
153 -15 128z"/>
<path d="M11912 1297 c-16 -19 -32 -260 -19 -269 20 -13 25 2 31 100 4 53 9
116 12 140 5 42 -4 53 -24 29z"/>
<path d="M9546 1274 c-3 -9 -6 -67 -6 -130 0 -95 3 -114 15 -114 13 0 15 20
15 124 0 115 -9 159 -24 120z"/>
<path d="M4461 1266 c-17 -20 -11 -248 7 -254 9 -3 12 28 12 132 0 75 -2 136
-4 136 -2 0 -9 -6 -15 -14z"/>
<path d="M13321 1266 c-16 -19 -11 -248 6 -253 9 -3 13 31 15 127 2 73 0 134
-3 136 -4 2 -12 -2 -18 -10z"/>
<path d="M7761 1213 c1 -90 13 -156 28 -161 10 -3 12 6 7 44 -3 27 -8 77 -12
112 -8 78 -24 81 -23 5z"/>
<path d="M16620 1216 c0 -29 3 -68 6 -85 8 -39 35 -43 29 -3 -2 15 -7 53 -10
85 -8 72 -25 75 -25 3z"/>
<path d="M1922 1248 c-7 -7 -12 -23 -12 -37 0 -15 -5 -61 -12 -103 -10 -68 -8
-101 6 -87 7 6 38 230 34 235 -3 2 -10 -2 -16 -8z"/>
<path d="M10783 1245 c-13 -26 -38 -214 -29 -222 11 -12 15 3 31 110 17 111
16 148 -2 112z"/>
<path d="M2386 1223 c-3 -10 -2 -58 2 -108 6 -75 10 -90 25 -93 14 -3 17 1 13
20 -3 13 -8 62 -11 111 -6 82 -17 109 -29 70z"/>
<path d="M6870 1225 c-7 -9 -15 -42 -17 -73 -1 -31 -5 -74 -8 -94 -5 -35 7
-59 19 -39 7 11 28 213 22 218 -2 2 -9 -4 -16 -12z"/>
<path d="M7296 1225 c-16 -42 -1 -198 18 -192 7 3 10 35 8 98 -4 92 -13 127
-26 94z"/>
<path d="M8535 1228 c-12 -34 -31 -204 -24 -212 12 -14 25 29 33 109 4 39 9
80 13 93 5 23 -14 32 -22 10z"/>
<path d="M11245 1219 c-6 -18 -3 -63 11 -161 3 -22 11 -38 19 -38 13 0 13 1
-1 153 -6 67 -17 85 -29 46z"/>
<path d="M15730 1225 c-7 -9 -15 -42 -17 -73 -1 -31 -5 -74 -8 -94 -6 -40 9
-59 23 -31 9 17 25 213 18 213 -2 0 -9 -7 -16 -15z"/>
<path d="M16154 1214 c-7 -25 3 -174 12 -183 16 -16 22 26 17 112 -6 95 -16
122 -29 71z"/>
<path d="M17395 1228 c-2 -7 -9 -55 -15 -107 -10 -84 -8 -113 4 -100 4 3 36
199 36 216 0 9 -21 1 -25 -9z"/>
<path d="M8985 1208 c-11 -50 -22 -193 -15 -201 16 -18 28 24 34 121 5 67 3
102 -3 102 -6 0 -13 -10 -16 -22z"/>
<path d="M1210 1198 c-23 -22 -28 -178 -7 -178 12 0 17 18 22 73 4 40 5 84 3
97 -3 21 -5 22 -18 8z"/>
<path d="M10072 1201 c-8 -5 -15 -40 -19 -94 -5 -75 -4 -87 10 -87 12 0 17 16
22 73 8 89 5 120 -13 108z"/>
<path d="M3752 1187 c-8 -9 -32 -149 -32 -184 0 -2 9 -3 19 -3 16 0 21 9 26
58 3 31 8 76 10 100 5 42 -4 53 -23 29z"/>
<path d="M12612 1187 c-8 -9 -32 -149 -32 -184 0 -2 8 -3 19 -3 21 0 25 16 37
133 6 66 -1 82 -24 54z"/>
<path d="M4980 1100 c0 -27 5 -50 10 -50 6 0 10 23 10 50 0 28 -4 50 -10 50
-5 0 -10 -22 -10 -50z"/>
<path d="M13847 1143 c-11 -10 -8 -113 3 -113 6 0 10 27 10 60 0 61 -1 65 -13
53z"/>
<path d="M5523 1050 c-6 -23 -16 -25 -45 -9 -11 6 -22 8 -25 6 -2 -3 -1 -31 2
-62 6 -45 12 -58 29 -65 12 -4 42 -17 66 -28 25 -11 55 -23 67 -27 32 -9 37
-38 12 -79 -20 -34 -20 -36 -2 -42 37 -11 48 -21 58 -52 5 -18 13 -32 17 -32
11 0 10 36 -1 118 -6 37 -13 92 -16 123 l-6 57 -75 28 c-41 16 -74 32 -74 35
0 4 9 9 20 12 13 3 18 10 14 21 -9 22 -35 20 -41 -4z"/>
<path d="M14387 1063 c-14 -13 -7 -33 11 -33 26 0 34 11 21 27 -13 14 -22 16
-32 6z"/>
<path d="M14311 1013 c2 -73 9 -82 94 -119 111 -48 114 -52 84 -109 -13 -26
-50 -71 -81 -100 -45 -42 -58 -61 -58 -83 0 -25 5 -30 41 -41 32 -10 44 -20
55 -47 12 -29 27 -41 81 -65 36 -16 67 -28 69 -26 4 3 -44 470 -52 512 -2 13
-20 27 -51 39 -26 11 -76 32 -111 48 -34 15 -65 28 -67 28 -3 0 -5 -17 -4 -37z"/>
<path d="M7677 1023 c-14 -13 -6 -33 13 -33 13 0 20 7 20 20 0 19 -20 27 -33
13z"/>
<path d="M185 1001 c5 -16 0 -20 -27 -23 -42 -4 -54 -38 -14 -38 16 0 26 -6
26 -14 0 -8 7 -22 17 -31 15 -15 15 -19 0 -44 -27 -47 12 -78 64 -51 23 13 24
28 2 52 -15 17 -15 19 0 36 21 23 22 81 2 88 -12 5 -12 8 2 22 12 13 13 17 2
21 -7 2 -15 -1 -17 -7 -5 -15 -42 -16 -42 -2 0 6 -5 10 -11 10 -6 0 -8 -8 -4
-19z m59 -60 c9 -14 -4 -41 -19 -41 -18 0 -28 17 -21 35 6 17 32 20 40 6z m0
-106 c3 -9 -1 -18 -10 -22 -19 -7 -39 11 -30 26 10 16 33 13 40 -4z"/>
<path d="M6267 1013 c-4 -3 -7 -19 -7 -35 0 -40 24 -31 28 10 3 30 -6 41 -21
25z"/>
<path d="M15127 1013 c-4 -3 -7 -19 -7 -35 0 -40 24 -31 28 10 3 30 -6 41 -21
25z"/>
<path d="M2913 1003 c-21 -8 -15 -33 7 -33 13 0 20 7 20 20 0 20 -5 23 -27 13z"/>
<path d="M9417 999 c-25 -14 -21 -29 8 -29 15 0 25 6 25 14 0 21 -12 26 -33
15z"/>
<path d="M11773 1003 c-21 -8 -15 -33 7 -33 13 0 20 7 20 20 0 20 -5 23 -27
13z"/>
<path d="M1765 990 c-4 -7 -3 -16 3 -22 14 -14 45 -2 40 15 -6 16 -34 21 -43
7z"/>
<path d="M8387 994 c-16 -16 -6 -35 16 -32 12 2 22 10 22 18 0 16 -26 25 -38
14z"/>
<path d="M10625 990 c-4 -7 -3 -16 3 -22 14 -14 45 -2 40 15 -6 16 -34 21 -43
7z"/>
<path d="M17247 985 c-7 -16 8 -29 23 -20 15 9 12 35 -4 35 -8 0 -16 -7 -19
-15z"/>
<path d="M4313 983 c-20 -7 -15 -33 6 -33 11 0 22 4 25 9 8 12 -16 29 -31 24z"/>
<path d="M6723 983 c-23 -9 -15 -35 10 -31 12 2 22 9 22 17 0 16 -14 22 -32
14z"/>
<path d="M7194 975 c-4 -9 -3 -19 0 -23 9 -8 42 12 39 24 -4 16 -33 16 -39 -1z"/>
<path d="M13167 983 c-14 -13 -6 -33 13 -33 13 0 20 7 20 20 0 19 -20 27 -33
13z"/>
<path d="M15583 983 c-23 -9 -15 -35 10 -31 12 2 22 9 22 17 0 16 -14 22 -32
14z"/>
<path d="M16054 975 c-4 -9 -3 -19 0 -23 9 -8 42 12 39 24 -4 16 -33 16 -39
-1z"/>
<path d="M1050 970 c-11 -7 -12 -12 -3 -21 14 -14 46 -4 41 13 -6 16 -20 19
-38 8z"/>
<path d="M9910 970 c-11 -7 -12 -12 -3 -21 14 -14 46 -4 41 13 -6 16 -20 19
-38 8z"/>
<path d="M2290 955 c-9 -11 -10 -19 -2 -27 14 -14 32 -1 32 23 0 23 -13 25
-30 4z"/>
<path d="M7570 927 c0 -23 4 -47 8 -53 4 -7 47 -13 107 -16 l100 -4 3 -45 c3
-39 -3 -54 -37 -106 -23 -33 -57 -71 -76 -84 -38 -26 -43 -40 -20 -59 8 -7 15
-19 15 -27 0 -11 4 -11 21 -2 12 6 30 9 40 6 26 -7 24 10 -2 24 -15 8 -24 8
-32 0 -15 -15 -27 -14 -27 3 0 8 11 17 24 20 27 7 56 -1 56 -15 0 -15 18 -10
22 6 2 10 8 12 17 6 11 -7 10 -14 -8 -39 -11 -17 -21 -33 -21 -36 0 -9 78 -7
84 2 4 7 -2 87 -28 342 l-11 115 -118 2 -117 3 0 -43z"/>
<path d="M11152 958 c-18 -18 -15 -28 8 -28 13 0 20 7 20 20 0 23 -10 26 -28
8z"/>
<path d="M11653 955 c-2 -7 -3 -28 -1 -46 l3 -34 99 -12 c55 -7 104 -17 109
-22 6 -6 6 -43 -1 -103 l-10 -93 -60 -56 c-39 -37 -80 -64 -114 -77 -52 -19
-53 -20 -56 -65 l-3 -45 108 -8 c176 -13 184 -12 221 19 18 15 42 27 52 27 29
0 24 16 -8 29 -22 9 -35 9 -55 0 -15 -7 -29 -10 -32 -7 -12 12 -9 285 5 391
10 83 7 86 -60 87 -25 1 -78 7 -118 14 -59 11 -75 11 -79 1z"/>
<path d="M13739 954 c-11 -14 -11 -18 5 -30 17 -12 17 -13 -10 -19 -63 -14
-74 -23 -74 -59 0 -42 9 -49 46 -37 16 5 49 12 73 15 l43 7 -3 -79 c-3 -58 -9
-83 -21 -96 -21 -21 -24 -56 -4 -56 9 0 12 -7 9 -20 -7 -26 -23 -26 -23 -1 0
29 -15 33 -35 11 -10 -11 -23 -20 -29 -20 -6 0 -24 -10 -39 -23 -22 -17 -29
-33 -34 -75 l-6 -54 94 7 c52 4 110 11 129 15 19 5 60 11 90 15 139 15 352 71
238 63 -28 -3 -34 1 -36 20 -5 31 -45 55 -82 50 -24 -4 -36 2 -60 29 -34 37
-42 39 -60 18 -9 -11 -9 -22 -2 -44 11 -30 1 -51 -24 -51 -7 0 -19 -9 -27 -20
-9 -13 -20 -18 -30 -14 -24 9 -31 98 -19 267 6 84 7 156 2 160 -4 5 -17 4 -28
-2 -33 -18 -52 -14 -49 10 3 28 -16 35 -34 13z m31 -410 c0 -10 -6 -14 -14
-11 -23 9 -25 -15 -5 -42 23 -29 24 -41 4 -41 -8 0 -15 5 -15 10 0 7 -6 7 -18
1 -15 -8 -18 -6 -17 12 3 41 17 76 33 80 30 8 32 7 32 -9z"/>
<path d="M16430 928 c0 -24 4 -48 8 -55 6 -10 77 -16 150 -14 30 1 28 10 -13
65 -35 45 -37 46 -90 46 l-55 0 0 -42z"/>
<path d="M21 946 c-8 -10 -9 -16 -1 -21 15 -9 12 -25 -5 -25 -9 0 -15 -9 -15
-24 0 -19 7 -25 34 -30 36 -7 62 -29 52 -45 -3 -5 -2 -20 3 -33 l9 -23 10 25
c5 14 11 53 13 85 l4 60 -45 -3 c-37 -3 -43 -1 -32 9 6 7 12 19 12 26 0 17
-25 17 -39 -1z"/>
<path d="M1636 953 c-3 -3 -6 -19 -6 -34 0 -32 17 -39 148 -61 l74 -12 -6 -66
c-3 -36 -15 -84 -26 -107 -11 -23 -20 -51 -20 -61 0 -11 -8 -23 -17 -26 -10
-4 -31 -14 -48 -23 l-29 -16 22 -15 c12 -8 22 -23 22 -34 0 -29 -45 -68 -78
-68 -38 0 -42 -6 -29 -40 13 -35 19 -38 102 -46 64 -7 65 -7 75 22 6 16 13 59
15 95 2 37 8 100 15 140 41 266 47 315 41 321 -3 4 -51 12 -106 18 -55 6 -109
12 -121 15 -12 3 -24 2 -28 -2z m167 -394 c-6 -6 -9 -19 -5 -28 5 -14 4 -14
-11 1 -23 23 -21 38 5 38 16 0 19 -3 11 -11z m-65 -131 c-3 -7 -13 -15 -24
-17 -16 -3 -17 -1 -5 13 16 19 34 21 29 4z"/>
<path d="M2792 919 l3 -44 92 -11 c134 -17 126 -10 118 -107 -4 -45 -11 -91
-15 -102 -13 -34 -92 -104 -149 -132 -42 -21 -57 -35 -71 -67 -10 -23 -16 -44
-13 -48 6 -11 93 -10 93 0 0 17 90 102 109 102 34 0 45 -25 25 -60 -10 -16
-26 -33 -36 -36 -10 -3 -18 -9 -18 -13 0 -12 73 -22 83 -12 9 9 41 516 34 535
-3 8 -32 16 -69 19 -34 4 -91 9 -126 13 l-63 7 3 -44z"/>
<path d="M8276 944 c-3 -8 -6 -33 -6 -54 0 -30 4 -39 18 -39 16 1 73 -7 120
-17 13 -3 22 -12 22 -23 0 -23 -94 -112 -147 -139 -41 -21 -53 -42 -53 -94 0
-35 31 -38 45 -6 6 13 22 29 37 36 24 11 33 11 63 -4 19 -9 47 -30 61 -46 13
-17 26 -29 28 -27 7 7 55 382 51 389 -3 4 -49 13 -102 19 -54 7 -105 14 -114
17 -9 3 -19 -3 -23 -12z"/>
<path d="M8882 948 c-9 -9 -8 -16 3 -28 14 -16 11 -18 -35 -23 -66 -8 -70 -11
-70 -59 l0 -40 33 7 c80 18 122 22 128 13 13 -20 -17 -95 -53 -134 -14 -15
-17 -29 -12 -48 3 -14 9 -26 13 -26 4 0 6 -13 3 -29 -2 -16 1 -32 7 -35 7 -4
11 1 11 13 0 11 11 28 24 39 22 17 25 31 38 158 8 76 13 144 11 151 -3 7 -17
9 -38 6 -31 -5 -32 -4 -28 21 6 28 -13 36 -35 14z"/>
<path d="M9304 945 c-4 -9 -3 -38 2 -63 7 -35 14 -46 29 -47 193 -16 195 -16
195 -37 0 -11 -20 -41 -45 -66 -58 -58 -58 -72 -1 -72 42 0 45 -2 56 -35 6
-19 9 -43 6 -53 -6 -18 18 -62 28 -52 2 3 2 98 -1 211 l-6 206 -106 7 c-58 4
-116 9 -128 13 -16 3 -25 0 -29 -12z"/>
<path d="M10494 945 c-4 -8 -4 -25 0 -38 5 -21 17 -25 112 -42 l106 -19 -6
-65 c-8 -75 -35 -139 -82 -191 l-33 -36 32 -102 c17 -56 36 -101 42 -99 19 7
28 89 16 148 -17 86 -14 117 14 143 21 19 27 41 43 147 11 68 18 127 16 130
-2 4 -50 12 -106 18 -57 7 -113 14 -126 17 -14 3 -25 -1 -28 -11z"/>
<path d="M17136 953 c-3 -3 -6 -26 -6 -50 0 -42 1 -43 33 -43 17 -1 43 -7 57
-15 14 -8 36 -14 49 -15 20 0 23 -4 18 -26 -4 -21 -1 -25 15 -21 14 4 18 1 13
-12 -6 -21 15 -43 31 -33 11 7 35 172 28 184 -3 5 -20 8 -38 8 -29 0 -113 12
-172 25 -12 3 -24 2 -28 -2z"/>
<path d="M3581 937 c-13 -16 -5 -27 21 -27 11 0 18 7 18 20 0 23 -22 27 -39 7z"/>
<path d="M7270 944 c-8 -1 -50 -6 -92 -9 -76 -7 -78 -7 -78 -33 0 -53 11 -73
34 -66 11 3 31 15 43 26 23 21 52 18 73 -7 6 -8 18 -11 27 -8 18 7 33 -13 33
-45 0 -17 5 -23 17 -20 16 3 17 13 14 78 -1 41 -5 78 -8 83 -4 7 -34 8 -63 1z"/>
<path d="M12442 938 c-8 -8 -8 -15 -1 -24 14 -17 39 -6 39 17 0 21 -20 25 -38
7z"/>
<path d="M16130 945 c-8 -2 -50 -7 -94 -10 l-78 -7 5 -44 c2 -25 6 -46 8 -48
2 -1 45 1 94 4 50 4 94 4 99 0 4 -5 7 -41 5 -82 -4 -67 -8 -79 -42 -125 -21
-28 -62 -68 -92 -88 -53 -35 -55 -38 -55 -80 l0 -45 78 7 c161 13 167 14 170
50 4 41 -13 73 -38 73 -12 0 -22 9 -26 24 -7 31 1 46 26 46 10 0 20 4 22 10 2
5 -1 79 -7 162 l-10 153 -25 2 c-14 0 -32 0 -40 -2z"/>
<path d="M4075 929 c-38 -5 -97 -12 -130 -16 l-60 -8 -6 -65 -6 -65 -1 63 c-1
38 -6 62 -13 62 -9 0 -10 -34 -5 -122 3 -68 7 -180 7 -250 l2 -128 151 7 c83
4 222 6 309 4 l157 -2 0 73 c0 44 -5 79 -12 86 -9 9 -9 17 1 34 8 16 11 69 9
168 l-3 144 -40 2 c-59 3 -204 14 -250 18 -22 2 -71 0 -110 -5z m258 -110
c106 -13 122 -23 97 -63 -8 -11 -20 -33 -27 -48 -26 -51 -168 -168 -205 -168
-5 0 -8 68 -8 151 l0 151 23 -5 c12 -3 66 -11 120 -18z m-436 -231 c3 -57 3
-101 0 -98 -7 8 -19 215 -12 208 4 -3 9 -53 12 -110z"/>
<path d="M13048 929 c-2 -6 -1 -30 2 -53 l5 -41 120 -15 c141 -18 144 -21 90
-105 -44 -69 -71 -95 -148 -142 -57 -34 -61 -35 -73 -18 -11 14 -16 16 -28 6
-11 -10 -17 -5 -32 26 -17 34 -23 38 -57 38 -34 0 -39 4 -58 43 -28 55 -61 73
-89 47 -24 -22 -25 -50 -5 -98 19 -47 20 -44 -15 -52 -16 -4 -39 -18 -50 -32
-13 -17 -31 -27 -53 -28 -17 -1 -39 -5 -48 -9 -11 -5 -18 -2 -21 11 -7 27 0
196 13 296 6 49 8 91 5 94 -7 8 -280 -17 -289 -27 -5 -4 -7 -18 -5 -31 3 -23
5 -24 115 -26 62 0 117 -4 123 -8 7 -4 9 -24 5 -51 -3 -24 -8 -65 -11 -90 -4
-35 -13 -54 -37 -76 -47 -43 -109 -76 -168 -92 -50 -12 -79 -36 -45 -36 10 0
16 -9 16 -25 0 -21 -4 -24 -22 -20 -20 5 -26 -1 -41 -39 -10 -25 -25 -50 -32
-56 -13 -11 -115 -22 -197 -21 -21 0 -38 -4 -38 -9 0 -6 8 -10 19 -10 10 0 23
-6 28 -12 14 -18 24 -86 13 -93 -5 -3 -37 -7 -73 -10 -80 -6 -91 4 -92 84 l0
56 -55 3 c-72 3 -86 8 -71 26 8 10 8 16 -3 25 -15 13 -39 -7 -34 -30 2 -10
-15 -12 -74 -10 -85 3 -91 -2 -59 -47 23 -31 19 -87 -5 -78 -17 6 -18 -3 -4
-40 13 -33 4 -84 -15 -84 -8 0 -30 14 -50 31 -34 30 -37 31 -54 15 -18 -16
-22 -16 -50 -1 -35 18 -41 50 -11 58 11 3 34 -1 50 -10 29 -14 50 -11 50 8 0
5 -16 17 -35 26 -27 13 -40 14 -59 5 -24 -11 -25 -10 -32 34 l-6 45 -47 -6
c-25 -4 -54 -9 -63 -12 -14 -3 -18 2 -18 21 0 29 -20 35 -39 12 -8 -10 -9 -16
-1 -21 21 -13 9 -25 -27 -26 -65 -2 -88 -12 -86 -40 1 -13 -1 -31 -3 -39 -4
-12 -9 -10 -24 8 -14 17 -28 22 -54 20 -19 -1 -38 1 -41 4 -4 4 -21 0 -38 -7
-28 -12 -32 -11 -50 11 -24 31 -76 33 -102 4 -10 -11 -23 -20 -29 -20 -15 0
-56 65 -56 90 0 19 -4 22 -32 24 -7 1 -18 7 -24 15 -8 10 -18 11 -40 4 -16 -5
-29 -15 -29 -20 0 -6 -3 -15 -7 -19 -5 -4 -8 -21 -8 -38 l-1 -31 -16 26 c-13
22 -26 28 -72 33 -44 5 -58 4 -67 -9 -14 -19 -33 -19 -40 -1 -3 7 -28 26 -56
41 -40 22 -50 24 -45 12 4 -10 2 -17 -3 -17 -6 0 -10 5 -10 10 0 6 -4 10 -10
10 -14 0 -13 -46 1 -73 7 -12 27 -41 45 -64 19 -23 34 -49 34 -58 0 -22 -66
-88 -82 -82 -7 2 -12 14 -10 25 4 25 -9 28 -38 10 -45 -29 -35 30 13 74 37 33
21 36 -42 7 -67 -30 -71 -35 -58 -69 10 -27 8 -33 -18 -60 l-29 -30 1807 0
1806 0 -10 29 c-20 57 25 98 95 87 l41 -7 -31 33 c-59 62 -68 100 -32 137 18
20 28 23 70 18 46 -6 48 -5 48 18 0 13 -4 26 -8 29 -4 2 -39 -2 -77 -10 -39
-9 -106 -16 -150 -18 -76 -2 -81 -4 -95 -29 -10 -18 -21 -26 -32 -23 -21 5
-22 -1 -3 -34 16 -28 20 -126 5 -135 -5 -3 -26 10 -45 30 -20 19 -44 35 -54
35 -16 0 -20 11 -26 80 -4 44 -10 80 -14 80 -259 12 -274 12 -282 -1 -5 -8 -9
-52 -9 -98 0 -66 -3 -82 -12 -73 -17 17 -26 15 -33 -8 -9 -29 -27 -25 -19 5 3
14 3 25 0 25 -12 0 -61 -33 -94 -64 -32 -30 -33 -30 -38 -9 -5 18 -9 20 -24
11 -14 -9 -22 -9 -34 1 -23 19 -20 31 9 31 21 0 25 5 25 28 0 47 13 57 55 45
l37 -12 -8 27 c-4 15 -8 38 -9 52 -2 28 -5 30 -40 30 -19 0 -26 -7 -31 -28 -9
-37 -20 -49 -52 -55 -17 -4 -33 -16 -40 -32 -10 -22 -15 -24 -32 -15 -21 11
-23 8 -21 -25 2 -17 -4 -20 -43 -20 -24 0 -48 3 -52 8 -4 4 -19 -3 -32 -15
l-25 -23 6 60 c4 33 10 77 13 98 l7 37 -70 0 c-70 0 -70 0 -65 26 4 21 1 25
-14 22 -13 -2 -19 -12 -19 -28 0 -23 -5 -25 -49 -28 l-48 -3 7 38 c4 21 8 41
11 44 2 3 99 9 215 12 117 4 214 9 216 11 3 2 -3 18 -11 34 -22 43 -5 81 36
82 22 0 88 -57 88 -76 0 -20 18 -17 29 5 6 10 23 24 40 30 24 10 34 10 60 -3
17 -9 35 -24 40 -34 8 -15 27 -17 168 -17 l158 0 -3 67 c-3 55 -1 69 12 74 27
10 43 -13 56 -81 l12 -65 25 20 c33 26 57 25 76 -2 8 -13 18 -20 23 -15 4 4
-2 20 -14 36 -18 24 -19 31 -8 40 8 7 16 21 19 32 8 29 -36 73 -63 64 -11 -4
-36 -1 -55 5 -24 8 -40 8 -53 1 -18 -10 -20 -6 -26 50 -4 33 -6 106 -5 162 2
119 14 110 -154 121 -59 4 -113 9 -121 12 -8 3 -16 0 -18 -7z m553 -669 c25
-14 27 -91 3 -111 -15 -12 -19 -10 -33 11 -9 14 -28 38 -43 53 -16 16 -28 32
-28 37 0 18 72 25 101 10z m-1220 -80 c28 -16 24 -24 -25 -48 -52 -26 -176
-32 -176 -8 0 20 26 40 35 26 5 -8 11 -8 21 0 14 12 89 38 112 39 7 1 22 -4
33 -9z m-550 -57 c27 -16 49 -32 49 -37 0 -10 -87 2 -112 15 -23 12 -24 49 -2
49 9 0 38 -12 65 -27z m219 5 c0 -22 -17 -41 -30 -33 -8 5 -7 12 6 26 20 22
24 23 24 7z m620 -43 c0 -18 -72 -46 -87 -33 -7 5 -21 7 -33 3 -30 -10 -24 11
8 23 41 17 96 30 105 25 4 -2 7 -10 7 -18z"/>
<path d="M1095 923 c-33 -1 -79 -5 -102 -9 -41 -5 -43 -7 -43 -40 l0 -34 83 5
c92 7 163 24 179 42 17 21 1 43 -29 41 -15 -1 -55 -3 -88 -5z"/>
<path d="M2303 911 c-62 -9 -117 -20 -122 -26 -5 -5 -7 -22 -4 -37 5 -26 8
-28 57 -27 28 0 77 4 109 8 50 6 60 5 68 -10 23 -43 -4 -167 -54 -245 -29 -47
-94 -111 -119 -120 -10 -3 -18 -15 -18 -27 0 -12 -5 -29 -10 -37 -8 -12 -12
-12 -32 6 -13 11 -40 29 -60 39 -23 12 -38 27 -38 38 0 32 -30 78 -48 75 -24
-4 -27 -44 -7 -75 16 -24 16 -26 0 -35 -9 -6 -23 -25 -31 -44 -12 -28 -20 -34
-44 -34 -60 0 -28 -17 53 -28 100 -14 167 -15 255 -3 37 6 93 13 125 16 l57 6
0 39 c0 31 5 43 25 56 21 14 30 14 55 4 34 -14 42 -10 47 21 6 39 25 61 69 81
51 22 49 35 -7 44 -32 5 -39 11 -39 30 0 21 -23 54 -38 54 -20 0 -51 -33 -54
-58 -2 -15 -7 -27 -13 -27 -10 0 -15 30 -38 224 -7 58 -16 105 -22 106 -5 1
-60 -5 -122 -14z"/>
<path d="M6600 872 l0 -58 48 1 c40 2 52 7 84 39 32 32 40 36 57 26 24 -12 36
-49 29 -85 -4 -19 -1 -25 12 -25 24 0 30 20 30 96 l0 64 -130 0 -130 0 0 -58z"/>
<path d="M9970 923 c-30 -1 -79 -5 -107 -9 -52 -5 -53 -6 -53 -39 l0 -34 73 5
c39 3 89 6 109 8 21 2 38 -1 41 -8 2 -6 1 -55 -3 -109 -6 -81 -12 -104 -34
-138 -49 -74 -145 -149 -191 -149 -8 0 -15 -6 -15 -13 0 -13 21 -17 230 -39
l25 -3 16 260 c9 143 14 263 12 268 -2 4 -14 6 -26 5 -12 -1 -47 -3 -77 -5z"/>
<path d="M11210 914 c-36 -7 -88 -13 -117 -14 -58 0 -67 -8 -58 -50 7 -30 7
-30 80 -30 41 0 76 4 79 9 3 5 20 11 36 13 23 3 34 0 41 -13 25 -48 -6 -184
-62 -266 -17 -24 -52 -61 -78 -81 -47 -37 -47 -38 -49 -98 l-1 -61 47 8 c26 4
81 10 122 14 42 3 81 9 86 13 11 7 7 60 -25 391 -9 96 -21 175 -26 177 -6 1
-39 -4 -75 -12z"/>
<path d="M15459 892 c-7 -69 -6 -70 87 -77 46 -4 93 -5 103 -2 22 5 34 -14 24
-40 -12 -35 -92 -140 -125 -165 -18 -14 -52 -35 -75 -47 -38 -19 -43 -25 -43
-55 0 -33 1 -34 48 -39 26 -3 83 -10 126 -16 44 -6 81 -9 82 -8 2 2 31 348 37
447 l2 35 -131 3 -132 3 -3 -39z"/>
<path d="M4833 895 c-28 -12 -33 -19 -33 -49 0 -46 14 -53 49 -24 16 13 37 28
47 34 19 11 19 12 0 33 -22 25 -21 24 -63 6z"/>
<path d="M3571 889 c-57 -5 -106 -11 -108 -13 -2 -2 -5 -16 -6 -32 l-2 -29
120 -5 120 -5 -3 -65 c-6 -112 -15 -132 -81 -179 -62 -43 -127 -71 -167 -71
-25 0 -31 -13 -36 -75 l-3 -40 140 3 c77 2 143 7 146 10 4 4 17 104 28 222 12
118 24 232 27 253 l6 37 -39 -1 c-21 -1 -85 -6 -142 -10z"/>
<path d="M6142 888 c-19 -19 -14 -30 11 -26 12 2 22 9 22 17 0 19 -18 24 -33
9z"/>
<path d="M15002 888 c-19 -19 -14 -30 11 -26 12 2 22 9 22 17 0 19 -18 24 -33
9z"/>
<path d="M17663 893 c-19 -4 -23 -11 -23 -40 0 -35 0 -35 25 -19 13 9 31 16
40 16 9 0 15 9 15 25 0 26 -7 28 -57 18z"/>
<path d="M6199 855 c-103 -22 -109 -25 -109 -43 1 -9 10 -28 20 -41 19 -22 24
-23 70 -14 36 7 50 7 51 -1 1 -6 2 -22 2 -35 3 -44 24 -34 31 15 8 63 8 134
-1 133 -5 -1 -33 -7 -64 -14z"/>
<path d="M14995 841 l-120 -26 0 -40 c0 -34 3 -40 20 -37 11 1 52 6 90 11 39
5 77 10 85 12 21 5 25 -42 10 -108 -15 -69 -99 -158 -182 -193 -58 -25 -68
-39 -68 -91 0 -27 1 -27 42 -16 24 6 52 22 65 38 32 38 70 45 104 20 28 -21
49 -27 49 -15 0 3 9 97 20 207 27 267 26 259 15 262 -5 1 -64 -9 -130 -24z"/>
<path d="M169 764 c-20 -25 2 -36 50 -25 48 11 56 15 47 30 -5 7 -13 7 -26 -2
-16 -9 -24 -9 -39 0 -16 10 -22 9 -32 -3z"/>
<path d="M17270 760 c0 -5 5 -10 10 -10 6 0 10 5 10 10 0 6 -4 10 -10 10 -5 0
-10 -4 -10 -10z"/>
<path d="M13 723 c-16 -6 -18 -114 -2 -130 8 -8 8 -13 0 -17 -17 -11 -14 -76
4 -76 8 0 29 -18 47 -41 29 -36 34 -38 45 -24 7 10 17 14 24 9 17 -10 121 -5
136 8 7 5 17 7 22 3 15 -8 60 26 61 46 0 24 -40 71 -56 65 -7 -3 -18 3 -23 12
-9 16 -11 15 -25 -3 -15 -19 -15 -19 -16 8 0 17 -5 27 -14 27 -23 0 -29 20
-12 39 9 10 16 23 16 29 0 7 5 12 11 12 7 0 9 -11 6 -30 -5 -22 -3 -28 8 -24
30 12 29 66 -2 78 -10 4 -26 -3 -40 -16 -23 -21 -25 -22 -34 -5 -18 31 -32 19
-26 -23 4 -34 2 -40 -13 -40 -11 0 -22 12 -29 31 -17 48 -56 76 -88 62z m263
-240 c-4 -4 -11 -1 -16 7 -16 25 -11 35 7 17 9 -9 13 -20 9 -24z m-28 -10 c2
-8 -6 -13 -22 -13 -26 0 -40 12 -29 24 11 11 46 2 51 -11z m-80 -4 c-2 -6 -8
-10 -13 -10 -5 0 -11 4 -13 10 -2 6 4 11 13 11 9 0 15 -5 13 -11z"/>
<path d="M6016 708 c-15 -23 -13 -41 9 -115 6 -18 3 -23 -11 -23 -11 -1 -30
-7 -43 -14 l-24 -14 24 -8 c13 -4 34 -7 47 -5 14 1 25 -4 30 -16 4 -10 18 -35
31 -56 l23 -37 35 31 c44 38 74 34 119 -16 l31 -35 11 25 c6 13 23 31 37 41
32 21 32 54 0 84 -19 18 -31 22 -60 17 -28 -5 -37 -2 -42 11 -12 34 -36 52
-69 52 -27 0 -36 6 -49 30 -18 35 -54 70 -72 70 -7 0 -19 -10 -27 -22z"/>
<path d="M16651 699 c-19 -18 -22 -28 -16 -57 6 -32 5 -34 -15 -29 -32 8 -70
-12 -70 -38 0 -11 -6 -27 -12 -34 -7 -7 6 -4 29 8 23 12 49 21 58 21 29 0 102
-83 109 -126 10 -53 12 -54 46 -41 25 10 34 8 58 -10 l29 -22 22 30 c13 17 35
32 52 36 l30 6 -22 20 c-18 17 -26 18 -57 9 -32 -10 -37 -9 -50 9 -8 11 -23
24 -35 28 -27 10 -38 80 -22 144 6 24 5 27 -16 27 -13 0 -30 9 -37 20 -16 26
-52 25 -81 -1z"/>
<path d="M4952 701 c-8 -4 -12 -17 -11 -27 4 -29 -11 -64 -27 -64 -8 0 -14 -5
-14 -11 0 -6 -7 -9 -15 -5 -17 6 -45 -19 -45 -40 0 -13 3 -13 22 0 37 26 70
20 110 -21 40 -43 58 -73 58 -100 0 -10 5 -25 10 -33 7 -12 12 -12 22 -2 18
18 53 15 73 -8 l19 -21 23 30 c15 19 37 33 59 37 l35 6 -21 21 c-20 18 -26 18
-63 7 -38 -11 -42 -10 -59 12 -9 12 -18 26 -18 31 0 4 -7 7 -15 7 -23 0 -55
32 -55 57 0 12 -7 28 -15 37 -14 13 -13 16 5 26 16 9 18 8 14 -5 -7 -18 -3
-19 31 -3 38 17 27 41 -30 60 -58 19 -75 21 -93 9z m18 -21 c0 -5 -2 -10 -4
-10 -3 0 -8 5 -11 10 -3 6 -1 10 4 10 6 0 11 -4 11 -10z"/>
<path d="M5584 688 c-17 -4 -37 -15 -44 -23 -14 -17 -96 -10 -121 11 -20 18
-70 18 -95 0 -13 -10 -33 -13 -60 -9 -36 5 -44 2 -57 -18 -9 -13 -19 -37 -23
-53 -6 -26 -5 -28 12 -21 42 18 89 17 110 -4 12 -11 24 -25 26 -31 4 -12 30
-14 70 -4 48 11 94 -4 136 -46 46 -46 55 -49 46 -16 -7 30 19 91 45 106 15 8
27 8 41 0 25 -13 25 -27 1 -90 -21 -55 -18 -59 28 -33 28 17 31 17 47 1 22
-22 12 -44 -31 -69 l-35 -21 19 -24 c12 -15 17 -33 13 -46 -4 -18 -2 -20 19
-14 62 17 106 18 143 2 45 -19 52 -16 36 14 -18 34 11 70 55 70 19 0 35 5 35
10 0 10 -40 31 -82 44 -10 3 -15 11 -12 20 3 8 1 17 -5 20 -14 9 -2 36 15 36
8 0 14 5 14 11 0 7 -8 9 -22 4 -67 -21 -75 -19 -88 19 -14 43 -66 86 -103 86
-18 0 -31 9 -43 29 -22 38 -51 50 -90 39z"/>
<path d="M17285 690 c-12 -4 -27 -15 -34 -24 -7 -9 -20 -16 -28 -16 -13 0 -13
-3 -3 -15 18 -21 -12 -82 -43 -87 -20 -4 -18 -6 13 -20 19 -8 48 -29 64 -46
29 -31 50 -35 40 -7 -9 23 16 84 40 101 24 15 55 10 57 -10 3 -28 -4 -63 -18
-89 -19 -37 -10 -45 27 -24 23 14 34 15 50 7 11 -6 20 -15 20 -20 0 -13 -40
-49 -62 -56 -22 -7 -24 -30 -3 -38 9 -3 15 -18 15 -37 0 -28 3 -31 23 -25 53
16 95 17 137 2 51 -17 56 -16 38 13 -10 17 -10 25 0 41 14 23 8 40 -13 40 -8
0 -19 10 -26 21 -18 34 5 66 52 74 22 4 39 11 39 16 0 5 11 11 25 15 19 5 25
13 25 35 0 37 -14 37 -52 -1 -21 -21 -39 -30 -63 -30 -19 0 -37 -4 -40 -10
-11 -18 -21 -11 -34 25 -17 47 -66 95 -98 95 -18 0 -37 13 -60 40 -35 40 -51
46 -88 30z"/>
<path d="M6813 674 c-7 -18 11 -39 26 -30 17 11 13 46 -4 46 -9 0 -18 -7 -22
-16z"/>
<path d="M12084 676 c-13 -10 -33 -13 -61 -9 -39 5 -43 3 -62 -28 -28 -45 -28
-74 -2 -59 27 14 82 12 103 -4 10 -7 22 -25 28 -40 10 -28 11 -28 36 -11 30
20 82 22 113 6 32 -18 41 -5 41 59 0 62 -6 70 -58 70 -15 0 -36 7 -46 15 -25
19 -67 19 -92 1z"/>
<path d="M17030 677 c-16 -9 -36 -11 -55 -6 -33 9 -49 0 -71 -42 -21 -41 -19
-62 5 -49 49 25 131 -3 131 -45 0 -18 9 -19 45 -5 28 11 25 30 -5 30 -22 0
-33 23 -17 39 8 8 8 14 0 22 -14 14 -6 39 13 39 8 0 14 7 14 15 0 18 -27 19
-60 2z"/>
<path d="M9332 664 c-12 -8 -22 -25 -22 -36 0 -36 -27 -57 -65 -51 -27 4 -36
1 -49 -19 -9 -14 -14 -32 -10 -41 4 -11 -5 -25 -25 -43 -33 -27 -43 -74 -16
-74 8 0 18 -12 21 -27 7 -28 31 -63 43 -63 4 0 7 23 6 51 0 44 4 54 27 72 27
20 63 24 111 12 24 -6 27 -5 27 16 0 13 18 49 40 80 l40 58 -27 3 c-21 2 -29
9 -31 28 -3 22 -26 50 -42 50 -3 0 -16 -7 -28 -16z"/>
<path d="M1183 647 c-16 -20 -21 -41 -13 -62 11 -32 -47 -82 -96 -82 -22 0
-54 -8 -73 -17 l-32 -17 46 -41 c26 -23 51 -52 56 -65 12 -31 25 -29 44 7 8
16 24 34 34 40 25 13 68 13 76 0 9 -15 25 -2 18 16 -7 20 44 66 71 62 11 -1
26 1 33 5 19 12 43 -4 43 -29 0 -13 4 -24 9 -24 12 0 31 -55 31 -89 l1 -26 22
26 c39 47 87 58 87 20 0 -9 -13 -32 -30 -51 -16 -19 -29 -38 -30 -42 0 -5 16
-8 36 -8 45 0 73 -15 84 -46 7 -16 17 -24 34 -24 49 0 70 -45 41 -87 -15 -21
-14 -23 17 -36 19 -8 48 -28 65 -46 l32 -31 783 2 c482 2 775 7 763 12 -11 5
-32 18 -47 28 -14 10 -36 18 -48 18 -17 0 -20 4 -15 20 9 28 -17 36 -49 15
-21 -14 -26 -15 -26 -3 0 20 36 57 68 70 20 8 23 12 10 15 -28 7 -124 -26
-168 -58 -49 -36 -66 -29 -53 22 4 19 6 63 3 99 l-5 65 -63 3 -63 3 21 29 c19
27 26 50 15 50 -3 0 -31 -16 -62 -36 -42 -27 -64 -34 -92 -32 -27 2 -36 7 -35
21 2 23 -19 22 -41 -3 -10 -12 -25 -18 -32 -16 -7 3 -13 -1 -13 -9 0 -15 -57
-35 -102 -35 -15 0 -36 -10 -48 -22 -18 -20 -20 -20 -20 -4 0 16 -7 18 -50 14
-47 -5 -50 -4 -50 18 0 27 -21 32 -39 10 -8 -10 -9 -16 -1 -21 21 -13 9 -25
-24 -25 -19 0 -46 -4 -60 -10 -23 -8 -26 -15 -26 -59 0 -35 -4 -51 -16 -55
-23 -9 -24 -8 -24 19 0 14 -6 25 -13 25 -22 0 -47 -34 -47 -63 0 -27 -14 -34
-38 -19 -7 5 -10 15 -7 24 4 9 -6 24 -27 40 -38 28 -101 35 -154 18 -32 -11
-36 -10 -61 20 -20 24 -32 31 -51 27 -17 -3 -34 4 -58 25 -27 24 -40 29 -60
24 -40 -10 -64 17 -64 71 0 24 -5 53 -10 64 -8 13 -7 25 0 39 9 17 7 28 -10
54 -28 46 -46 51 -75 20 -20 -22 -29 -24 -62 -18 -46 8 -63 20 -63 45 0 33
-62 61 -100 45 -10 -4 -21 4 -32 23 -21 37 -52 55 -65 38z m1557 -366 c0 -17
-12 -41 -21 -41 -5 0 -9 11 -9 25 0 16 6 25 15 25 8 0 15 -4 15 -9z m230 -54
c0 -6 -15 -19 -32 -26 -18 -8 -79 -43 -135 -78 -87 -54 -105 -62 -123 -53 -35
19 -19 70 22 70 11 0 18 -7 18 -20 0 -31 15 -24 65 29 26 27 65 59 88 70 47
23 97 28 97 8z m-374 -30 c2 -7 1 -31 -4 -52 -11 -56 -35 -53 -43 5 -4 25 -5
48 -2 53 7 12 43 8 49 -6z"/>
<path d="M7192 644 c-9 -10 -12 -27 -8 -48 5 -26 2 -36 -19 -54 -14 -12 -25
-26 -25 -31 0 -5 -23 -9 -51 -9 -31 -1 -61 -8 -80 -19 l-29 -19 40 -30 c21
-16 47 -44 57 -61 10 -18 21 -33 24 -33 4 0 15 12 25 28 37 56 82 68 128 31
21 -17 26 -29 26 -65 0 -39 2 -44 23 -43 12 0 32 -2 44 -6 20 -7 22 -5 16 27
-7 48 20 100 50 96 17 -2 23 -11 25 -40 2 -21 5 -38 7 -38 1 0 19 16 39 36 39
39 59 40 64 3 2 -17 -7 -34 -28 -54 -16 -16 -30 -32 -30 -37 0 -4 19 -8 43 -8
46 -1 77 -18 77 -43 0 -10 12 -19 28 -23 15 -4 36 -12 47 -18 22 -12 27 -13
53 -15 26 -2 49 -46 33 -65 -14 -17 -59 -27 -67 -15 -7 11 -24 12 -24 1 0 -5
18 -17 41 -27 22 -10 49 -29 59 -42 l18 -23 492 0 c389 0 491 3 488 13 -3 6
-21 13 -42 15 -28 2 -40 9 -48 28 -8 18 -14 21 -24 13 -22 -18 -31 -3 -64 104
-40 127 -78 209 -92 201 -15 -10 -108 -11 -108 -2 0 4 -7 5 -15 2 -8 -4 -15
-13 -15 -21 0 -11 -6 -7 -20 10 -11 14 -20 29 -20 35 0 19 -37 40 -81 47 l-46
7 -17 -134 c-17 -135 -34 -240 -38 -243 -2 -1 -20 -6 -42 -9 -36 -7 -38 -6
-33 15 6 22 -14 64 -42 87 -19 15 -78 16 -121 1 -30 -11 -34 -10 -55 17 -17
21 -32 29 -58 29 -20 1 -45 9 -56 19 -11 10 -39 21 -63 23 -47 6 -93 48 -69
63 16 9 17 60 2 89 -7 12 -11 34 -10 49 4 44 -10 72 -35 72 -30 0 -39 -10 -24
-27 17 -21 -6 -63 -34 -63 -51 0 -68 11 -68 42 0 25 -4 29 -22 26 -17 -2 -23
2 -24 18 -2 30 -11 42 -45 59 -21 12 -34 13 -48 5 -27 -14 -27 -14 -41 20 -7
17 -21 35 -31 40 -22 12 -21 12 -37 -6z m1261 -468 c5 -14 -10 -36 -25 -36 -4
0 -8 11 -8 25 0 27 24 35 33 11z m41 -62 c8 -22 8 -24 -8 -24 -18 0 -29 16
-21 30 9 15 22 12 29 -6z"/>
<path d="M7334 649 c-3 -6 -1 -16 5 -22 8 -8 11 -5 11 11 0 24 -5 28 -16 11z"/>
<path d="M6605 580 c-16 -17 -16 -20 -2 -20 8 0 24 -11 35 -25 13 -16 28 -24
43 -23 16 2 24 -3 27 -16 2 -10 17 -30 33 -43 36 -31 39 -82 7 -148 -12 -24
-20 -47 -17 -49 2 -2 23 1 46 7 36 9 48 8 79 -6 l36 -18 29 31 c16 16 36 30
44 30 18 0 20 16 3 26 -7 5 -35 9 -63 11 -119 8 -109 3 -115 54 -3 25 -13 57
-22 71 -15 23 -15 26 3 41 25 22 24 39 -5 66 -19 18 -31 21 -59 16 -21 -4 -37
-3 -41 4 -11 17 -41 13 -61 -9z"/>
<path d="M11595 580 c-4 -12 -3 -26 3 -32 12 -12 23 25 12 42 -6 9 -10 6 -15
-10z"/>
<path d="M8826 534 c-3 -8 1 -32 10 -52 14 -35 14 -38 -4 -52 -10 -9 -22 -28
-26 -43 -4 -17 -13 -27 -25 -27 -54 0 -65 -24 -26 -58 15 -13 22 -28 19 -37
-4 -8 1 -27 10 -40 15 -22 15 -31 5 -60 -7 -19 -11 -36 -8 -38 2 -2 31 -7 64
-11 l60 -7 -43 44 c-32 32 -42 51 -42 75 0 42 30 72 74 72 33 0 50 -12 93 -68
l18 -24 29 27 29 27 -21 17 c-27 20 -38 66 -22 86 10 12 10 15 -3 15 -8 0 -17
6 -20 13 -2 7 -25 23 -51 35 -32 17 -48 31 -53 50 -14 59 -53 92 -67 56z"/>
<path d="M8750 515 c0 -18 5 -25 19 -25 17 0 18 3 8 25 -15 32 -27 32 -27 0z"/>
<path d="M16466 485 c-14 -10 -20 -28 -21 -62 -1 -27 -4 -53 -6 -60 -4 -12 73
-73 94 -73 6 0 18 9 25 20 7 11 19 20 27 20 23 0 18 15 -16 52 -16 18 -35 52
-42 76 -12 45 -28 52 -61 27z"/>
<path d="M4751 474 c-19 -14 -20 -21 -14 -72 5 -50 11 -61 46 -93 l41 -35 36
35 36 36 -43 49 c-24 26 -43 58 -43 70 0 26 -28 31 -59 10z"/>
<path d="M11505 466 c-12 -18 -13 -30 -6 -50 9 -22 17 -26 48 -26 54 0 69 12
43 35 -11 10 -20 29 -20 42 0 32 -44 32 -65 -1z"/>
<path d="M10423 465 c-10 -27 6 -30 30 -7 l21 22 -22 0 c-12 0 -25 -7 -29 -15z"/>
<path d="M7696 434 c-9 -23 -8 -24 12 -24 24 0 32 8 25 26 -7 19 -29 18 -37
-2z"/>
<path d="M14470 410 c0 -15 5 -20 18 -18 9 2 17 10 17 18 0 8 -8 16 -17 18
-13 2 -18 -3 -18 -18z"/>
<path d="M10416 404 c-11 -29 -6 -44 14 -44 11 0 20 5 20 10 0 6 -4 10 -9 10
-5 0 -7 9 -4 20 6 24 -12 27 -21 4z"/>
<path d="M6499 381 c-16 -16 -29 -39 -29 -51 0 -11 -8 -23 -17 -27 -10 -3 -24
-11 -32 -17 -7 -6 -26 -9 -41 -8 -31 4 -34 -1 -45 -77 -8 -46 -3 -48 37 -13
18 15 81 13 122 -4 17 -6 18 -4 12 27 -8 43 18 95 59 118 17 9 32 17 34 19 7
4 -51 62 -62 62 -5 0 -22 -13 -38 -29z"/>
<path d="M10780 400 c-8 -5 -25 -7 -37 -3 -28 7 -29 -6 -5 -70 36 -95 62 -86
62 21 0 34 -1 62 -2 62 -2 0 -10 -5 -18 -10z"/>
<path d="M15536 391 c-15 -17 -16 -19 -1 -25 22 -8 35 1 35 25 0 24 -12 24
-34 0z"/>
<path d="M7820 396 c-3 -2 -30 -7 -60 -10 -95 -11 -115 -19 -118 -49 -3 -26
-2 -27 46 -27 39 0 53 -5 72 -25 30 -32 40 -32 40 0 0 16 11 32 30 47 20 14
30 30 28 43 -3 18 -27 32 -38 21z"/>
<path d="M13713 375 c-3 -9 -3 -18 0 -22 10 -10 37 6 37 22 0 20 -29 20 -37 0z"/>
<path d="M16087 383 c-14 -13 -6 -33 13 -33 13 0 20 7 20 20 0 19 -20 27 -33
13z"/>
<path d="M17660 380 c0 -5 9 -10 20 -10 11 0 20 5 20 10 0 6 -9 10 -20 10 -11
0 -20 -4 -20 -10z"/>
<path d="M1270 337 c0 -43 1 -45 37 -50 20 -4 38 -5 39 -4 1 1 4 20 6 42 3 37
1 40 -22 41 -14 1 -33 5 -42 9 -16 6 -18 1 -18 -38z"/>
<path d="M4314 369 c-8 -14 11 -33 25 -25 16 10 13 36 -3 36 -8 0 -18 -5 -22
-11z"/>
<path d="M9551 346 c-12 -18 -21 -36 -21 -40 0 -3 18 -6 40 -6 33 0 42 -4 52
-25 13 -29 16 -30 42 -10 36 27 127 11 147 -26 12 -24 6 -35 -32 -54 -37 -20
-37 -31 0 -38 41 -8 71 -44 71 -83 0 -18 -4 -36 -10 -39 -28 -17 -1 -25 88
-25 97 0 98 0 115 29 9 16 17 40 17 53 -1 24 -31 68 -48 68 -6 0 -14 9 -17 20
-3 11 -18 23 -32 26 -22 6 -23 8 -9 22 15 15 19 15 45 -1 16 -9 32 -17 35 -17
3 0 6 26 6 58 l0 58 -100 13 c-102 12 -120 10 -120 -13 0 -17 -59 -29 -94 -20
-26 6 -35 28 -16 39 18 11 10 25 -15 25 -14 0 -33 -9 -42 -20 -24 -28 -42 -25
-54 10 -14 38 -23 38 -48 -4z m326 -58 c-2 -7 4 -23 15 -35 11 -12 17 -26 13
-33 -4 -6 -17 1 -36 21 -23 25 -27 35 -18 45 14 17 32 18 26 2z"/>
<path d="M13173 365 c-3 -9 -3 -18 0 -22 10 -10 37 6 37 22 0 20 -29 20 -37 0z"/>
<path d="M14040 362 c0 -20 36 -59 46 -49 3 3 3 19 -1 36 -7 35 -45 45 -45 13z"/>
<path d="M14430 361 c-18 -35 -13 -61 14 -61 15 0 33 -11 46 -27 18 -23 24
-25 40 -15 11 7 32 12 47 12 35 0 54 12 45 27 -8 12 -155 83 -172 83 -5 0 -14
-9 -20 -19z"/>
<path d="M5265 329 c-39 -35 -41 -51 -5 -59 23 -5 33 -18 44 -53 5 -17 8 -17
28 -3 57 40 118 7 118 -62 l0 -34 40 7 c31 5 50 2 81 -14 l41 -22 -8 33 c-7
32 -8 83 -2 108 2 7 -11 20 -28 28 -18 10 -37 32 -46 54 -14 32 -21 38 -46 38
-24 0 -32 -6 -41 -30 -13 -39 -29 -38 -68 5 -40 43 -62 44 -108 4z"/>
<path d="M17165 344 c-8 -9 -15 -22 -15 -30 0 -31 -33 -28 -61 7 -26 31 -28
32 -29 12 0 -13 5 -23 10 -23 17 0 11 -29 -10 -50 -11 -11 -27 -20 -35 -20 -8
0 -15 -9 -15 -20 0 -24 13 -26 30 -5 7 9 29 15 51 15 47 0 72 -31 68 -82 -3
-25 0 -32 11 -28 36 11 99 4 119 -14 27 -25 33 -18 21 25 -6 19 -8 52 -4 75 6
39 4 42 -30 58 -26 12 -36 23 -36 40 0 39 -49 65 -75 40z"/>
<path d="M3524 335 c-3 -8 -3 -18 0 -23 9 -14 -19 -22 -79 -22 -30 0 -57 -5
-63 -13 -6 -7 -12 -42 -14 -77 -2 -37 -8 -63 -13 -61 -6 2 -20 8 -32 14 -23
10 -53 4 -53 -11 0 -4 20 -23 45 -42 25 -19 45 -37 45 -42 0 -4 9 -8 20 -8 12
0 17 5 14 14 -13 35 61 156 118 192 46 29 58 30 58 4 0 -30 -110 -199 -134
-206 -26 -8 -65 -36 -66 -46 0 -5 128 -8 285 -8 l286 0 -16 30 c-12 23 -13 35
-4 51 9 17 7 25 -13 46 l-23 25 28 24 c38 32 72 30 114 -6 40 -36 60 -38 65
-8 2 12 13 28 26 34 35 17 37 23 15 47 -12 12 -23 33 -25 47 -3 25 -3 25 -105
23 -56 -2 -113 -7 -127 -13 -24 -9 -26 -15 -26 -65 0 -34 -4 -55 -11 -55 -7 0
-9 -11 -6 -29 11 -55 -54 -108 -106 -86 -25 10 -26 13 -13 24 23 19 19 31 -10
31 l-25 0 5 90 5 90 -68 0 c-67 0 -68 0 -63 25 3 18 0 25 -12 25 -9 0 -19 -7
-22 -15z m353 -102 c-3 -10 -5 -2 -5 17 0 19 2 27 5 18 2 -10 2 -26 0 -35z"/>
<path d="M15400 317 c0 -50 -29 -77 -78 -70 -29 4 -41 0 -56 -16 -15 -16 -22
-18 -38 -10 -11 6 -34 8 -50 5 -17 -3 -38 0 -51 8 -23 15 -122 25 -133 13 -4
-3 -14 -2 -23 2 -10 6 -44 3 -91 -8 -64 -14 -75 -20 -80 -41 -6 -24 -9 -25
-67 -22 -33 2 -64 -1 -67 -6 -3 -6 10 -26 30 -46 37 -37 41 -59 19 -108 -7
-17 19 -18 464 -18 l472 0 -15 22 c-24 34 -20 54 19 97 24 26 32 42 24 46 -8
6 -9 31 -5 85 l7 77 -55 7 c-30 3 -94 9 -141 12 l-85 7 0 -36z"/>
<path d="M6102 330 c-13 -6 -31 -28 -41 -53 -15 -35 -25 -45 -50 -50 -17 -4
-34 -15 -38 -24 -16 -47 -96 -83 -135 -62 -23 12 -31 7 -57 -36 -24 -40 -15
-44 45 -19 36 15 87 15 126 -1 13 -5 17 0 20 22 3 26 6 28 46 28 40 0 42 1 42
31 0 43 23 61 61 47 33 -13 33 -13 18 38 -10 32 -9 42 5 64 15 24 15 25 -1 24
-10 0 -28 -4 -41 -9z"/>
<path d="M9367 323 c-4 -3 -7 -19 -7 -35 0 -20 -5 -28 -17 -28 -9 0 -28 -11
-43 -25 -29 -28 -80 -36 -104 -16 -13 11 -22 11 -41 3 -27 -12 -30 -19 -17
-40 7 -10 15 -10 36 -2 31 11 59 1 75 -28 9 -15 13 -14 38 16 34 39 81 55 114
38 29 -14 37 -57 15 -76 -25 -20 -19 -28 25 -35 49 -8 79 -35 79 -70 l0 -25
134 0 134 0 7 31 c8 35 -7 52 -38 45 -11 -3 -35 4 -54 15 -30 17 -38 18 -52 6
-18 -16 -98 -21 -106 -6 -4 5 -15 9 -25 9 -25 0 -35 17 -19 36 9 11 9 18 1 26
-13 13 -4 38 14 38 8 0 14 10 14 25 0 26 -10 30 -62 26 -21 -2 -28 2 -28 16 0
41 -50 80 -73 56z"/>
<path d="M14230 296 c0 -26 -4 -36 -15 -36 -9 0 -27 -11 -41 -25 -14 -14 -33
-25 -42 -23 -10 1 -22 -1 -29 -5 -6 -4 -18 -1 -26 7 -9 9 -24 12 -38 9 -57
-15 -39 -54 20 -46 32 4 41 1 55 -18 l17 -24 27 33 c49 58 128 60 142 2 3 -14
18 -31 34 -38 15 -8 30 -21 32 -30 3 -10 12 -29 20 -44 8 -14 11 -33 8 -42 -5
-14 10 -16 130 -16 l136 0 6 25 c10 39 -2 55 -39 55 -18 0 -38 5 -45 12 -6 6
-32 11 -57 10 -38 0 -45 3 -45 19 0 10 -12 26 -27 36 -36 22 -43 33 -43 62 0
22 -3 23 -47 18 -33 -4 -60 0 -86 11 -33 14 -37 19 -32 43 4 15 1 30 -4 34 -7
4 -11 -7 -11 -29z"/>
<path d="M4204 302 c-24 -16 -32 -45 -22 -80 9 -31 7 -37 -16 -59 -14 -13 -29
-35 -32 -48 -5 -21 -12 -25 -40 -25 -49 0 -84 -26 -84 -61 l0 -29 80 0 c79 0
80 0 75 23 -4 16 1 29 20 47 22 21 36 25 80 24 50 -1 53 0 68 31 16 34 68 65
109 65 37 0 40 9 12 46 -34 44 -74 52 -120 25 -42 -25 -44 -25 -44 -6 0 35
-57 67 -86 47z"/>
<path d="M12600 305 c0 -4 67 -35 75 -35 2 0 1 9 -2 20 -4 15 -14 20 -39 20
-19 0 -34 -2 -34 -5z"/>
<path d="M15900 288 c-23 -25 -23 -25 -9 -67 11 -30 9 -35 -20 -65 -17 -17
-31 -40 -31 -49 0 -13 -9 -17 -36 -17 -42 0 -70 -13 -84 -40 -21 -39 -4 -50
82 -50 53 0 77 3 73 11 -4 5 -4 21 -1 35 9 33 65 57 115 50 35 -6 37 -5 54 36
34 79 40 83 110 63 34 -9 35 3 5 50 -18 27 -30 35 -54 35 -16 0 -39 -7 -50
-15 -28 -21 -42 -18 -71 15 -29 36 -55 38 -83 8z"/>
<path d="M14912 288 c6 -18 28 -21 28 -4 0 9 -7 16 -16 16 -9 0 -14 -5 -12
-12z"/>
<path d="M1162 268 c-7 -7 -12 -20 -12 -29 0 -10 -8 -20 -19 -24 -23 -7 -47
-33 -55 -61 -6 -19 -2 -22 31 -27 21 -3 46 -8 56 -12 13 -5 17 -2 17 13 0 36
38 72 77 72 48 0 38 23 -13 30 -21 3 -39 10 -39 15 0 14 -15 35 -24 35 -4 0
-12 -5 -19 -12z"/>
<path d="M7184 272 c-5 -4 -15 -20 -22 -36 -9 -20 -18 -27 -31 -23 -13 3 -21
-5 -31 -32 -7 -20 -15 -41 -17 -46 -2 -7 12 -11 34 -11 21 -1 48 -4 61 -9 19
-6 22 -4 22 18 0 32 54 80 81 72 11 -4 19 -2 19 4 0 11 -19 16 -53 13 -10 -1
-21 8 -27 22 -10 28 -22 37 -36 28z"/>
<path d="M3036 220 c-4 -23 -5 -44 -3 -46 5 -5 47 26 47 35 0 5 -8 19 -18 32
l-19 22 -7 -43z"/>
<path d="M8722 218 c2 -33 8 -44 22 -46 15 -3 17 0 11 14 -4 11 -10 31 -13 47
-7 43 -23 31 -20 -15z"/>
<path d="M1964 238 c-4 -6 3 -19 16 -30 28 -23 34 -19 21 16 -11 28 -25 33
-37 14z"/>
<path d="M2177 234 c-8 -8 1 -24 14 -24 5 0 9 7 9 15 0 15 -12 20 -23 9z"/>
<path d="M5028 224 c-23 -7 -23 -17 0 -38 11 -9 25 -34 32 -57 12 -35 11 -42
-2 -55 -12 -13 -20 -14 -36 -5 -22 12 -73 81 -86 115 -5 14 -10 16 -18 8 -6
-6 -16 -8 -24 -5 -18 7 -55 -56 -48 -82 3 -11 13 -26 22 -32 14 -12 13 -15 -6
-36 -12 -13 -22 -26 -22 -30 0 -4 163 -7 362 -7 286 0 359 3 350 12 -7 7 -45
14 -90 15 -42 1 -80 3 -84 3 -4 0 -8 10 -10 22 -4 27 -62 48 -80 30 -8 -8 -20
-3 -45 18 -21 19 -45 30 -63 30 -25 0 -30 4 -30 23 0 50 -65 87 -122 71z m-35
-183 c5 -5 -4 -12 -22 -16 -33 -7 -66 9 -55 27 7 11 63 3 77 -11z"/>
<path d="M17693 218 c-4 -7 -12 -21 -18 -32 -5 -10 -28 -28 -49 -40 -49 -27
-55 -42 -19 -48 15 -3 35 -8 44 -12 12 -5 19 1 27 23 6 17 18 31 26 31 12 0
16 11 16 45 0 44 -11 57 -27 33z"/>
<path d="M16349 198 c-9 -16 -9 -23 0 -26 6 -2 11 -8 11 -13 0 -4 -7 -6 -16
-2 -9 3 -19 2 -23 -4 -3 -5 -22 -14 -41 -19 -22 -6 -43 -22 -55 -41 -13 -20
-31 -33 -52 -38 -32 -6 -63 -28 -63 -46 0 -5 17 -9 38 -9 31 0 41 5 55 29 25
42 78 64 143 59 50 -4 54 -3 54 17 0 12 9 30 20 40 28 25 26 32 -20 55 l-39
20 -12 -22z"/>
<path d="M16746 212 c-3 -5 -3 -17 0 -26 3 -9 1 -16 -5 -16 -6 0 -11 5 -11 12
0 6 -9 3 -20 -7 -19 -18 -21 -17 -55 1 -39 21 -55 16 -88 -28 -23 -31 -15 -68
14 -68 24 0 26 -35 3 -48 -9 -5 -14 -14 -10 -21 5 -8 107 -11 354 -11 268 0
343 3 334 12 -7 7 -46 13 -94 14 -72 2 -83 4 -89 22 -17 46 -87 57 -113 18
-17 -27 -50 -36 -83 -23 -26 12 -36 54 -15 66 14 8 14 11 -1 25 -9 9 -14 22
-12 29 7 20 -20 46 -54 53 -28 6 -31 4 -25 -12 6 -18 6 -18 -8 0 -9 12 -17 15
-22 8z m-132 -67 c3 -8 1 -15 -4 -15 -6 0 -10 -10 -10 -22 0 -20 -1 -21 -20
-3 -19 17 -19 19 -3 36 22 22 29 23 37 4z"/>
<path d="M4638 191 c-19 -12 -24 -21 -18 -27 7 -7 2 -20 -15 -38 -21 -23 -32
-27 -56 -22 -21 4 -29 2 -29 -9 0 -15 -57 -62 -70 -58 -4 1 -16 -7 -25 -17
-18 -20 -17 -20 18 -20 30 0 39 5 52 29 19 39 88 65 150 59 39 -5 45 -3 45 14
0 10 12 30 26 45 14 14 24 26 22 28 -6 5 -67 35 -70 34 -2 0 -15 -8 -30 -18z"/>
<path d="M1360 181 c-11 -9 -22 -36 -25 -62 l-7 -47 34 -4 c18 -3 40 -7 48 -9
11 -3 17 10 25 46 5 28 13 55 18 62 17 27 -63 39 -93 14z"/>
<path d="M7370 160 c-11 -9 -23 -32 -27 -53 -5 -35 -4 -37 20 -37 14 0 37 -4
51 -10 22 -8 26 -7 26 9 0 10 12 31 26 46 20 22 24 33 17 44 -13 21 -86 21
-113 1z"/>
<path d="M6232 147 c-5 -6 -12 -24 -16 -38 -4 -20 -14 -28 -39 -33 -48 -9 -68
-27 -61 -53 l6 -23 479 0 c264 0 479 4 479 8 0 12 -34 42 -62 56 -15 8 -25 25
-31 53 -6 34 -11 40 -27 36 -11 -3 -20 -14 -20 -24 0 -21 0 -21 -48 -25 -19
-1 -42 -10 -53 -20 -18 -16 -21 -16 -58 0 -24 11 -47 15 -61 11 -17 -5 -29 1
-55 30 -24 26 -41 36 -57 33 -29 -4 -36 -47 -13 -81 14 -22 14 -25 0 -31 -8
-3 -28 -3 -43 0 -15 3 -44 -1 -62 -9 -33 -13 -38 -13 -79 11 l-44 26 -40 -22
c-22 -12 -44 -19 -49 -16 -5 4 -7 27 -3 54 6 42 4 50 -13 59 -15 8 -22 7 -30
-2z"/>
<path d="M13873 122 c-6 -4 -13 -21 -15 -37 -2 -18 -9 -30 -18 -30 -24 -1 -40
-15 -40 -36 0 -18 9 -19 272 -19 149 0 268 3 265 7 -4 3 -2 12 3 18 8 10 -1
15 -37 21 -27 4 -65 7 -85 5 -20 -1 -45 2 -55 7 -12 7 -25 7 -38 0 -15 -9 -22
-7 -33 10 -16 25 -59 29 -76 8 -6 -8 -22 -17 -36 -21 -14 -4 -22 -4 -17 0 10
12 -23 45 -45 45 -10 0 -18 7 -18 15 0 16 -9 19 -27 7z"/>
<path d="M1563 74 l-2 -46 31 6 c23 4 34 1 47 -15 13 -17 25 -20 71 -17 l55 3
-27 18 c-14 10 -48 23 -75 30 -38 9 -49 17 -51 35 -2 12 -7 22 -12 22 -5 0
-14 2 -22 5 -9 4 -13 -7 -15 -41z"/>
<path d="M7580 98 c0 -13 -3 -34 -7 -47 -6 -23 -4 -24 26 -18 24 5 36 2 52
-14 16 -16 30 -19 72 -17 l52 3 -35 23 c-19 12 -52 25 -72 28 -26 5 -38 12
-38 23 0 20 -19 41 -37 41 -7 0 -13 -10 -13 -22z"/>
<path d="M8680 110 c0 -5 5 -10 11 -10 5 0 7 5 4 10 -3 6 -8 10 -11 10 -2 0
-4 -4 -4 -10z"/>
<path d="M8997 113 c-4 -3 -7 -20 -7 -36 0 -24 -4 -28 -19 -24 -27 7 -50 -10
-44 -33 5 -19 14 -20 273 -20 l267 0 -4 24 c-6 31 -50 41 -92 20 -33 -16 -61
-12 -87 13 -11 11 -18 13 -26 5 -12 -12 -39 -4 -51 15 -10 17 -51 17 -65 0
-15 -18 -62 -20 -62 -3 0 33 -61 61 -83 39z"/>
<path d="M7148 31 c-21 -10 -41 -21 -45 -24 -3 -4 48 -7 115 -7 67 0 122 4
122 8 0 11 -60 29 -115 36 -27 4 -52 -1 -77 -13z"/>
<path d="M5645 20 c-18 -20 -17 -20 23 -20 45 0 54 13 23 30 -26 13 -25 13
-46 -10z"/>
<path d="M17355 20 c-18 -20 -17 -20 24 -20 39 0 41 1 31 20 -14 25 -32 25
-55 0z"/>
<path d="M5829 9 c-9 -6 11 -9 56 -9 45 0 65 3 56 9 -19 12 -93 12 -112 0z"/>
<path d="M17525 9 c-12 -5 10 -8 60 -8 56 0 73 3 58 9 -26 11 -91 10 -118 -1z"/>
</g>
</svg>
